<svg id="svg" version="1.1" xmlns="http://www.w3.org/2000/svg" xmlns:xlink="http://www.w3.org/1999/xlink" width="60" height="60" viewBox="0, 0, 400,400"><g id="svgg"><path id="path0" d="M196.156 41.851 C 195.300 42.429,194.510 43.023,194.400 43.172 C 194.091 43.589,191.348 44.800,190.712 44.800 C 190.399 44.800,189.527 45.361,188.772 46.047 C 188.017 46.733,186.249 47.817,184.842 48.456 C 183.436 49.095,181.678 50.151,180.935 50.803 C 180.193 51.455,179.094 52.106,178.493 52.250 C 176.946 52.621,175.409 53.446,173.384 54.991 C 172.420 55.727,171.105 56.445,170.462 56.586 C 169.820 56.727,168.598 57.429,167.747 58.144 C 166.126 59.508,163.677 60.800,162.712 60.800 C 162.400 60.800,161.438 61.434,160.573 62.209 C 159.708 62.984,157.936 64.009,156.635 64.486 C 155.334 64.964,153.794 65.815,153.214 66.377 C 152.185 67.375,151.766 67.613,148.732 68.923 C 147.924 69.272,146.446 70.181,145.447 70.943 C 144.448 71.706,143.105 72.445,142.462 72.586 C 141.820 72.727,140.595 73.418,139.741 74.121 C 137.795 75.725,136.892 76.228,135.361 76.565 C 134.694 76.711,133.301 77.531,132.266 78.386 C 131.231 79.241,129.472 80.244,128.356 80.615 C 127.240 80.985,125.751 81.794,125.047 82.412 C 124.343 83.030,122.774 83.975,121.560 84.512 C 120.347 85.049,118.526 86.120,117.513 86.893 C 116.501 87.665,115.072 88.411,114.337 88.549 C 113.602 88.688,112.370 89.346,111.600 90.011 C 109.965 91.425,108.474 92.232,106.833 92.593 C 106.187 92.735,105.240 93.255,104.729 93.750 C 103.148 95.280,101.462 96.299,99.750 96.760 C 98.846 97.003,97.678 97.621,97.154 98.134 C 96.223 99.043,95.475 99.482,92.200 101.039 C 91.320 101.458,90.150 102.208,89.600 102.707 C 89.050 103.206,87.756 103.930,86.723 104.317 C 85.691 104.703,84.185 105.546,83.376 106.191 C 81.575 107.628,80.413 108.246,78.881 108.582 C 78.236 108.724,77.369 109.151,76.954 109.532 C 75.246 111.100,73.304 112.293,71.738 112.738 C 70.824 112.997,69.207 113.927,68.145 114.805 C 67.083 115.682,65.969 116.400,65.669 116.400 C 64.997 116.400,62.904 117.551,61.817 118.518 C 60.847 119.381,58.872 120.400,58.169 120.400 C 57.890 120.400,56.882 120.987,55.931 121.704 C 53.238 123.733,52.291 124.273,50.881 124.582 C 50.162 124.740,48.994 125.405,48.287 126.060 C 46.988 127.262,44.087 128.800,43.119 128.800 C 42.830 128.800,41.607 129.610,40.400 130.600 C 39.193 131.590,38.006 132.400,37.763 132.400 C 36.809 132.400,34.016 134.845,33.327 136.283 C 32.660 137.674,32.600 139.181,32.600 154.400 L 32.600 171.000 33.762 172.613 C 35.962 175.669,40.960 176.172,43.228 173.566 C 43.573 173.169,45.321 172.309,47.112 171.656 C 48.904 171.002,50.805 170.031,51.338 169.499 C 51.870 168.966,53.182 168.294,54.253 168.006 C 55.324 167.718,56.371 167.329,56.580 167.141 C 56.789 166.953,57.239 166.797,57.580 166.793 C 57.921 166.789,58.608 166.356,59.107 165.830 C 60.702 164.147,62.180 163.889,63.375 165.084 L 64.400 166.109 64.400 256.067 C 64.400 352.489,64.293 347.163,66.278 349.421 C 68.356 351.784,57.044 351.601,200.161 351.593 L 330.600 351.587 332.192 350.685 C 333.084 350.180,334.180 349.084,334.685 348.192 L 335.587 346.600 335.596 257.400 C 335.601 199.185,335.743 167.700,336.004 166.760 C 336.792 163.924,338.959 163.426,341.245 165.556 C 341.730 166.008,343.494 166.942,345.164 167.631 C 346.834 168.320,348.560 169.211,349.000 169.611 C 349.440 170.010,351.227 170.902,352.971 171.593 C 354.715 172.283,356.663 173.287,357.301 173.824 C 357.939 174.361,358.819 174.800,359.257 174.800 C 359.695 174.800,360.415 174.994,360.858 175.231 C 362.451 176.083,365.676 174.225,366.949 171.720 C 367.905 169.840,367.931 138.891,366.979 136.612 C 366.262 134.894,364.869 133.533,362.600 132.333 C 361.720 131.867,360.343 130.926,359.539 130.243 C 358.736 129.559,357.190 128.688,356.105 128.307 C 355.020 127.926,353.611 127.131,352.975 126.541 C 352.338 125.952,350.818 125.077,349.596 124.598 C 348.374 124.120,346.529 123.082,345.495 122.293 C 344.462 121.504,343.207 120.744,342.708 120.604 C 341.188 120.178,339.841 119.453,338.997 118.606 C 338.173 117.779,337.525 117.423,334.400 116.076 C 333.410 115.649,332.028 114.778,331.330 114.141 C 330.631 113.503,329.266 112.770,328.297 112.510 C 327.327 112.251,325.661 111.317,324.593 110.435 C 323.526 109.553,322.101 108.713,321.426 108.569 C 320.752 108.425,319.088 107.518,317.728 106.553 C 316.369 105.589,315.136 104.800,314.989 104.800 C 314.336 104.800,311.727 103.370,311.000 102.614 C 310.160 101.741,307.617 100.400,306.801 100.400 C 306.283 100.400,304.209 99.009,303.154 97.954 C 302.792 97.592,301.578 96.991,300.456 96.619 C 299.334 96.246,297.569 95.241,296.534 94.386 C 295.499 93.531,294.101 92.713,293.426 92.569 C 292.752 92.425,291.120 91.544,289.800 90.612 C 288.480 89.680,286.726 88.697,285.901 88.428 C 285.077 88.159,283.682 87.337,282.802 86.602 C 281.922 85.867,280.305 84.967,279.209 84.603 C 278.113 84.239,276.391 83.259,275.383 82.426 C 274.374 81.593,272.855 80.703,272.006 80.449 C 271.157 80.195,269.509 79.270,268.344 78.395 C 267.180 77.520,265.669 76.699,264.987 76.571 C 263.951 76.377,262.610 75.529,259.800 73.292 C 259.580 73.117,258.567 72.658,257.549 72.273 C 256.531 71.887,255.365 71.204,254.959 70.755 C 254.204 69.921,251.234 68.400,250.360 68.400 C 249.905 68.400,247.606 66.818,246.504 65.747 C 246.231 65.481,245.331 65.043,244.504 64.772 C 242.867 64.235,241.753 63.596,239.600 61.959 C 238.830 61.373,237.687 60.775,237.060 60.629 C 236.433 60.484,234.650 59.473,233.097 58.382 C 231.545 57.292,229.968 56.400,229.593 56.400 C 228.992 56.400,226.135 54.718,225.600 54.049 C 225.376 53.769,224.090 53.125,222.000 52.248 C 221.230 51.925,220.021 51.133,219.312 50.488 C 218.604 49.844,216.984 48.930,215.712 48.459 C 214.441 47.987,212.682 46.971,211.804 46.201 C 210.927 45.430,209.937 44.796,209.604 44.791 C 208.655 44.777,205.753 43.353,204.866 42.466 C 202.791 40.391,198.741 40.105,196.156 41.851 M204.744 55.442 C 208.248 57.095,207.982 56.947,210.832 58.839 C 212.025 59.630,213.529 60.407,214.177 60.566 C 214.824 60.724,215.724 61.277,216.177 61.795 C 216.897 62.618,221.017 64.800,221.852 64.800 C 222.020 64.800,222.616 65.233,223.178 65.762 C 224.372 66.886,226.994 68.400,227.747 68.400 C 228.035 68.400,229.244 69.089,230.435 69.931 C 231.626 70.773,233.358 71.759,234.284 72.122 C 235.210 72.484,236.773 73.396,237.758 74.147 C 238.743 74.899,240.416 75.842,241.475 76.242 C 242.534 76.643,243.935 77.465,244.589 78.070 C 245.243 78.674,246.783 79.545,248.010 80.004 C 249.237 80.463,250.772 81.304,251.421 81.872 C 252.069 82.441,253.590 83.347,254.800 83.885 C 258.303 85.443,258.638 85.628,259.646 86.555 C 260.171 87.039,261.651 87.859,262.936 88.378 C 264.221 88.897,265.352 89.530,265.449 89.783 C 265.604 90.188,267.598 91.296,270.800 92.757 C 271.350 93.008,272.520 93.745,273.400 94.395 C 274.280 95.045,275.810 95.878,276.800 96.246 C 277.790 96.614,278.870 97.204,279.200 97.558 C 280.102 98.524,281.583 99.389,283.726 100.200 C 284.785 100.600,286.315 101.462,287.126 102.115 C 287.937 102.767,289.725 103.811,291.100 104.434 C 292.475 105.057,293.600 105.716,293.600 105.899 C 293.600 106.191,295.676 107.332,298.800 108.757 C 299.350 109.008,300.520 109.745,301.400 110.395 C 302.280 111.045,303.810 111.890,304.800 112.274 C 305.790 112.657,307.135 113.465,307.789 114.070 C 308.443 114.674,309.996 115.550,311.241 116.015 C 312.485 116.481,314.424 117.553,315.550 118.399 C 316.675 119.245,318.221 120.143,318.985 120.395 C 319.749 120.647,321.539 121.635,322.963 122.590 C 324.387 123.545,326.103 124.447,326.776 124.595 C 327.448 124.742,328.224 125.176,328.500 125.559 C 329.077 126.360,330.620 127.272,333.241 128.358 C 334.254 128.778,335.694 129.647,336.441 130.290 C 337.189 130.932,338.839 131.872,340.108 132.379 C 341.377 132.885,342.547 133.518,342.708 133.786 C 343.059 134.370,346.213 136.201,347.571 136.608 C 348.105 136.768,349.003 137.327,349.567 137.849 C 350.130 138.372,350.819 138.800,351.096 138.800 C 351.373 138.800,351.601 138.935,351.601 139.100 C 351.602 139.265,352.387 139.722,353.345 140.116 C 355.633 141.057,355.958 141.890,356.265 147.608 C 356.563 153.147,355.925 157.982,354.756 159.040 C 353.971 159.750,353.287 159.494,351.206 157.712 C 350.798 157.363,349.313 156.700,347.905 156.239 C 345.433 155.428,343.920 154.632,342.756 153.528 C 342.450 153.237,341.120 152.654,339.800 152.230 C 337.624 151.532,334.989 150.009,334.351 149.080 C 333.617 148.012,327.192 148.258,326.000 149.400 C 324.490 150.846,323.497 153.676,324.017 155.046 C 324.257 155.675,324.400 190.217,324.400 247.300 L 324.400 338.548 323.530 339.474 L 322.661 340.400 199.958 340.400 L 77.254 340.400 76.427 339.238 L 75.600 338.077 75.600 248.446 C 75.600 181.421,75.719 158.121,76.072 156.064 C 76.611 152.920,76.267 151.598,74.384 149.583 C 72.651 147.728,67.232 147.902,64.957 149.886 C 63.693 150.987,61.268 152.146,59.338 152.570 C 58.662 152.718,57.769 153.147,57.354 153.523 C 56.136 154.627,54.733 155.421,52.600 156.215 C 51.500 156.624,49.725 157.553,48.655 158.279 C 44.689 160.973,44.199 160.110,44.208 150.458 C 44.217 141.129,44.175 141.279,47.135 139.890 C 48.435 139.279,50.014 138.337,50.644 137.796 C 51.273 137.255,52.662 136.499,53.729 136.115 C 54.797 135.731,56.329 134.863,57.135 134.186 C 57.941 133.509,59.495 132.620,60.588 132.210 C 61.682 131.801,62.762 131.314,62.988 131.127 C 63.215 130.940,63.889 130.354,64.487 129.825 C 65.085 129.295,65.985 128.747,66.487 128.607 C 67.980 128.189,71.600 126.330,71.600 125.981 C 71.600 125.804,72.635 125.187,73.900 124.611 C 77.162 123.126,78.512 122.356,79.200 121.586 C 79.530 121.216,80.250 120.776,80.800 120.606 C 82.431 120.103,84.518 118.948,85.800 117.839 C 86.460 117.268,87.130 116.801,87.289 116.800 C 88.003 116.799,91.920 114.697,92.899 113.789 C 93.495 113.236,94.531 112.674,95.200 112.540 C 95.869 112.406,96.514 112.140,96.632 111.948 C 96.750 111.757,97.119 111.600,97.450 111.600 C 97.782 111.600,98.716 110.970,99.527 110.201 C 100.337 109.431,101.360 108.697,101.800 108.568 C 103.615 108.040,106.282 106.632,107.514 105.552 C 108.237 104.918,109.064 104.400,109.352 104.400 C 110.175 104.400,112.069 103.335,113.600 102.012 C 114.370 101.346,115.147 100.801,115.326 100.801 C 116.149 100.799,120.019 98.744,120.946 97.817 C 121.515 97.249,122.528 96.674,123.198 96.540 C 123.868 96.406,124.514 96.140,124.632 95.948 C 124.750 95.757,125.119 95.600,125.450 95.600 C 125.782 95.600,126.716 94.970,127.527 94.201 C 128.337 93.431,129.360 92.697,129.800 92.568 C 131.615 92.040,134.282 90.632,135.514 89.552 C 136.237 88.918,137.086 88.400,137.402 88.400 C 138.092 88.400,140.172 87.260,142.321 85.703 C 143.187 85.076,144.639 84.317,145.547 84.018 C 146.455 83.718,147.867 82.877,148.686 82.149 C 149.504 81.421,150.672 80.716,151.282 80.582 C 151.892 80.448,152.494 80.172,152.619 79.969 C 152.745 79.766,153.111 79.600,153.434 79.600 C 153.757 79.600,154.661 79.018,155.443 78.306 C 156.226 77.594,157.796 76.672,158.933 76.257 C 160.070 75.841,161.937 74.803,163.083 73.951 C 164.228 73.098,165.433 72.400,165.759 72.400 C 166.086 72.400,166.464 72.220,166.600 72.000 C 166.736 71.780,167.152 71.598,167.524 71.596 C 167.896 71.594,168.954 70.993,169.876 70.260 C 170.798 69.527,172.401 68.603,173.438 68.207 C 174.476 67.810,175.756 67.107,176.282 66.643 C 177.410 65.650,181.109 63.600,181.772 63.600 C 182.026 63.600,182.896 62.975,183.707 62.210 C 184.517 61.446,185.680 60.696,186.290 60.544 C 187.564 60.227,189.584 59.146,191.367 57.826 C 192.045 57.324,193.638 56.415,194.908 55.806 C 196.177 55.197,197.313 54.541,197.431 54.349 C 197.982 53.458,201.725 54.017,204.744 55.442 M386.400 122.633 C 386.400 122.945,386.591 123.200,386.824 123.200 C 387.057 123.200,387.125 123.002,386.975 122.760 C 386.795 122.469,387.007 122.482,387.600 122.800 C 388.193 123.118,388.405 123.131,388.225 122.840 C 387.829 122.200,388.359 122.302,389.057 123.000 C 389.590 123.533,389.562 123.600,388.805 123.600 C 388.263 123.600,388.057 123.768,388.238 124.062 C 388.416 124.350,388.348 124.415,388.055 124.234 C 387.798 124.075,387.691 123.777,387.817 123.572 C 387.944 123.368,387.857 123.200,387.624 123.200 C 387.391 123.200,387.200 123.391,387.200 123.624 C 387.200 123.857,387.050 123.955,386.867 123.841 C 386.683 123.728,386.533 123.871,386.533 124.160 C 386.533 124.449,386.818 124.686,387.167 124.688 C 388.729 124.694,389.022 124.799,388.466 125.151 C 388.065 125.405,388.024 125.827,388.303 126.845 C 388.515 127.618,388.659 138.682,388.638 152.600 C 388.597 178.914,388.668 177.968,386.511 180.800 C 385.675 181.896,384.400 184.497,384.400 185.104 C 384.400 186.221,377.719 192.227,375.719 192.910 C 374.575 193.300,373.135 194.027,372.519 194.525 C 370.576 196.098,369.324 196.387,363.521 196.604 C 360.369 196.722,357.632 197.007,357.341 197.249 C 356.914 197.603,356.798 211.977,356.709 275.342 C 356.590 359.976,356.755 353.871,354.504 356.800 C 354.081 357.350,353.390 358.671,352.968 359.735 C 352.234 361.584,346.066 368.400,345.127 368.400 C 344.470 368.400,341.078 370.065,340.445 370.698 C 338.413 372.730,348.269 372.593,197.664 372.681 C 84.175 372.747,58.209 372.858,57.687 373.281 C 57.276 373.614,57.148 373.630,57.330 373.328 C 57.795 372.552,56.888 372.323,56.394 373.092 C 55.969 373.754,55.954 373.754,56.157 373.100 C 56.277 372.715,56.201 372.400,55.987 372.400 C 55.774 372.400,55.600 372.574,55.600 372.787 C 55.600 373.001,55.333 373.073,55.007 372.947 C 54.567 372.779,54.516 372.531,54.807 371.986 C 55.317 371.033,55.305 370.926,54.656 370.677 C 54.245 370.519,54.125 370.878,54.168 372.134 C 54.215 373.535,54.367 373.821,55.123 373.929 C 56.267 374.094,58.000 375.809,58.000 376.775 C 58.000 377.641,58.757 378.000,60.582 378.000 C 61.809 378.000,61.915 378.108,62.156 379.612 C 62.353 380.850,62.651 381.315,63.433 381.612 C 64.829 382.143,351.171 382.143,352.567 381.612 C 353.349 381.315,353.647 380.850,353.844 379.612 C 354.091 378.069,354.165 378.000,355.571 378.000 C 357.068 378.000,358.000 377.439,358.000 376.538 C 358.000 375.887,359.887 374.000,360.538 374.000 C 361.439 374.000,362.000 373.068,362.000 371.571 C 362.000 370.165,362.069 370.091,363.612 369.844 C 366.137 369.441,366.000 374.192,366.000 286.774 L 366.000 206.000 374.774 206.000 C 384.923 206.000,385.482 205.880,385.844 203.612 C 386.091 202.069,386.165 202.000,387.570 202.000 C 390.301 202.000,394.000 198.301,394.000 195.570 C 394.000 194.165,394.069 194.091,395.612 193.844 C 398.070 193.451,398.000 194.390,398.000 162.000 C 398.000 129.610,398.070 130.549,395.612 130.156 C 394.069 129.909,394.000 129.835,394.000 128.429 C 394.000 126.932,393.439 126.000,392.538 126.000 C 391.766 126.000,390.074 124.130,389.929 123.117 C 389.774 122.026,386.400 121.564,386.400 122.633 M22.000 194.695 C 22.000 195.021,22.205 195.131,22.500 194.965 C 22.900 194.739,22.900 194.790,22.500 195.221 C 21.761 196.017,21.880 196.812,22.700 196.557 C 23.354 196.354,23.354 196.369,22.692 196.794 C 21.852 197.334,22.136 198.000,23.205 198.000 C 24.056 198.000,26.000 199.766,26.000 200.538 C 26.000 201.439,26.932 202.000,28.429 202.000 C 29.835 202.000,29.909 202.069,30.156 203.612 C 30.497 205.745,31.252 206.000,37.236 206.000 L 42.020 206.000 42.445 204.900 C 43.155 203.065,43.496 198.146,42.964 197.418 C 42.569 196.879,41.257 196.753,34.612 196.620 C 30.276 196.533,26.641 196.374,26.534 196.267 C 26.359 196.092,26.110 195.110,26.031 194.280 C 25.974 193.686,22.000 194.095,22.000 194.695 M55.409 371.525 C 54.921 372.012,55.271 372.282,56.250 372.175 C 57.769 372.008,58.164 371.407,56.787 371.358 C 56.144 371.335,55.524 371.410,55.409 371.525 " stroke="none" fill="#483f6f" fill-rule="evenodd"></path><path id="path1" d="M196.964 17.000 C 195.990 17.974,195.814 18.000,190.208 18.000 C 183.212 18.000,182.504 18.210,182.156 20.388 C 181.901 21.979,181.002 22.411,178.700 22.047 C 178.535 22.021,178.397 22.315,178.394 22.700 C 178.389 23.245,178.312 23.280,178.044 22.857 C 177.281 21.653,174.932 23.090,174.578 24.978 C 174.339 26.250,174.292 26.275,172.267 26.238 L 170.200 26.200 170.211 28.100 L 170.222 30.000 168.811 30.039 C 168.035 30.061,166.455 30.066,165.300 30.051 C 163.707 30.030,163.200 30.166,163.200 30.612 C 163.200 30.935,162.909 31.200,162.553 31.200 C 162.084 31.200,161.958 31.467,162.093 32.174 C 162.407 33.818,161.886 34.142,159.013 34.087 C 155.296 34.015,154.473 34.405,154.156 36.388 C 153.903 37.968,153.865 38.000,152.249 38.002 C 148.672 38.007,146.400 39.338,146.400 41.429 C 146.400 42.194,146.188 42.276,144.300 42.240 L 142.200 42.200 142.211 44.100 L 142.222 46.000 140.411 46.037 C 139.415 46.057,137.826 46.043,136.879 46.006 C 134.689 45.918,134.000 46.503,134.000 48.449 C 134.000 50.170,134.025 50.161,129.500 50.006 C 127.967 49.953,127.600 50.069,127.600 50.608 C 127.600 50.975,127.240 51.369,126.800 51.484 C 126.233 51.632,126.000 52.030,126.000 52.847 C 126.000 53.481,125.775 54.021,125.500 54.047 C 125.225 54.074,124.370 54.128,123.600 54.168 C 122.830 54.208,121.628 54.277,120.929 54.321 C 119.317 54.421,118.400 55.331,118.400 56.829 C 118.400 57.473,118.220 58.016,118.000 58.036 C 117.780 58.055,116.835 58.100,115.900 58.136 C 114.459 58.190,114.180 58.339,114.071 59.111 C 113.799 61.029,112.138 62.071,109.384 62.049 C 106.456 62.027,105.832 62.507,106.075 64.594 C 106.231 65.928,106.177 66.001,105.020 66.016 C 98.310 66.107,98.468 66.055,98.121 68.250 C 97.825 70.127,97.525 70.356,95.690 70.109 C 94.549 69.955,94.132 70.095,93.590 70.813 C 93.080 71.490,92.837 71.583,92.595 71.193 C 92.386 70.853,92.435 70.774,92.738 70.962 C 92.992 71.119,93.200 71.057,93.200 70.824 C 93.200 70.180,91.739 70.318,91.029 71.029 C 90.318 71.739,90.180 73.200,90.824 73.200 C 91.057 73.200,91.119 72.992,90.962 72.738 C 90.785 72.452,90.852 72.385,91.138 72.562 C 92.198 73.217,90.482 74.095,88.023 74.155 C 86.446 74.194,86.183 74.323,86.071 75.111 C 85.847 76.687,84.157 78.001,82.278 78.060 C 81.355 78.089,80.340 78.312,80.023 78.556 C 79.584 78.894,79.518 78.881,79.747 78.500 C 80.136 77.852,79.124 77.836,78.480 78.480 C 77.836 79.124,77.852 80.136,78.500 79.747 C 78.845 79.540,78.831 79.655,78.455 80.118 C 78.156 80.488,78.015 81.062,78.143 81.395 C 78.314 81.842,78.091 82.004,77.287 82.015 C 70.239 82.115,70.424 82.055,70.114 84.367 C 69.886 86.062,69.403 86.296,66.700 86.021 C 66.221 85.972,65.991 86.242,65.972 86.875 C 65.952 87.534,65.866 87.627,65.672 87.200 C 65.458 86.728,65.089 86.920,63.941 88.100 C 62.866 89.205,62.656 89.610,63.141 89.640 C 63.507 89.662,63.355 89.807,62.800 89.967 C 62.250 90.125,61.111 90.179,60.268 90.086 C 59.085 89.956,58.557 90.110,57.952 90.759 C 57.521 91.222,56.993 91.600,56.779 91.600 C 56.564 91.600,56.039 92.175,55.611 92.877 C 54.884 94.074,54.707 94.148,52.807 94.047 C 51.294 93.967,50.808 94.074,50.890 94.470 C 50.950 94.761,50.775 94.955,50.500 94.900 C 50.167 94.833,50.000 95.333,50.000 96.400 L 50.000 98.000 47.700 98.042 C 46.435 98.066,44.929 98.055,44.353 98.018 C 42.910 97.926,41.886 99.044,42.097 100.482 C 42.310 101.929,42.410 101.880,38.601 102.194 C 34.903 102.498,34.488 102.745,34.322 104.730 L 34.200 106.200 32.457 106.075 C 31.323 105.994,30.484 106.159,30.057 106.548 C 29.696 106.876,28.932 107.572,28.359 108.095 C 27.787 108.618,27.243 109.272,27.151 109.548 C 27.047 109.858,26.171 110.071,24.868 110.102 C 22.611 110.158,22.232 110.422,22.145 112.000 C 22.114 112.550,22.069 113.203,22.045 113.452 C 22.019 113.708,21.002 113.978,19.700 114.076 C 15.454 114.393,14.099 115.833,14.030 120.100 L 14.000 122.000 12.449 122.000 C 9.857 122.000,9.990 120.253,10.005 154.105 C 10.020 188.207,9.863 186.194,12.480 185.932 C 13.793 185.801,13.801 185.811,14.000 187.800 C 14.127 189.072,14.377 189.765,14.686 189.705 C 14.967 189.650,15.075 189.861,14.942 190.208 C 14.394 191.636,17.250 193.952,18.067 192.743 C 18.341 192.337,18.404 192.399,18.317 192.990 C 18.155 194.084,21.900 194.425,22.660 193.386 C 23.479 192.265,26.608 192.424,29.527 193.735 C 31.769 194.741,32.663 194.895,37.443 195.095 L 42.831 195.321 43.849 196.531 C 45.296 198.251,44.935 202.629,43.159 204.882 L 41.991 206.365 42.095 283.839 C 42.195 357.599,42.234 361.334,42.911 361.756 C 43.462 362.100,43.709 362.065,44.005 361.600 C 44.260 361.201,44.390 361.168,44.394 361.500 C 44.397 361.775,44.760 362.000,45.200 362.000 C 45.882 362.000,46.000 362.267,46.000 363.805 C 46.000 364.798,46.208 366.013,46.462 366.505 C 46.716 366.997,47.043 367.658,47.189 367.973 C 47.962 369.647,53.431 370.639,54.843 369.361 C 55.941 368.368,59.106 368.527,61.400 369.690 C 65.364 371.700,62.394 371.662,202.800 371.509 C 343.483 371.356,336.573 371.466,338.822 369.358 C 339.384 368.831,340.065 368.400,340.335 368.400 C 343.685 368.400,352.400 359.607,352.400 356.227 C 352.400 355.899,352.784 355.273,353.253 354.836 C 355.484 352.758,355.381 356.465,355.504 273.438 L 355.618 197.075 356.630 196.138 C 357.528 195.305,358.027 195.200,361.088 195.200 C 365.620 195.200,369.492 194.508,370.477 193.523 C 370.905 193.095,372.007 192.483,372.927 192.163 C 375.981 191.099,377.390 190.295,378.400 189.041 C 378.950 188.359,380.047 187.170,380.838 186.400 C 382.620 184.666,383.789 182.717,384.379 180.500 C 384.627 179.565,384.998 178.800,385.201 178.800 C 388.314 178.800,388.729 135.553,385.675 129.400 C 385.239 128.520,384.842 127.440,384.795 127.000 C 384.586 125.080,384.845 123.213,385.394 122.663 C 386.612 121.445,385.562 115.922,383.973 115.189 C 383.658 115.043,383.040 114.746,382.600 114.527 C 382.160 114.309,381.005 114.101,380.034 114.065 C 377.906 113.987,377.993 114.062,377.925 112.252 C 377.861 110.540,377.362 110.009,375.965 110.162 C 374.467 110.327,373.200 109.731,373.200 108.862 C 373.200 107.361,370.685 106.168,367.564 106.188 C 366.009 106.198,365.755 106.093,365.910 105.500 C 366.029 105.047,365.866 104.800,365.447 104.800 C 365.091 104.800,364.800 104.609,364.800 104.376 C 364.800 104.143,364.980 104.064,365.200 104.200 C 365.420 104.336,365.600 104.087,365.600 103.647 C 365.600 102.629,364.819 102.126,364.361 102.849 C 364.072 103.305,364.010 103.297,364.000 102.800 C 363.989 102.267,363.945 102.267,363.600 102.800 C 363.269 103.313,363.211 103.298,363.206 102.700 C 363.201 102.106,362.807 102.000,360.600 102.000 C 357.906 102.000,357.835 101.948,357.984 100.100 C 358.032 99.518,357.835 99.200,357.429 99.200 C 357.083 99.200,356.800 98.917,356.800 98.571 C 356.800 98.165,356.482 97.968,355.900 98.016 C 355.405 98.056,353.875 98.069,352.500 98.044 L 350.000 98.000 350.000 96.400 C 350.000 95.218,349.837 94.800,349.376 94.800 C 349.033 94.800,348.864 94.620,349.000 94.400 C 349.152 94.154,348.500 94.000,347.311 94.000 C 345.525 94.000,345.340 93.907,344.920 92.793 C 344.439 91.520,342.275 90.256,340.400 90.154 C 339.850 90.124,339.085 90.077,338.700 90.050 C 338.315 90.022,338.000 89.719,338.000 89.376 C 338.000 89.033,337.846 88.848,337.658 88.964 C 337.470 89.081,337.394 88.765,337.490 88.264 C 337.702 87.152,336.528 85.946,336.025 86.759 C 335.784 87.150,335.655 87.120,335.468 86.634 C 335.281 86.145,334.627 86.000,332.613 86.000 L 330.000 86.000 330.000 84.629 C 330.000 82.692,329.086 81.933,326.845 82.009 C 322.012 82.172,322.000 82.168,322.000 80.449 C 322.000 78.432,321.266 77.843,319.064 78.092 C 317.410 78.278,317.317 78.232,316.967 77.043 C 316.504 75.474,314.061 74.077,311.700 74.032 C 310.765 74.015,310.000 73.809,310.000 73.576 C 310.000 73.343,309.832 73.256,309.628 73.383 C 309.423 73.509,309.142 73.430,309.004 73.207 C 308.866 72.983,308.943 72.800,309.176 72.800 C 309.752 72.800,309.713 71.473,309.120 70.880 C 308.493 70.253,307.321 70.265,307.065 70.900 C 306.944 71.199,306.850 71.118,306.832 70.700 C 306.805 70.111,306.401 70.000,304.273 70.000 L 301.746 70.000 301.855 68.611 C 301.921 67.771,301.723 66.980,301.354 66.611 C 300.617 65.874,298.403 65.791,298.394 66.500 C 298.389 66.877,298.314 66.884,298.086 66.526 C 297.920 66.265,296.888 65.995,295.792 65.926 L 293.800 65.800 293.925 64.369 C 294.072 62.678,293.347 61.902,291.720 62.010 C 289.503 62.158,288.990 61.977,288.327 60.812 C 287.957 60.161,287.192 59.513,286.627 59.371 C 286.062 59.229,285.600 58.863,285.600 58.557 C 285.600 58.149,285.016 58.000,283.424 58.000 C 282.210 58.000,281.121 57.796,280.962 57.538 C 280.785 57.252,280.852 57.185,281.138 57.362 C 281.770 57.752,281.753 55.513,281.120 54.880 C 280.439 54.199,279.579 54.280,279.855 55.000 C 279.982 55.330,279.886 55.600,279.643 55.600 C 279.399 55.600,279.200 55.351,279.200 55.047 C 279.200 54.742,278.840 54.399,278.399 54.284 C 277.863 54.144,277.690 54.227,277.876 54.537 C 278.036 54.803,277.876 54.775,277.501 54.471 C 277.142 54.180,276.522 53.975,276.124 54.017 C 274.335 54.203,274.000 54.011,274.000 52.800 C 274.000 52.140,273.826 51.600,273.613 51.600 C 273.399 51.600,273.341 51.299,273.482 50.931 C 273.677 50.423,273.577 50.323,273.069 50.518 C 272.701 50.659,272.400 50.587,272.400 50.357 C 272.400 50.127,271.725 49.970,270.900 50.008 C 266.256 50.223,266.000 50.143,266.000 48.480 C 266.000 46.392,265.452 46.000,262.538 46.000 C 259.815 46.000,257.851 44.752,257.816 43.000 C 257.802 42.309,257.528 42.200,255.807 42.200 L 253.814 42.200 253.563 40.658 C 253.282 38.930,252.748 38.446,251.000 38.338 C 250.340 38.297,249.530 38.223,249.200 38.174 C 248.870 38.125,248.015 38.066,247.300 38.043 C 246.132 38.004,246.000 37.878,246.000 36.800 C 246.000 34.669,244.853 34.000,241.200 34.000 C 238.267 34.000,238.000 33.933,238.000 33.200 C 238.000 32.760,237.775 32.397,237.500 32.394 C 237.168 32.390,237.201 32.260,237.600 32.005 C 238.940 31.151,237.497 30.208,234.657 30.081 C 231.776 29.953,229.851 28.727,229.816 27.000 C 229.802 26.309,229.528 26.200,227.800 26.200 C 225.850 26.200,225.797 26.169,225.678 24.942 C 225.469 22.794,223.995 22.135,219.151 22.024 C 218.241 22.003,218.068 21.786,217.844 20.388 C 217.496 18.210,216.788 18.000,209.792 18.000 C 204.186 18.000,204.010 17.974,203.036 17.000 C 202.232 16.195,201.639 16.000,200.000 16.000 C 198.361 16.000,197.768 16.195,196.964 17.000 M203.523 39.266 C 205.630 39.788,207.082 40.603,208.062 41.813 C 208.426 42.262,209.623 42.860,210.722 43.141 C 211.952 43.457,213.235 44.154,214.060 44.955 C 214.797 45.671,216.477 46.659,217.793 47.150 C 220.310 48.090,221.600 48.994,221.600 49.817 C 221.600 50.089,222.262 50.435,223.071 50.587 C 225.359 51.016,228.029 52.427,228.497 53.453 C 228.730 53.966,229.209 54.459,229.561 54.550 C 229.912 54.640,231.072 54.942,232.138 55.220 C 233.322 55.529,234.644 56.266,235.538 57.116 C 236.352 57.890,238.005 58.849,239.268 59.279 C 240.515 59.704,242.048 60.535,242.674 61.126 C 243.869 62.252,246.434 63.600,247.384 63.600 C 247.691 63.600,248.450 64.209,249.071 64.953 C 249.762 65.782,250.738 66.422,251.587 66.604 C 252.350 66.768,253.250 67.038,253.587 67.204 C 253.924 67.371,254.718 67.751,255.352 68.049 C 255.986 68.347,256.688 68.995,256.913 69.488 C 257.138 69.981,257.699 70.484,258.161 70.606 C 261.176 71.403,262.284 71.928,263.661 73.211 C 264.609 74.096,265.990 74.870,267.208 75.202 C 268.305 75.501,269.817 76.309,270.569 76.998 C 271.322 77.686,272.716 78.575,273.668 78.973 C 276.841 80.297,277.287 80.577,277.620 81.452 C 277.848 82.053,278.422 82.402,279.475 82.582 C 281.655 82.955,284.532 84.495,285.000 85.540 C 285.220 86.032,285.850 86.522,286.400 86.631 C 289.541 87.250,292.400 88.758,292.400 89.795 C 292.400 90.093,292.985 90.461,293.700 90.614 C 295.721 91.046,299.161 92.848,299.400 93.600 C 299.530 94.011,300.572 94.568,302.044 95.013 C 303.769 95.536,304.746 96.104,305.416 96.974 C 306.091 97.850,307.079 98.421,308.880 98.976 C 310.675 99.529,311.823 100.191,312.869 101.276 C 313.676 102.114,314.714 102.800,315.174 102.800 C 315.634 102.800,316.323 102.953,316.705 103.139 C 319.162 104.340,319.842 104.806,320.178 105.519 C 320.418 106.028,321.423 106.583,322.935 107.041 C 324.352 107.470,325.866 108.282,326.679 109.048 C 327.429 109.756,328.978 110.650,330.122 111.035 C 331.265 111.420,332.779 112.325,333.486 113.047 C 334.234 113.809,335.367 114.470,336.191 114.625 C 336.971 114.771,337.707 115.050,337.828 115.245 C 337.949 115.440,338.321 115.600,338.655 115.600 C 338.989 115.600,339.954 116.320,340.800 117.200 C 341.655 118.090,342.717 118.800,343.194 118.800 C 344.496 118.800,348.354 120.826,348.615 121.647 C 348.766 122.122,349.676 122.604,351.261 123.049 C 352.850 123.495,354.178 124.200,355.139 125.106 C 355.943 125.865,357.320 126.753,358.200 127.080 C 360.893 128.081,361.492 128.451,362.024 129.444 C 362.305 129.970,362.820 130.402,363.168 130.404 C 364.546 130.412,367.906 132.756,368.441 134.082 C 369.112 135.749,369.463 167.913,368.852 171.838 C 368.207 175.979,365.461 177.578,360.056 176.960 C 356.865 176.596,356.382 176.408,354.959 174.985 C 354.197 174.223,353.262 173.600,352.881 173.600 C 351.467 173.600,347.773 171.978,346.991 171.012 C 346.459 170.357,345.173 169.711,343.246 169.132 C 341.384 168.572,339.898 167.836,339.182 167.120 C 338.344 166.282,337.968 166.121,337.726 166.496 C 337.547 166.773,337.310 207.950,337.200 258.000 C 336.992 352.832,337.046 350.141,335.313 351.701 C 333.650 353.199,332.660 353.209,198.590 353.104 C 53.917 352.990,65.333 353.191,64.105 350.734 C 62.835 348.194,62.804 346.019,62.798 257.800 C 62.794 208.960,62.678 168.317,62.540 167.481 L 62.289 165.963 61.245 167.169 C 60.434 168.105,59.487 168.558,57.023 169.188 C 55.276 169.635,53.746 170.146,53.623 170.323 C 52.288 172.249,51.323 172.747,47.502 173.480 C 46.898 173.595,45.864 174.305,45.205 175.056 C 43.793 176.664,39.936 177.408,36.181 176.797 C 30.957 175.947,30.800 175.282,30.800 154.053 C 30.800 136.589,30.985 134.677,32.852 132.810 C 34.101 131.561,36.348 130.400,37.517 130.400 C 38.016 130.400,38.400 130.054,38.546 129.473 C 38.793 128.490,39.445 128.079,42.516 126.971 C 43.569 126.591,45.067 125.697,45.844 124.986 C 46.620 124.274,48.245 123.381,49.453 123.001 C 50.661 122.621,51.863 121.955,52.125 121.521 C 52.691 120.580,56.024 118.800,57.218 118.800 C 57.683 118.800,58.733 118.125,59.552 117.300 C 60.933 115.910,64.123 114.393,65.657 114.398 C 66.018 114.399,66.422 113.966,66.555 113.436 C 66.745 112.680,67.425 112.232,69.699 111.365 C 71.294 110.757,73.230 109.682,74.000 108.977 C 74.770 108.272,76.390 107.375,77.600 106.982 C 78.810 106.590,80.262 105.775,80.827 105.171 C 81.903 104.019,84.377 102.800,85.637 102.800 C 86.043 102.800,86.771 102.266,87.253 101.613 C 88.203 100.328,90.637 99.017,92.837 98.604 C 93.762 98.431,94.425 97.982,94.849 97.244 C 95.295 96.466,96.234 95.865,98.041 95.201 C 99.448 94.684,101.250 93.684,102.046 92.980 C 102.841 92.276,104.446 91.383,105.614 90.995 C 106.781 90.608,108.302 89.725,108.992 89.034 C 110.109 87.918,111.199 87.415,114.280 86.594 C 114.763 86.465,115.263 86.031,115.390 85.631 C 115.663 84.771,119.013 82.946,121.003 82.573 C 121.771 82.429,122.400 82.150,122.400 81.953 C 122.400 81.218,124.466 79.838,126.696 79.084 C 128.020 78.636,129.555 77.747,130.305 76.994 C 131.140 76.156,132.473 75.425,134.002 74.967 C 135.331 74.569,136.484 73.973,136.596 73.625 C 136.858 72.818,139.344 71.407,141.555 70.812 C 142.680 70.509,143.360 70.076,143.489 69.581 C 143.702 68.767,146.894 67.084,149.127 66.608 C 149.857 66.452,150.565 66.027,150.701 65.662 C 151.061 64.695,152.311 63.899,154.800 63.053 C 156.010 62.641,157.630 61.714,158.400 60.991 C 159.209 60.232,160.769 59.378,162.096 58.967 C 163.359 58.576,164.483 57.974,164.595 57.628 C 164.858 56.818,167.341 55.408,169.555 54.812 C 170.680 54.509,171.360 54.076,171.489 53.581 C 171.711 52.731,175.005 51.021,177.218 50.607 C 178.072 50.447,178.787 50.019,179.018 49.530 C 179.228 49.083,179.850 48.481,180.400 48.193 C 181.907 47.402,184.279 46.400,184.644 46.400 C 184.821 46.400,185.604 45.791,186.383 45.048 C 187.162 44.304,188.758 43.385,189.929 43.006 C 191.099 42.627,192.156 42.059,192.277 41.744 C 193.088 39.629,199.391 38.241,203.523 39.266 M92.546 72.487 C 92.445 72.650,92.032 72.577,91.628 72.325 C 91.079 71.982,91.007 71.745,91.342 71.386 C 91.821 70.874,92.921 71.880,92.546 72.487 M63.029 87.029 C 62.280 87.777,62.190 88.941,62.900 88.690 C 63.175 88.593,63.379 88.242,63.353 87.910 C 63.328 87.578,63.578 87.328,63.910 87.353 C 64.242 87.379,64.593 87.175,64.690 86.900 C 64.941 86.190,63.777 86.280,63.029 87.029 M197.200 92.280 C 195.555 92.875,193.718 93.850,193.005 94.505 C 192.092 95.345,190.094 96.400,189.417 96.400 C 189.163 96.400,187.800 97.214,186.387 98.209 C 184.974 99.204,183.094 100.211,182.209 100.446 C 180.754 100.833,177.982 102.547,177.679 103.247 C 177.612 103.400,176.497 103.844,175.201 104.232 C 173.905 104.620,172.249 105.452,171.522 106.080 C 169.975 107.416,168.453 108.237,166.883 108.582 C 166.264 108.718,165.063 109.430,164.213 110.164 C 163.364 110.898,161.536 111.898,160.152 112.387 C 158.768 112.875,157.139 113.736,156.532 114.298 C 155.925 114.861,154.612 115.665,153.614 116.086 C 150.586 117.364,149.839 117.765,148.883 118.627 C 148.378 119.082,147.028 119.786,145.883 120.192 C 144.737 120.598,142.837 121.612,141.660 122.447 C 140.482 123.282,138.862 124.175,138.060 124.432 C 136.685 124.872,133.945 126.633,133.679 127.247 C 133.612 127.400,132.493 127.845,131.191 128.235 C 129.879 128.628,128.153 129.525,127.316 130.247 C 126.487 130.964,124.816 131.860,123.604 132.239 C 122.392 132.617,120.700 133.522,119.844 134.250 C 118.988 134.978,117.068 136.039,115.578 136.608 C 114.088 137.178,112.777 137.884,112.664 138.178 C 112.485 138.643,111.324 139.270,106.800 141.342 C 106.250 141.594,105.387 142.172,104.883 142.627 C 104.378 143.082,103.028 143.785,101.883 144.188 C 100.737 144.591,98.990 145.494,98.000 146.194 C 97.010 146.894,95.144 147.886,93.853 148.399 C 92.562 148.912,90.977 149.776,90.332 150.319 C 89.686 150.862,88.150 151.716,86.918 152.217 C 85.685 152.718,84.302 153.448,83.844 153.840 C 82.558 154.941,79.877 156.390,79.114 156.395 C 77.589 156.406,77.596 155.927,77.699 248.275 L 77.800 338.600 200.200 338.600 L 322.600 338.600 322.701 249.729 C 322.811 152.523,322.908 156.968,320.657 156.195 C 319.808 155.903,318.411 155.100,317.553 154.410 C 316.694 153.720,315.408 152.971,314.696 152.745 C 312.378 152.010,309.184 150.180,308.396 149.134 C 308.284 148.985,307.654 148.731,306.996 148.568 C 305.696 148.248,304.566 147.606,302.400 145.959 C 301.630 145.373,300.460 144.770,299.800 144.619 C 298.340 144.286,295.200 142.503,295.200 142.008 C 295.200 141.811,293.866 141.154,292.235 140.548 C 290.604 139.941,288.588 138.856,287.756 138.137 C 286.923 137.417,285.724 136.715,285.090 136.576 C 284.456 136.437,282.796 135.541,281.400 134.585 C 280.004 133.629,278.159 132.658,277.301 132.427 C 276.442 132.196,274.747 131.296,273.534 130.427 C 272.320 129.558,270.816 128.719,270.190 128.562 C 268.554 128.151,265.069 126.100,264.396 125.151 C 264.284 124.993,263.654 124.731,262.996 124.568 C 261.709 124.251,260.606 123.628,258.400 121.973 C 257.630 121.396,256.249 120.712,255.331 120.455 C 254.413 120.197,252.709 119.270,251.544 118.395 C 250.380 117.520,248.834 116.692,248.109 116.557 C 247.384 116.421,246.693 116.150,246.572 115.955 C 246.451 115.760,246.089 115.600,245.766 115.600 C 245.443 115.600,244.555 115.033,243.793 114.339 C 243.031 113.646,241.371 112.728,240.104 112.301 C 238.837 111.873,237.710 111.396,237.600 111.240 C 237.082 110.509,234.450 108.851,233.140 108.432 C 232.338 108.175,230.701 107.263,229.504 106.406 C 228.307 105.549,226.816 104.719,226.190 104.562 C 224.802 104.213,223.929 103.759,221.600 102.173 C 220.610 101.499,218.905 100.614,217.811 100.207 C 216.718 99.800,215.458 99.122,215.011 98.700 C 214.287 98.017,209.597 95.600,208.995 95.600 C 208.864 95.600,208.181 95.057,207.478 94.393 C 205.470 92.497,199.815 91.334,197.200 92.280 M222.452 172.208 C 224.920 172.578,226.908 173.106,227.549 173.561 C 228.906 174.524,233.136 175.600,235.561 175.600 C 237.776 175.600,241.057 176.600,242.200 177.625 C 243.137 178.464,246.186 179.586,247.554 179.594 C 249.299 179.605,251.645 180.531,252.419 181.515 C 252.940 182.178,254.072 182.720,255.973 183.220 C 259.264 184.083,259.881 184.386,261.170 185.763 C 261.703 186.333,262.366 186.800,262.643 186.800 C 263.739 186.800,267.989 188.935,268.197 189.590 C 268.318 189.973,269.179 190.602,270.109 190.986 C 272.584 192.011,274.121 192.860,274.800 193.577 C 275.589 194.410,278.674 196.400,279.177 196.400 C 279.394 196.400,279.787 196.805,280.049 197.300 C 280.560 198.262,281.474 199.009,283.400 200.039 C 284.060 200.392,284.835 201.158,285.122 201.740 C 285.409 202.323,285.891 202.800,286.193 202.800 C 286.496 202.800,287.341 203.409,288.072 204.154 C 289.728 205.841,290.159 206.272,291.846 207.928 C 293.330 209.384,293.447 210.007,292.700 212.441 C 292.035 214.606,283.625 223.141,280.200 225.127 C 276.984 226.992,266.399 237.559,265.207 240.095 C 264.121 242.407,255.336 251.352,252.749 252.781 C 247.849 255.488,236.408 267.300,236.402 269.659 C 236.400 270.280,233.903 272.799,233.286 272.801 C 233.129 272.802,232.640 273.346,232.200 274.011 C 231.760 274.676,230.841 275.607,230.157 276.079 C 229.474 276.551,228.574 277.456,228.157 278.089 C 227.741 278.723,226.410 279.850,225.200 280.593 C 223.990 281.336,222.640 282.272,222.200 282.672 C 221.759 283.072,220.769 283.874,220.000 284.452 C 219.230 285.031,214.891 289.216,210.358 293.752 L 202.115 302.000 200.158 301.999 L 198.200 301.998 190.000 293.759 C 182.162 285.882,177.568 281.916,174.298 280.203 C 173.471 279.770,172.698 279.108,172.579 278.732 C 172.459 278.357,171.695 277.493,170.881 276.813 C 170.066 276.133,169.220 275.373,169.000 275.125 C 168.780 274.877,167.632 273.706,166.449 272.523 C 165.266 271.341,163.812 269.381,163.218 268.168 C 162.116 265.922,155.990 259.313,151.834 255.887 C 150.715 254.965,149.710 254.117,149.600 254.002 C 149.490 253.887,148.700 253.434,147.843 252.996 C 146.987 252.558,144.377 250.293,142.043 247.962 C 139.710 245.632,137.602 243.652,137.360 243.562 C 137.118 243.473,136.326 242.320,135.601 241.000 C 133.078 236.408,123.987 227.060,119.961 224.918 C 118.632 224.211,116.685 222.770,115.633 221.716 C 108.124 214.192,108.411 214.546,107.200 211.320 C 106.664 209.893,108.199 207.061,109.730 206.654 C 110.131 206.547,110.548 206.131,110.656 205.730 C 110.764 205.328,111.494 204.550,112.278 204.000 C 113.063 203.450,114.428 202.235,115.314 201.300 C 116.199 200.365,117.241 199.600,117.630 199.600 C 118.019 199.600,118.937 198.905,119.669 198.056 C 120.401 197.207,121.596 196.207,122.324 195.833 C 123.052 195.460,124.312 194.566,125.124 193.848 C 125.936 193.129,127.665 192.116,128.967 191.597 C 130.268 191.078,131.708 190.221,132.167 189.693 C 132.937 188.806,136.715 186.800,137.614 186.800 C 137.829 186.800,138.378 186.371,138.834 185.846 C 139.741 184.804,141.384 184.031,144.860 183.013 C 146.104 182.648,147.454 181.977,147.860 181.520 C 148.877 180.379,150.865 179.600,152.764 179.600 C 153.638 179.600,154.450 179.443,154.568 179.252 C 154.686 179.060,155.331 178.794,155.999 178.660 C 156.668 178.526,157.611 178.049,158.094 177.598 C 159.189 176.578,162.397 175.600,164.648 175.600 C 167.113 175.600,171.505 174.494,172.779 173.552 C 175.378 171.631,212.011 170.640,222.452 172.208 " stroke="none" fill="#e1edf9" fill-rule="evenodd"></path><path id="path2" d="M197.431 54.349 C 197.313 54.541,196.177 55.197,194.908 55.806 C 193.638 56.415,192.045 57.324,191.367 57.826 C 189.584 59.146,187.564 60.227,186.290 60.544 C 185.680 60.696,184.517 61.446,183.707 62.210 C 182.896 62.975,182.026 63.600,181.772 63.600 C 181.109 63.600,177.410 65.650,176.282 66.643 C 175.756 67.107,174.476 67.810,173.438 68.207 C 172.401 68.603,170.798 69.527,169.876 70.260 C 168.954 70.993,167.896 71.594,167.524 71.596 C 167.152 71.598,166.736 71.780,166.600 72.000 C 166.464 72.220,166.086 72.400,165.759 72.400 C 165.433 72.400,164.228 73.098,163.083 73.951 C 161.937 74.803,160.070 75.841,158.933 76.257 C 157.796 76.672,156.226 77.594,155.443 78.306 C 154.661 79.018,153.757 79.600,153.434 79.600 C 153.111 79.600,152.745 79.766,152.619 79.969 C 152.494 80.172,151.892 80.448,151.282 80.582 C 150.672 80.716,149.504 81.421,148.686 82.149 C 147.867 82.877,146.455 83.718,145.547 84.018 C 144.639 84.317,143.187 85.076,142.321 85.703 C 140.172 87.260,138.092 88.400,137.402 88.400 C 137.086 88.400,136.237 88.918,135.514 89.552 C 134.282 90.632,131.615 92.040,129.800 92.568 C 129.360 92.697,128.337 93.431,127.527 94.201 C 126.716 94.970,125.782 95.600,125.450 95.600 C 125.119 95.600,124.750 95.757,124.632 95.948 C 124.514 96.140,123.868 96.406,123.198 96.540 C 122.528 96.674,121.515 97.249,120.946 97.817 C 120.019 98.744,116.149 100.799,115.326 100.801 C 115.147 100.801,114.370 101.346,113.600 102.012 C 112.069 103.335,110.175 104.400,109.352 104.400 C 109.064 104.400,108.237 104.918,107.514 105.552 C 106.282 106.632,103.615 108.040,101.800 108.568 C 101.360 108.697,100.337 109.431,99.527 110.201 C 98.716 110.970,97.782 111.600,97.450 111.600 C 97.119 111.600,96.750 111.757,96.632 111.948 C 96.514 112.140,95.869 112.406,95.200 112.540 C 94.531 112.674,93.495 113.236,92.899 113.789 C 91.920 114.697,88.003 116.799,87.289 116.800 C 87.130 116.801,86.460 117.268,85.800 117.839 C 84.518 118.948,82.431 120.103,80.800 120.606 C 80.250 120.776,79.530 121.216,79.200 121.586 C 78.512 122.356,77.162 123.126,73.900 124.611 C 72.635 125.187,71.600 125.804,71.600 125.981 C 71.600 126.330,67.980 128.189,66.487 128.607 C 65.985 128.747,65.085 129.295,64.487 129.825 C 63.889 130.354,63.215 130.940,62.988 131.127 C 62.762 131.314,61.682 131.801,60.588 132.210 C 59.495 132.620,57.941 133.509,57.135 134.186 C 56.329 134.863,54.797 135.731,53.729 136.115 C 52.662 136.499,51.273 137.255,50.644 137.796 C 50.014 138.337,48.435 139.279,47.135 139.890 C 44.175 141.279,44.217 141.129,44.208 150.458 C 44.199 160.110,44.689 160.973,48.655 158.279 C 49.725 157.553,51.500 156.624,52.600 156.215 C 54.733 155.421,56.136 154.627,57.354 153.523 C 57.769 153.147,58.662 152.718,59.338 152.570 C 61.268 152.146,63.693 150.987,64.957 149.886 C 66.291 148.722,67.568 148.400,70.850 148.400 C 73.190 148.400,73.200 148.395,73.200 147.210 C 73.200 146.057,74.671 144.800,76.020 144.800 C 76.893 144.800,79.403 143.437,80.207 142.527 C 80.651 142.025,82.147 141.170,83.531 140.627 C 84.915 140.084,86.664 139.100,87.417 138.438 C 88.171 137.777,89.555 137.017,90.493 136.749 C 91.432 136.481,93.280 135.517,94.600 134.606 C 95.920 133.696,97.768 132.729,98.707 132.458 C 99.645 132.186,100.995 131.477,101.707 130.882 C 103.215 129.620,104.605 128.800,105.234 128.800 C 106.044 128.800,108.587 127.454,109.400 126.595 C 109.840 126.130,111.010 125.427,112.000 125.032 C 114.645 123.977,115.908 123.256,116.965 122.199 C 117.484 121.680,118.694 121.056,119.654 120.811 C 121.971 120.221,123.016 119.668,124.561 118.213 C 125.269 117.546,126.662 116.784,127.657 116.519 C 128.652 116.255,130.329 115.326,131.383 114.455 C 132.438 113.583,133.953 112.748,134.750 112.598 C 135.548 112.449,137.316 111.531,138.680 110.557 C 140.044 109.584,141.683 108.683,142.322 108.556 C 142.961 108.428,144.095 107.793,144.842 107.146 C 146.304 105.878,147.714 105.144,150.127 104.395 C 150.967 104.134,152.194 103.393,152.853 102.748 C 153.512 102.104,155.040 101.267,156.248 100.888 C 157.515 100.491,159.275 99.497,160.411 98.537 C 161.645 97.494,162.954 96.777,163.921 96.613 C 164.891 96.449,166.266 95.694,167.629 94.576 C 168.820 93.599,170.116 92.800,170.510 92.800 C 171.735 92.800,173.979 91.681,175.690 90.216 C 176.592 89.444,177.919 88.701,178.639 88.566 C 179.360 88.431,180.638 87.753,181.480 87.060 C 183.495 85.402,184.417 84.908,186.086 84.595 C 186.847 84.452,188.084 83.801,188.835 83.148 C 190.101 82.046,193.127 80.400,193.885 80.400 C 194.066 80.400,195.086 79.680,196.151 78.800 C 198.699 76.694,201.733 76.492,203.513 78.309 C 204.561 79.378,205.827 80.075,208.800 81.219 C 209.570 81.515,210.803 82.352,211.540 83.079 C 212.277 83.805,213.218 84.400,213.632 84.400 C 214.924 84.400,217.757 85.673,218.757 86.703 C 219.284 87.245,220.364 87.947,221.157 88.262 C 222.970 88.983,224.482 89.709,225.000 90.108 C 225.220 90.277,225.940 90.862,226.600 91.408 C 227.260 91.953,228.396 92.512,229.125 92.649 C 229.855 92.786,231.582 93.673,232.965 94.620 C 234.347 95.566,236.146 96.466,236.963 96.619 C 237.779 96.773,239.051 97.461,239.790 98.149 C 241.546 99.785,242.347 100.247,244.370 100.792 C 245.291 101.040,246.749 101.879,247.610 102.657 C 248.614 103.564,250.104 104.349,251.769 104.848 C 253.434 105.348,254.646 105.987,255.154 106.632 C 255.589 107.185,257.078 108.082,258.463 108.625 C 259.848 109.167,261.662 110.159,262.495 110.828 C 263.327 111.497,264.592 112.232,265.304 112.462 C 267.563 113.189,268.960 113.934,270.389 115.172 C 271.152 115.834,272.322 116.491,272.989 116.631 C 273.992 116.844,276.416 118.310,277.200 119.179 C 277.521 119.536,279.280 120.307,280.899 120.803 C 281.723 121.055,283.135 121.877,284.036 122.630 C 284.938 123.383,286.642 124.281,287.823 124.624 C 289.005 124.967,290.776 125.913,291.760 126.724 C 292.743 127.536,294.503 128.538,295.669 128.950 C 296.836 129.363,298.475 130.287,299.313 131.004 C 300.150 131.721,301.400 132.420,302.090 132.558 C 303.500 132.840,306.800 134.660,306.800 135.156 C 306.800 135.333,307.565 135.797,308.500 136.187 C 311.384 137.389,311.860 137.648,312.846 138.552 C 314.011 139.621,316.447 140.800,317.488 140.800 C 317.911 140.800,318.963 141.395,319.828 142.123 C 321.380 143.429,323.250 144.432,325.200 145.004 C 326.708 145.447,327.200 145.986,327.200 147.193 C 327.200 148.284,327.209 148.288,330.651 148.503 C 332.549 148.621,334.214 148.881,334.351 149.080 C 334.989 150.009,337.624 151.532,339.800 152.230 C 341.120 152.654,342.450 153.237,342.756 153.528 C 343.920 154.632,345.433 155.428,347.905 156.239 C 349.313 156.700,350.798 157.363,351.206 157.712 C 353.287 159.494,353.971 159.750,354.756 159.040 C 355.925 157.982,356.563 153.147,356.265 147.608 C 355.958 141.890,355.633 141.057,353.345 140.116 C 352.387 139.722,351.602 139.265,351.601 139.100 C 351.601 138.935,351.373 138.800,351.096 138.800 C 350.819 138.800,350.130 138.372,349.567 137.849 C 349.003 137.327,348.105 136.768,347.571 136.608 C 346.213 136.201,343.059 134.370,342.708 133.786 C 342.547 133.518,341.377 132.885,340.108 132.379 C 338.839 131.872,337.189 130.932,336.441 130.290 C 335.694 129.647,334.254 128.778,333.241 128.358 C 330.620 127.272,329.077 126.360,328.500 125.559 C 328.224 125.176,327.448 124.742,326.776 124.595 C 326.103 124.447,324.387 123.545,322.963 122.590 C 321.539 121.635,319.749 120.647,318.985 120.395 C 318.221 120.143,316.675 119.245,315.550 118.399 C 314.424 117.553,312.485 116.481,311.241 116.015 C 309.996 115.550,308.443 114.674,307.789 114.070 C 307.135 113.465,305.790 112.657,304.800 112.274 C 303.810 111.890,302.280 111.045,301.400 110.395 C 300.520 109.745,299.350 109.008,298.800 108.757 C 295.676 107.332,293.600 106.191,293.600 105.899 C 293.600 105.716,292.475 105.057,291.100 104.434 C 289.725 103.811,287.937 102.767,287.126 102.115 C 286.315 101.462,284.785 100.600,283.726 100.200 C 281.583 99.389,280.102 98.524,279.200 97.558 C 278.870 97.204,277.790 96.614,276.800 96.246 C 275.810 95.878,274.280 95.045,273.400 94.395 C 272.520 93.745,271.350 93.008,270.800 92.757 C 267.598 91.296,265.604 90.188,265.449 89.783 C 265.352 89.530,264.221 88.897,262.936 88.378 C 261.651 87.859,260.171 87.039,259.646 86.555 C 258.638 85.628,258.303 85.443,254.800 83.885 C 253.590 83.347,252.069 82.441,251.421 81.872 C 250.772 81.304,249.237 80.463,248.010 80.004 C 246.783 79.545,245.243 78.674,244.589 78.070 C 243.935 77.465,242.534 76.643,241.475 76.242 C 240.416 75.842,238.743 74.899,237.758 74.147 C 236.773 73.396,235.210 72.484,234.284 72.122 C 233.358 71.759,231.626 70.773,230.435 69.931 C 229.244 69.089,228.035 68.400,227.747 68.400 C 226.994 68.400,224.372 66.886,223.178 65.762 C 222.616 65.233,222.020 64.800,221.852 64.800 C 221.017 64.800,216.897 62.618,216.177 61.795 C 215.724 61.277,214.824 60.724,214.177 60.566 C 213.529 60.407,212.025 59.630,210.832 58.839 C 206.119 55.710,202.173 54.000,199.668 54.000 C 198.556 54.000,197.550 54.157,197.431 54.349 M386.977 122.763 C 387.097 122.957,386.926 123.219,386.598 123.346 C 385.952 123.593,385.743 126.000,386.367 126.000 C 386.569 126.000,387.019 126.109,387.367 126.243 C 387.774 126.399,388.000 126.268,388.000 125.876 C 388.000 125.541,388.225 125.176,388.500 125.065 C 388.885 124.910,388.879 124.856,388.476 124.832 C 388.188 124.814,388.056 124.632,388.183 124.428 C 388.309 124.223,388.243 123.950,388.034 123.821 C 387.826 123.692,387.525 123.798,387.366 124.055 C 387.170 124.373,387.257 124.419,387.638 124.198 C 387.947 124.018,388.060 124.026,387.888 124.214 C 387.377 124.776,386.533 124.750,386.533 124.172 C 386.533 123.877,386.638 123.698,386.767 123.776 C 386.895 123.853,387.217 123.681,387.482 123.394 C 387.861 122.983,387.836 122.823,387.361 122.641 C 387.030 122.513,386.857 122.568,386.977 122.763 M358.900 196.676 C 359.285 196.776,359.915 196.776,360.300 196.676 C 360.685 196.575,360.370 196.493,359.600 196.493 C 358.830 196.493,358.515 196.575,358.900 196.676 M43.293 199.600 C 43.293 200.370,43.375 200.685,43.476 200.300 C 43.576 199.915,43.576 199.285,43.476 198.900 C 43.375 198.515,43.293 198.830,43.293 199.600 M54.800 370.264 C 54.800 370.421,57.099 371.600,57.404 371.600 C 57.538 371.600,57.519 371.392,57.362 371.138 C 57.173 370.833,57.254 370.786,57.599 370.999 C 58.314 371.441,56.980 372.427,56.061 372.135 C 55.545 371.971,55.519 372.010,55.944 372.313 C 56.244 372.527,56.874 372.603,57.344 372.482 C 58.131 372.279,58.153 372.324,57.619 373.031 C 57.114 373.700,57.114 373.732,57.618 373.281 C 59.071 371.980,58.383 369.964,56.519 370.061 C 55.574 370.109,54.800 370.201,54.800 370.264 " stroke="none" fill="#f47174" fill-rule="evenodd"></path><path id="path3" d="M188.800 173.237 C 181.958 173.546,178.784 174.150,174.067 176.039 C 173.554 176.245,171.484 176.598,169.467 176.824 C 163.748 177.464,162.135 177.808,161.403 178.540 C 160.354 179.589,158.653 180.352,156.742 180.632 C 153.501 181.105,151.006 181.996,149.635 183.168 C 148.884 183.810,147.624 184.452,146.835 184.596 C 144.177 185.077,141.866 186.032,141.030 186.993 C 140.574 187.518,139.141 188.341,137.848 188.822 C 136.554 189.303,134.844 190.281,134.048 190.995 C 133.251 191.709,132.150 192.419,131.600 192.572 C 129.914 193.041,128.709 193.746,127.427 195.013 C 126.752 195.681,125.165 196.721,123.900 197.326 C 122.635 197.930,121.600 198.612,121.600 198.841 C 121.600 199.487,120.650 200.285,119.118 200.925 C 118.348 201.246,117.325 202.062,116.844 202.738 C 116.363 203.413,115.257 204.367,114.385 204.857 C 113.513 205.346,112.800 205.957,112.800 206.212 C 112.800 206.835,111.418 208.400,110.869 208.400 C 107.570 208.400,109.638 213.129,115.099 218.073 C 115.264 218.223,116.210 219.097,117.200 220.014 C 119.439 222.090,121.758 223.600,122.706 223.600 C 124.109 223.600,129.428 219.902,129.740 218.710 C 129.841 218.322,130.256 217.899,130.662 217.771 C 132.141 217.303,133.837 216.237,135.490 214.736 C 136.420 213.892,137.912 212.909,138.806 212.551 C 139.734 212.180,140.664 211.450,140.974 210.850 C 141.381 210.065,142.130 209.618,143.945 209.080 C 145.616 208.585,146.777 207.932,147.671 206.983 C 148.991 205.584,150.127 205.077,153.000 204.604 C 154.030 204.434,155.099 203.861,156.000 202.997 C 157.196 201.849,157.925 201.555,161.000 200.985 C 164.854 200.270,165.705 199.951,167.076 198.703 C 168.066 197.801,170.047 197.360,175.762 196.768 C 179.756 196.354,181.805 195.907,186.200 194.490 C 191.124 192.902,212.238 193.025,215.200 194.659 C 217.068 195.690,219.737 196.290,224.800 196.815 C 230.514 197.409,231.612 197.695,233.699 199.130 C 234.908 199.962,236.336 200.503,238.049 200.780 C 241.938 201.406,243.057 201.826,244.340 203.138 C 245.217 204.035,246.157 204.469,248.017 204.835 C 250.219 205.268,252.266 206.443,253.600 208.038 C 253.710 208.169,254.803 208.589,256.029 208.971 C 258.679 209.796,258.817 209.883,259.718 211.300 C 260.103 211.905,260.642 212.400,260.915 212.400 C 261.682 212.400,263.813 213.671,265.277 215.002 C 267.087 216.646,268.633 217.600,269.488 217.600 C 269.906 217.600,270.435 218.121,270.758 218.851 C 271.063 219.539,271.849 220.394,272.506 220.751 C 273.163 221.108,274.173 221.780,274.750 222.245 C 277.082 224.123,279.711 223.625,282.306 220.814 C 283.024 220.036,283.808 219.220,284.049 219.000 C 285.980 217.236,287.600 215.549,287.603 215.300 C 287.604 215.135,288.136 214.698,288.785 214.329 C 289.887 213.702,291.200 211.423,291.200 210.138 C 291.200 209.827,290.581 209.208,289.825 208.762 C 289.069 208.315,288.083 207.329,287.635 206.569 C 287.186 205.809,286.352 205.010,285.780 204.792 C 284.565 204.331,283.915 203.736,283.235 202.465 C 282.965 201.961,281.990 201.224,281.069 200.830 C 280.149 200.435,279.162 199.677,278.877 199.144 C 278.592 198.612,277.424 197.750,276.280 197.228 C 275.136 196.706,273.349 195.517,272.308 194.585 C 271.242 193.632,269.831 192.782,269.077 192.641 C 268.279 192.491,267.265 191.855,266.568 191.068 C 265.738 190.131,264.653 189.523,262.844 188.981 C 261.134 188.468,259.896 187.797,259.093 186.946 C 258.434 186.247,257.424 185.582,256.848 185.467 C 253.231 184.746,251.728 184.185,250.627 183.143 C 249.952 182.504,248.950 181.881,248.400 181.758 C 247.850 181.635,246.950 181.385,246.400 181.201 C 245.850 181.017,244.549 180.765,243.509 180.642 C 241.555 180.410,240.429 179.918,239.028 178.685 C 238.582 178.291,237.852 177.897,237.408 177.808 C 235.811 177.490,231.358 176.835,229.200 176.600 C 227.990 176.469,226.460 176.188,225.800 175.974 C 225.140 175.761,223.235 175.146,221.567 174.606 C 216.836 173.076,204.134 172.545,188.800 173.237 M187.400 211.249 C 181.872 211.605,178.622 212.361,177.290 213.602 C 176.820 214.040,175.568 214.478,174.337 214.635 C 168.790 215.341,165.152 216.505,164.685 217.722 C 164.569 218.026,163.204 218.582,161.653 218.959 C 158.233 219.791,156.516 220.605,156.220 221.536 C 156.090 221.947,155.057 222.555,153.716 223.011 C 152.460 223.438,150.650 224.465,149.692 225.293 C 148.735 226.122,147.692 226.800,147.376 226.800 C 147.059 226.800,146.800 226.936,146.800 227.102 C 146.800 227.269,146.289 227.631,145.665 227.907 C 145.041 228.183,144.306 228.829,144.031 229.341 C 143.757 229.854,142.746 230.655,141.785 231.122 C 140.824 231.589,139.721 232.473,139.335 233.086 C 138.948 233.699,138.220 234.630,137.716 235.155 C 136.317 236.612,137.612 242.398,139.337 242.400 C 139.522 242.400,141.409 244.155,143.529 246.300 C 148.722 251.552,151.550 252.850,153.516 250.884 C 153.909 250.491,155.026 249.755,155.997 249.248 C 156.968 248.742,158.630 247.548,159.692 246.594 C 160.753 245.640,162.144 244.744,162.783 244.604 C 163.425 244.463,164.397 243.755,164.956 243.022 C 165.518 242.285,166.464 241.598,167.084 241.477 C 170.698 240.768,172.107 240.231,173.190 239.148 C 174.511 237.827,177.029 237.049,181.318 236.636 C 183.083 236.466,184.977 235.936,186.718 235.125 C 191.978 232.674,206.974 232.675,213.200 235.126 C 214.850 235.775,217.100 236.420,218.200 236.559 C 222.663 237.124,226.390 238.137,226.615 238.849 C 226.851 239.590,228.861 240.465,232.274 241.312 C 233.679 241.661,234.632 242.187,235.226 242.943 C 235.709 243.556,237.026 244.484,238.152 245.004 C 239.278 245.524,240.855 246.591,241.654 247.376 C 242.454 248.161,243.764 249.076,244.564 249.411 C 245.364 249.745,246.374 250.374,246.809 250.809 C 248.395 252.395,252.518 251.299,254.439 248.781 C 254.968 248.088,255.649 247.314,255.953 247.060 C 257.317 245.924,259.600 243.571,259.603 243.300 C 259.604 243.135,260.133 242.700,260.778 242.333 C 263.311 240.892,264.244 236.923,262.445 235.242 C 261.810 234.649,261.223 233.814,261.141 233.387 C 261.058 232.960,260.386 232.248,259.645 231.805 C 258.905 231.362,257.575 230.235,256.688 229.300 C 255.802 228.365,254.873 227.600,254.623 227.600 C 253.787 227.600,251.194 226.089,249.959 224.881 C 249.286 224.224,247.912 223.455,246.905 223.173 C 245.898 222.891,244.697 222.225,244.237 221.692 C 243.118 220.398,241.936 219.834,238.609 219.009 C 236.870 218.578,235.610 218.021,235.268 217.533 C 234.421 216.323,230.959 215.235,226.000 214.621 C 224.773 214.469,223.446 214.028,223.000 213.624 C 220.351 211.228,204.344 210.160,187.400 211.249 M191.222 251.254 C 188.923 251.443,186.862 251.778,186.642 251.998 C 186.421 252.219,185.930 252.400,185.551 252.400 C 185.172 252.400,184.347 252.833,183.718 253.362 C 183.065 253.911,181.761 254.447,180.682 254.609 C 179.641 254.765,178.692 255.052,178.571 255.246 C 178.451 255.441,177.986 255.600,177.538 255.600 C 176.490 255.600,174.400 257.083,174.400 257.827 C 174.400 258.142,174.030 258.400,173.578 258.400 C 170.293 258.400,163.186 265.355,165.200 266.600 C 165.420 266.736,165.600 267.157,165.600 267.535 C 165.600 268.085,169.074 272.199,171.228 274.200 C 171.464 274.420,172.052 274.960,172.533 275.400 C 173.014 275.840,173.774 276.650,174.222 277.200 C 176.468 279.958,181.381 280.936,183.210 278.990 C 184.305 277.824,186.195 276.800,187.253 276.800 C 188.300 276.800,191.141 275.623,192.954 274.438 C 194.438 273.468,194.761 273.424,200.154 273.448 L 205.800 273.474 208.200 274.936 C 209.520 275.741,211.230 276.505,212.000 276.634 C 214.025 276.976,215.682 277.800,216.702 278.974 C 219.088 281.717,223.065 280.191,228.850 274.312 C 230.968 272.161,232.882 270.400,233.105 270.400 C 233.327 270.400,233.808 269.725,234.173 268.900 C 234.539 268.075,234.981 267.136,235.155 266.813 C 235.674 265.849,234.745 263.613,233.527 262.893 C 232.907 262.527,232.400 262.029,232.400 261.786 C 232.400 261.000,230.506 259.670,228.327 258.926 C 227.157 258.527,226.133 258.045,226.052 257.855 C 225.440 256.433,222.532 255.058,219.149 254.593 C 217.929 254.425,216.997 254.045,216.673 253.583 C 215.081 251.310,203.483 250.248,191.222 251.254 " stroke="none" fill="#75bdfc" fill-rule="evenodd"></path><path id="path4" d="M196.400 39.349 C 194.353 40.028,192.529 41.088,192.277 41.744 C 192.156 42.059,191.099 42.627,189.929 43.006 C 188.758 43.385,187.162 44.304,186.383 45.048 C 185.604 45.791,184.821 46.400,184.644 46.400 C 184.279 46.400,181.907 47.402,180.400 48.193 C 179.850 48.481,179.228 49.083,179.018 49.530 C 178.787 50.019,178.072 50.447,177.218 50.607 C 175.005 51.021,171.711 52.731,171.489 53.581 C 171.360 54.076,170.680 54.509,169.555 54.812 C 167.341 55.408,164.858 56.818,164.595 57.628 C 164.483 57.974,163.359 58.576,162.096 58.967 C 160.769 59.378,159.209 60.232,158.400 60.991 C 157.630 61.714,156.010 62.641,154.800 63.053 C 152.311 63.899,151.061 64.695,150.701 65.662 C 150.565 66.027,149.857 66.452,149.127 66.608 C 146.894 67.084,143.702 68.767,143.489 69.581 C 143.360 70.076,142.680 70.509,141.555 70.812 C 139.344 71.407,136.858 72.818,136.596 73.625 C 136.484 73.973,135.331 74.569,134.002 74.967 C 132.473 75.425,131.140 76.156,130.305 76.994 C 129.555 77.747,128.020 78.636,126.696 79.084 C 124.466 79.838,122.400 81.218,122.400 81.953 C 122.400 82.150,121.771 82.429,121.003 82.573 C 119.013 82.946,115.663 84.771,115.390 85.631 C 115.263 86.031,114.763 86.465,114.280 86.594 C 111.199 87.415,110.109 87.918,108.992 89.034 C 108.302 89.725,106.781 90.608,105.614 90.995 C 104.446 91.383,102.841 92.276,102.046 92.980 C 101.250 93.684,99.448 94.684,98.041 95.201 C 96.234 95.865,95.295 96.466,94.849 97.244 C 94.425 97.982,93.762 98.431,92.837 98.604 C 90.637 99.017,88.203 100.328,87.253 101.613 C 86.771 102.266,86.043 102.800,85.637 102.800 C 84.377 102.800,81.903 104.019,80.827 105.171 C 80.262 105.775,78.810 106.590,77.600 106.982 C 76.390 107.375,74.770 108.272,74.000 108.977 C 73.230 109.682,71.294 110.757,69.699 111.365 C 67.425 112.232,66.745 112.680,66.555 113.436 C 66.422 113.966,66.018 114.399,65.657 114.398 C 64.123 114.393,60.933 115.910,59.552 117.300 C 58.733 118.125,57.683 118.800,57.218 118.800 C 56.024 118.800,52.691 120.580,52.125 121.521 C 51.863 121.955,50.661 122.621,49.453 123.001 C 48.245 123.381,46.620 124.274,45.844 124.986 C 45.067 125.697,43.569 126.591,42.516 126.971 C 39.445 128.079,38.793 128.490,38.546 129.473 C 38.400 130.054,38.016 130.400,37.517 130.400 C 36.348 130.400,34.101 131.561,32.852 132.810 C 30.985 134.677,30.800 136.589,30.800 154.053 C 30.800 175.282,30.957 175.947,36.181 176.797 C 39.936 177.408,43.793 176.664,45.205 175.056 C 45.864 174.305,46.898 173.595,47.502 173.480 C 51.323 172.747,52.288 172.249,53.623 170.323 C 53.746 170.146,55.276 169.635,57.023 169.188 C 59.487 168.558,60.434 168.105,61.245 167.169 L 62.289 165.963 62.540 167.481 C 62.678 168.317,62.794 208.960,62.798 257.800 C 62.804 346.019,62.835 348.194,64.105 350.734 C 65.333 353.191,53.917 352.990,198.590 353.104 C 332.660 353.209,333.650 353.199,335.313 351.701 C 337.046 350.141,336.992 352.832,337.200 258.000 C 337.310 207.950,337.547 166.773,337.726 166.496 C 337.968 166.121,338.344 166.282,339.182 167.120 C 339.898 167.836,341.384 168.572,343.246 169.132 C 345.173 169.711,346.459 170.357,346.991 171.012 C 347.773 171.978,351.467 173.600,352.881 173.600 C 353.262 173.600,354.197 174.223,354.959 174.985 C 356.382 176.408,356.865 176.596,360.056 176.960 C 365.461 177.578,368.207 175.979,368.852 171.838 C 369.463 167.913,369.112 135.749,368.441 134.082 C 367.906 132.756,364.546 130.412,363.168 130.404 C 362.820 130.402,362.305 129.970,362.024 129.444 C 361.492 128.451,360.893 128.081,358.200 127.080 C 357.320 126.753,355.943 125.865,355.139 125.106 C 354.178 124.200,352.850 123.495,351.261 123.049 C 349.676 122.604,348.766 122.122,348.615 121.647 C 348.354 120.826,344.496 118.800,343.194 118.800 C 342.717 118.800,341.655 118.090,340.800 117.200 C 339.954 116.320,338.989 115.600,338.655 115.600 C 338.321 115.600,337.949 115.440,337.828 115.245 C 337.707 115.050,336.971 114.771,336.191 114.625 C 335.367 114.470,334.234 113.809,333.486 113.047 C 332.779 112.325,331.265 111.420,330.122 111.035 C 328.978 110.650,327.429 109.756,326.679 109.048 C 325.866 108.282,324.352 107.470,322.935 107.041 C 321.423 106.583,320.418 106.028,320.178 105.519 C 319.842 104.806,319.162 104.340,316.705 103.139 C 316.323 102.953,315.634 102.800,315.174 102.800 C 314.714 102.800,313.676 102.114,312.869 101.276 C 311.823 100.191,310.675 99.529,308.880 98.976 C 307.079 98.421,306.091 97.850,305.416 96.974 C 304.746 96.104,303.769 95.536,302.044 95.013 C 300.572 94.568,299.530 94.011,299.400 93.600 C 299.161 92.848,295.721 91.046,293.700 90.614 C 292.985 90.461,292.400 90.093,292.400 89.795 C 292.400 88.758,289.541 87.250,286.400 86.631 C 285.850 86.522,285.220 86.032,285.000 85.540 C 284.532 84.495,281.655 82.955,279.475 82.582 C 278.422 82.402,277.848 82.053,277.620 81.452 C 277.287 80.577,276.841 80.297,273.668 78.973 C 272.716 78.575,271.322 77.686,270.569 76.998 C 269.817 76.309,268.305 75.501,267.208 75.202 C 265.990 74.870,264.609 74.096,263.661 73.211 C 262.284 71.928,261.176 71.403,258.161 70.606 C 257.699 70.484,257.138 69.981,256.913 69.488 C 256.688 68.995,255.986 68.347,255.352 68.049 C 254.718 67.751,253.924 67.371,253.587 67.204 C 253.250 67.038,252.350 66.768,251.587 66.604 C 250.738 66.422,249.762 65.782,249.071 64.953 C 248.450 64.209,247.691 63.600,247.384 63.600 C 246.434 63.600,243.869 62.252,242.674 61.126 C 242.048 60.535,240.515 59.704,239.268 59.279 C 238.005 58.849,236.352 57.890,235.538 57.116 C 234.644 56.266,233.322 55.529,232.138 55.220 C 231.072 54.942,229.912 54.640,229.561 54.550 C 229.209 54.459,228.730 53.966,228.497 53.453 C 228.029 52.427,225.359 51.016,223.071 50.587 C 222.262 50.435,221.600 50.089,221.600 49.817 C 221.600 48.994,220.310 48.090,217.793 47.150 C 216.477 46.659,214.797 45.671,214.060 44.955 C 213.235 44.154,211.952 43.457,210.722 43.141 C 209.623 42.860,208.426 42.262,208.062 41.813 C 205.989 39.255,200.302 38.053,196.400 39.349 M203.257 41.230 C 203.699 41.467,204.423 42.023,204.866 42.466 C 205.753 43.353,208.655 44.777,209.604 44.791 C 209.937 44.796,210.927 45.430,211.804 46.201 C 212.682 46.971,214.441 47.987,215.712 48.459 C 216.984 48.930,218.604 49.844,219.312 50.488 C 220.021 51.133,221.230 51.925,222.000 52.248 C 224.090 53.125,225.376 53.769,225.600 54.049 C 226.135 54.718,228.992 56.400,229.593 56.400 C 229.968 56.400,231.545 57.292,233.097 58.382 C 234.650 59.473,236.433 60.484,237.060 60.629 C 237.687 60.775,238.830 61.373,239.600 61.959 C 241.753 63.596,242.867 64.235,244.504 64.772 C 245.331 65.043,246.231 65.481,246.504 65.747 C 247.606 66.818,249.905 68.400,250.360 68.400 C 251.234 68.400,254.204 69.921,254.959 70.755 C 255.365 71.204,256.531 71.887,257.549 72.273 C 258.567 72.658,259.580 73.117,259.800 73.292 C 262.610 75.529,263.951 76.377,264.987 76.571 C 265.669 76.699,267.180 77.520,268.344 78.395 C 269.509 79.270,271.157 80.195,272.006 80.449 C 272.855 80.703,274.374 81.593,275.383 82.426 C 276.391 83.259,278.113 84.239,279.209 84.603 C 280.305 84.967,281.922 85.867,282.802 86.602 C 283.682 87.337,285.077 88.159,285.901 88.428 C 286.726 88.697,288.480 89.680,289.800 90.612 C 291.120 91.544,292.752 92.425,293.426 92.569 C 294.101 92.713,295.499 93.531,296.534 94.386 C 297.569 95.241,299.334 96.246,300.456 96.619 C 301.578 96.991,302.792 97.592,303.154 97.954 C 304.209 99.009,306.283 100.400,306.801 100.400 C 307.617 100.400,310.160 101.741,311.000 102.614 C 311.727 103.370,314.336 104.800,314.989 104.800 C 315.136 104.800,316.369 105.589,317.728 106.553 C 319.088 107.518,320.752 108.425,321.426 108.569 C 322.101 108.713,323.526 109.553,324.593 110.435 C 325.661 111.317,327.327 112.251,328.297 112.510 C 329.266 112.770,330.631 113.503,331.330 114.141 C 332.028 114.778,333.410 115.649,334.400 116.076 C 337.525 117.423,338.173 117.779,338.997 118.606 C 339.841 119.453,341.188 120.178,342.708 120.604 C 343.207 120.744,344.462 121.504,345.495 122.293 C 346.529 123.082,348.374 124.120,349.596 124.598 C 350.818 125.077,352.338 125.952,352.975 126.541 C 353.611 127.131,355.020 127.926,356.105 128.307 C 357.190 128.688,358.736 129.559,359.539 130.243 C 360.343 130.926,361.720 131.867,362.600 132.333 C 364.869 133.533,366.262 134.894,366.979 136.612 C 367.931 138.891,367.905 169.840,366.949 171.720 C 365.676 174.225,362.451 176.083,360.858 175.231 C 360.415 174.994,359.695 174.800,359.257 174.800 C 358.819 174.800,357.939 174.361,357.301 173.824 C 356.663 173.287,354.715 172.283,352.971 171.593 C 351.227 170.902,349.440 170.010,349.000 169.611 C 348.560 169.211,346.834 168.320,345.164 167.631 C 343.494 166.942,341.730 166.008,341.245 165.556 C 338.959 163.426,336.792 163.924,336.004 166.760 C 335.743 167.700,335.601 199.185,335.596 257.400 L 335.587 346.600 334.685 348.192 C 334.180 349.084,333.084 350.180,332.192 350.685 L 330.600 351.587 200.161 351.593 C 57.044 351.601,68.356 351.784,66.278 349.421 C 64.293 347.163,64.400 352.489,64.400 256.067 L 64.400 166.109 63.375 165.084 C 62.180 163.889,60.702 164.147,59.107 165.830 C 58.608 166.356,57.921 166.789,57.580 166.793 C 57.239 166.797,56.789 166.953,56.580 167.141 C 56.371 167.329,55.324 167.718,54.253 168.006 C 53.182 168.294,51.870 168.966,51.338 169.499 C 50.805 170.031,48.904 171.002,47.112 171.656 C 45.321 172.309,43.573 173.169,43.228 173.566 C 40.960 176.172,35.962 175.669,33.762 172.613 L 32.600 171.000 32.600 154.400 C 32.600 139.181,32.660 137.674,33.327 136.283 C 34.016 134.845,36.809 132.400,37.763 132.400 C 38.006 132.400,39.193 131.590,40.400 130.600 C 41.607 129.610,42.830 128.800,43.119 128.800 C 44.087 128.800,46.988 127.262,48.287 126.060 C 48.994 125.405,50.162 124.740,50.881 124.582 C 52.291 124.273,53.238 123.733,55.931 121.704 C 56.882 120.987,57.890 120.400,58.169 120.400 C 58.872 120.400,60.847 119.381,61.817 118.518 C 62.904 117.551,64.997 116.400,65.669 116.400 C 65.969 116.400,67.083 115.682,68.145 114.805 C 69.207 113.927,70.824 112.997,71.738 112.738 C 73.304 112.293,75.246 111.100,76.954 109.532 C 77.369 109.151,78.236 108.724,78.881 108.582 C 80.413 108.246,81.575 107.628,83.376 106.191 C 84.185 105.546,85.691 104.703,86.723 104.317 C 87.756 103.930,89.050 103.206,89.600 102.707 C 90.150 102.208,91.320 101.458,92.200 101.039 C 95.475 99.482,96.223 99.043,97.154 98.134 C 97.678 97.621,98.846 97.003,99.750 96.760 C 101.462 96.299,103.148 95.280,104.729 93.750 C 105.240 93.255,106.187 92.735,106.833 92.593 C 108.474 92.232,109.965 91.425,111.600 90.011 C 112.370 89.346,113.602 88.688,114.337 88.549 C 115.072 88.411,116.501 87.665,117.513 86.893 C 118.526 86.120,120.347 85.049,121.560 84.512 C 122.774 83.975,124.343 83.030,125.047 82.412 C 125.751 81.794,127.240 80.985,128.356 80.615 C 129.472 80.244,131.231 79.241,132.266 78.386 C 133.301 77.531,134.694 76.711,135.361 76.565 C 136.892 76.228,137.795 75.725,139.741 74.121 C 140.595 73.418,141.820 72.727,142.462 72.586 C 143.105 72.445,144.448 71.706,145.447 70.943 C 146.446 70.181,147.924 69.272,148.732 68.923 C 151.766 67.613,152.185 67.375,153.214 66.377 C 153.794 65.815,155.334 64.964,156.635 64.486 C 157.936 64.009,159.708 62.984,160.573 62.209 C 161.438 61.434,162.400 60.800,162.712 60.800 C 163.677 60.800,166.126 59.508,167.747 58.144 C 168.598 57.429,169.820 56.727,170.462 56.586 C 171.105 56.445,172.420 55.727,173.384 54.991 C 175.409 53.446,176.946 52.621,178.493 52.250 C 179.094 52.106,180.193 51.455,180.935 50.803 C 181.678 50.151,183.436 49.095,184.842 48.456 C 186.249 47.817,188.017 46.733,188.772 46.047 C 189.527 45.361,190.399 44.800,190.712 44.800 C 191.348 44.800,194.091 43.589,194.400 43.172 C 195.879 41.174,201.038 40.043,203.257 41.230 M91.440 71.535 C 91.313 71.741,91.461 72.118,91.769 72.374 C 92.100 72.649,92.423 72.686,92.560 72.465 C 92.687 72.259,92.539 71.882,92.231 71.626 C 91.900 71.351,91.577 71.314,91.440 71.535 M196.151 78.800 C 195.086 79.680,194.066 80.400,193.885 80.400 C 193.127 80.400,190.101 82.046,188.835 83.148 C 188.084 83.801,186.847 84.452,186.086 84.595 C 184.417 84.908,183.495 85.402,181.480 87.060 C 180.638 87.753,179.360 88.431,178.639 88.566 C 177.919 88.701,176.592 89.444,175.690 90.216 C 173.979 91.681,171.735 92.800,170.510 92.800 C 170.116 92.800,168.820 93.599,167.629 94.576 C 166.266 95.694,164.891 96.449,163.921 96.613 C 162.954 96.777,161.645 97.494,160.411 98.537 C 159.275 99.497,157.515 100.491,156.248 100.888 C 155.040 101.267,153.512 102.104,152.853 102.748 C 152.194 103.393,150.967 104.134,150.127 104.395 C 147.714 105.144,146.304 105.878,144.842 107.146 C 144.095 107.793,142.961 108.428,142.322 108.556 C 141.683 108.683,140.044 109.584,138.680 110.557 C 137.316 111.531,135.548 112.449,134.750 112.598 C 133.953 112.748,132.438 113.583,131.383 114.455 C 130.329 115.326,128.652 116.255,127.657 116.519 C 126.662 116.784,125.269 117.546,124.561 118.213 C 123.016 119.668,121.971 120.221,119.654 120.811 C 118.694 121.056,117.484 121.680,116.965 122.199 C 115.908 123.256,114.645 123.977,112.000 125.032 C 111.010 125.427,109.840 126.130,109.400 126.595 C 108.587 127.454,106.044 128.800,105.234 128.800 C 104.605 128.800,103.215 129.620,101.707 130.882 C 100.995 131.477,99.645 132.186,98.707 132.458 C 97.768 132.729,95.920 133.696,94.600 134.606 C 93.280 135.517,91.432 136.481,90.493 136.749 C 89.555 137.017,88.171 137.777,87.417 138.438 C 86.664 139.100,84.915 140.084,83.531 140.627 C 82.147 141.170,80.651 142.025,80.207 142.527 C 79.403 143.437,76.893 144.800,76.020 144.800 C 73.347 144.800,72.405 147.464,74.344 149.540 C 76.268 151.600,76.614 152.904,76.072 156.064 C 75.719 158.121,75.600 181.421,75.600 248.446 L 75.600 338.077 76.427 339.238 L 77.254 340.400 199.958 340.400 L 322.661 340.400 323.530 339.474 L 324.400 338.548 324.400 247.300 C 324.400 190.217,324.257 155.675,324.017 155.046 C 323.494 153.670,324.493 150.844,326.018 149.383 C 327.923 147.557,327.577 145.702,325.200 145.004 C 323.250 144.432,321.380 143.429,319.828 142.123 C 318.963 141.395,317.911 140.800,317.488 140.800 C 316.447 140.800,314.011 139.621,312.846 138.552 C 311.860 137.648,311.384 137.389,308.500 136.187 C 307.565 135.797,306.800 135.333,306.800 135.156 C 306.800 134.660,303.500 132.840,302.090 132.558 C 301.400 132.420,300.150 131.721,299.313 131.004 C 298.475 130.287,296.836 129.363,295.669 128.950 C 294.503 128.538,292.743 127.536,291.760 126.724 C 290.776 125.913,289.005 124.967,287.823 124.624 C 286.642 124.281,284.938 123.383,284.036 122.630 C 283.135 121.877,281.723 121.055,280.899 120.803 C 279.280 120.307,277.521 119.536,277.200 119.179 C 276.416 118.310,273.992 116.844,272.989 116.631 C 272.322 116.491,271.152 115.834,270.389 115.172 C 268.960 113.934,267.563 113.189,265.304 112.462 C 264.592 112.232,263.327 111.497,262.495 110.828 C 261.662 110.159,259.848 109.167,258.463 108.625 C 257.078 108.082,255.589 107.185,255.154 106.632 C 254.646 105.987,253.434 105.348,251.769 104.848 C 250.104 104.349,248.614 103.564,247.610 102.657 C 246.749 101.879,245.291 101.040,244.370 100.792 C 242.347 100.247,241.546 99.785,239.790 98.149 C 239.051 97.461,237.779 96.773,236.963 96.619 C 236.146 96.466,234.347 95.566,232.965 94.620 C 231.582 93.673,229.855 92.786,229.125 92.649 C 228.396 92.512,227.260 91.953,226.600 91.408 C 225.940 90.862,225.220 90.277,225.000 90.108 C 224.482 89.709,222.970 88.983,221.157 88.262 C 220.364 87.947,219.284 87.245,218.757 86.703 C 217.757 85.673,214.924 84.400,213.632 84.400 C 213.218 84.400,212.277 83.805,211.540 83.079 C 210.803 82.352,209.570 81.515,208.800 81.219 C 205.827 80.075,204.561 79.378,203.513 78.309 C 201.733 76.492,198.699 76.694,196.151 78.800 M64.400 87.313 C 64.070 87.581,63.537 88.160,63.215 88.600 C 62.894 89.040,63.209 88.871,63.915 88.225 C 65.067 87.172,65.400 86.775,65.100 86.813 C 65.045 86.820,64.730 87.045,64.400 87.313 M204.227 92.593 C 205.312 92.919,206.775 93.729,207.478 94.393 C 208.181 95.057,208.864 95.600,208.995 95.600 C 209.597 95.600,214.287 98.017,215.011 98.700 C 215.458 99.122,216.718 99.800,217.811 100.207 C 218.905 100.614,220.610 101.499,221.600 102.173 C 223.929 103.759,224.802 104.213,226.190 104.562 C 226.816 104.719,228.307 105.549,229.504 106.406 C 230.701 107.263,232.338 108.175,233.140 108.432 C 234.450 108.851,237.082 110.509,237.600 111.240 C 237.710 111.396,238.837 111.873,240.104 112.301 C 241.371 112.728,243.031 113.646,243.793 114.339 C 244.555 115.033,245.443 115.600,245.766 115.600 C 246.089 115.600,246.451 115.760,246.572 115.955 C 246.693 116.150,247.384 116.421,248.109 116.557 C 248.834 116.692,250.380 117.520,251.544 118.395 C 252.709 119.270,254.413 120.197,255.331 120.455 C 256.249 120.712,257.630 121.396,258.400 121.973 C 260.606 123.628,261.709 124.251,262.996 124.568 C 263.654 124.731,264.284 124.993,264.396 125.151 C 265.069 126.100,268.554 128.151,270.190 128.562 C 270.816 128.719,272.320 129.558,273.534 130.427 C 274.747 131.296,276.442 132.196,277.301 132.427 C 278.159 132.658,280.004 133.629,281.400 134.585 C 282.796 135.541,284.456 136.437,285.090 136.576 C 285.724 136.715,286.923 137.417,287.756 138.137 C 288.588 138.856,290.604 139.941,292.235 140.548 C 293.866 141.154,295.200 141.811,295.200 142.008 C 295.200 142.503,298.340 144.286,299.800 144.619 C 300.460 144.770,301.630 145.373,302.400 145.959 C 304.566 147.606,305.696 148.248,306.996 148.568 C 307.654 148.731,308.284 148.985,308.396 149.134 C 309.184 150.180,312.378 152.010,314.696 152.745 C 315.408 152.971,316.694 153.720,317.553 154.410 C 318.411 155.100,319.808 155.903,320.657 156.195 C 322.908 156.968,322.811 152.523,322.701 249.729 L 322.600 338.600 200.200 338.600 L 77.800 338.600 77.699 248.275 C 77.596 155.927,77.589 156.406,79.114 156.395 C 79.877 156.390,82.558 154.941,83.844 153.840 C 84.302 153.448,85.685 152.718,86.918 152.217 C 88.150 151.716,89.686 150.862,90.332 150.319 C 90.977 149.776,92.562 148.912,93.853 148.399 C 95.144 147.886,97.010 146.894,98.000 146.194 C 98.990 145.494,100.737 144.591,101.883 144.188 C 103.028 143.785,104.378 143.082,104.883 142.627 C 105.387 142.172,106.250 141.594,106.800 141.342 C 111.324 139.270,112.485 138.643,112.664 138.178 C 112.777 137.884,114.088 137.178,115.578 136.608 C 117.068 136.039,118.988 134.978,119.844 134.250 C 120.700 133.522,122.392 132.617,123.604 132.239 C 124.816 131.860,126.487 130.964,127.316 130.247 C 128.153 129.525,129.879 128.628,131.191 128.235 C 132.493 127.845,133.612 127.400,133.679 127.247 C 133.945 126.633,136.685 124.872,138.060 124.432 C 138.862 124.175,140.482 123.282,141.660 122.447 C 142.837 121.612,144.737 120.598,145.883 120.192 C 147.028 119.786,148.378 119.082,148.883 118.627 C 149.839 117.765,150.586 117.364,153.614 116.086 C 154.612 115.665,155.925 114.861,156.532 114.298 C 157.139 113.736,158.768 112.875,160.152 112.387 C 161.536 111.898,163.364 110.898,164.213 110.164 C 165.063 109.430,166.264 108.718,166.883 108.582 C 168.453 108.237,169.975 107.416,171.522 106.080 C 172.249 105.452,173.905 104.620,175.201 104.232 C 176.497 103.844,177.612 103.400,177.679 103.247 C 177.982 102.547,180.754 100.833,182.209 100.446 C 183.094 100.211,184.974 99.204,186.387 98.209 C 187.800 97.214,189.163 96.400,189.417 96.400 C 190.094 96.400,192.092 95.345,193.005 94.505 C 193.718 93.850,195.555 92.875,197.200 92.280 C 198.410 91.843,202.308 92.016,204.227 92.593 M385.429 122.629 C 384.849 123.208,384.583 125.046,384.795 127.000 C 384.842 127.440,385.239 128.520,385.675 129.400 C 388.729 135.553,388.314 178.800,385.201 178.800 C 384.998 178.800,384.627 179.565,384.379 180.500 C 383.789 182.717,382.620 184.666,380.838 186.400 C 380.047 187.170,378.950 188.359,378.400 189.041 C 377.390 190.295,375.981 191.099,372.927 192.163 C 372.007 192.483,370.905 193.095,370.477 193.523 C 369.492 194.508,365.620 195.200,361.088 195.200 C 358.027 195.200,357.528 195.305,356.630 196.138 L 355.618 197.075 355.504 273.438 C 355.381 356.465,355.484 352.758,353.253 354.836 C 352.784 355.273,352.400 355.900,352.400 356.229 C 352.400 359.609,343.685 368.400,340.333 368.400 C 340.064 368.400,339.384 368.831,338.822 369.358 C 336.573 371.466,343.483 371.356,202.800 371.509 C 62.394 371.662,65.364 371.700,61.400 369.690 C 57.949 367.940,52.660 368.827,54.698 370.813 C 55.084 371.190,55.546 371.413,55.724 371.310 C 55.902 371.207,55.750 370.905,55.385 370.638 C 54.825 370.229,54.998 370.139,56.497 370.062 C 58.229 369.972,58.271 369.999,58.203 371.142 L 58.134 372.314 68.167 372.583 C 73.685 372.732,136.250 372.794,207.200 372.721 C 345.560 372.578,338.114 372.696,340.400 370.615 C 340.950 370.115,342.300 369.370,343.400 368.960 C 346.406 367.841,351.182 363.112,352.997 359.457 C 353.778 357.886,354.787 356.020,355.239 355.312 C 356.689 353.037,356.778 348.271,356.789 272.162 C 356.801 187.594,356.433 196.030,360.093 196.516 C 364.483 197.101,369.863 196.199,372.481 194.441 C 373.825 193.539,375.176 192.800,375.482 192.800 C 377.610 192.800,382.900 187.579,385.006 183.400 C 385.782 181.860,386.790 180.015,387.246 179.299 C 388.716 176.992,389.311 156.073,388.536 133.918 L 388.275 126.436 387.108 126.180 C 385.978 125.932,385.947 125.861,386.125 123.962 C 386.330 121.775,386.314 121.744,385.429 122.629 M177.238 172.216 C 175.170 172.539,173.454 173.053,172.779 173.552 C 171.505 174.494,167.113 175.600,164.648 175.600 C 162.397 175.600,159.189 176.578,158.094 177.598 C 157.611 178.049,156.668 178.526,155.999 178.660 C 155.331 178.794,154.686 179.060,154.568 179.252 C 154.450 179.443,153.638 179.600,152.764 179.600 C 150.865 179.600,148.877 180.379,147.860 181.520 C 147.454 181.977,146.104 182.648,144.860 183.013 C 141.384 184.031,139.741 184.804,138.834 185.846 C 138.378 186.371,137.829 186.800,137.614 186.800 C 136.715 186.800,132.937 188.806,132.167 189.693 C 131.708 190.221,130.268 191.078,128.967 191.597 C 127.665 192.116,125.936 193.129,125.124 193.848 C 124.312 194.566,123.052 195.460,122.324 195.833 C 121.596 196.207,120.401 197.207,119.669 198.056 C 118.937 198.905,118.019 199.600,117.630 199.600 C 117.241 199.600,116.199 200.365,115.314 201.300 C 114.428 202.235,113.063 203.450,112.278 204.000 C 111.494 204.550,110.764 205.328,110.656 205.730 C 110.548 206.131,110.131 206.547,109.730 206.654 C 106.039 207.637,106.456 212.416,110.600 216.637 C 112.777 218.854,112.831 218.908,115.633 221.716 C 116.685 222.770,118.632 224.211,119.961 224.918 C 123.987 227.060,133.078 236.408,135.601 241.000 C 136.326 242.320,137.118 243.473,137.360 243.562 C 137.602 243.652,139.710 245.632,142.043 247.962 C 144.377 250.293,146.987 252.558,147.843 252.996 C 148.700 253.434,149.490 253.887,149.600 254.002 C 149.710 254.117,150.715 254.965,151.834 255.887 C 155.990 259.313,162.116 265.922,163.218 268.168 C 163.812 269.381,165.266 271.341,166.449 272.523 C 167.632 273.706,168.780 274.877,169.000 275.125 C 169.220 275.373,170.066 276.133,170.881 276.813 C 171.695 277.493,172.459 278.357,172.579 278.732 C 172.698 279.108,173.471 279.770,174.298 280.203 C 177.568 281.916,182.162 285.882,190.000 293.759 L 198.200 301.998 200.158 301.999 L 202.115 302.000 210.358 293.752 C 214.891 289.216,219.230 285.031,220.000 284.452 C 220.769 283.874,221.759 283.072,222.200 282.672 C 222.640 282.272,223.990 281.336,225.200 280.593 C 226.410 279.850,227.741 278.723,228.157 278.089 C 228.574 277.456,229.474 276.551,230.157 276.079 C 230.841 275.607,231.760 274.676,232.200 274.011 C 232.640 273.346,233.129 272.802,233.286 272.801 C 233.903 272.799,236.400 270.280,236.402 269.659 C 236.408 267.300,247.849 255.488,252.749 252.781 C 255.336 251.352,264.121 242.407,265.207 240.095 C 266.399 237.559,276.984 226.992,280.200 225.127 C 283.625 223.141,292.035 214.606,292.700 212.441 C 293.447 210.007,293.330 209.384,291.846 207.928 C 290.159 206.272,289.728 205.841,288.072 204.154 C 287.341 203.409,286.496 202.800,286.193 202.800 C 285.891 202.800,285.409 202.323,285.122 201.740 C 284.835 201.158,284.060 200.392,283.400 200.039 C 281.474 199.009,280.560 198.262,280.049 197.300 C 279.787 196.805,279.394 196.400,279.177 196.400 C 278.674 196.400,275.589 194.410,274.800 193.577 C 274.121 192.860,272.584 192.011,270.109 190.986 C 269.179 190.602,268.318 189.973,268.197 189.590 C 267.989 188.935,263.739 186.800,262.643 186.800 C 262.366 186.800,261.703 186.333,261.170 185.763 C 259.881 184.386,259.264 184.083,255.973 183.220 C 254.072 182.720,252.940 182.178,252.419 181.515 C 251.645 180.531,249.299 179.605,247.554 179.594 C 246.186 179.586,243.137 178.464,242.200 177.625 C 241.057 176.600,237.776 175.600,235.561 175.600 C 233.136 175.600,228.906 174.524,227.549 173.561 C 224.853 171.648,187.309 170.645,177.238 172.216 M209.967 173.215 C 217.244 173.563,218.991 173.773,221.567 174.606 C 223.235 175.146,225.140 175.761,225.800 175.974 C 226.460 176.188,227.990 176.469,229.200 176.600 C 231.358 176.835,235.811 177.490,237.408 177.808 C 237.852 177.897,238.582 178.291,239.028 178.685 C 240.429 179.918,241.555 180.410,243.509 180.642 C 244.549 180.765,245.850 181.017,246.400 181.201 C 246.950 181.385,247.850 181.635,248.400 181.758 C 248.950 181.881,249.952 182.504,250.627 183.143 C 251.728 184.185,253.231 184.746,256.848 185.467 C 257.424 185.582,258.434 186.247,259.093 186.946 C 259.896 187.797,261.134 188.468,262.844 188.981 C 264.653 189.523,265.738 190.131,266.568 191.068 C 267.265 191.855,268.279 192.491,269.077 192.641 C 269.831 192.782,271.242 193.632,272.308 194.585 C 273.349 195.517,275.136 196.706,276.280 197.228 C 277.424 197.750,278.592 198.612,278.877 199.144 C 279.162 199.677,280.149 200.435,281.069 200.830 C 281.990 201.224,282.965 201.961,283.235 202.465 C 283.915 203.736,284.565 204.331,285.780 204.792 C 286.352 205.010,287.186 205.809,287.635 206.569 C 288.083 207.329,289.069 208.315,289.825 208.762 C 290.581 209.208,291.200 209.827,291.200 210.138 C 291.200 211.423,289.887 213.702,288.785 214.329 C 288.136 214.698,287.604 215.135,287.603 215.300 C 287.600 215.549,285.980 217.236,284.049 219.000 C 283.808 219.220,283.024 220.036,282.306 220.814 C 279.711 223.625,277.082 224.123,274.750 222.245 C 274.173 221.780,273.163 221.108,272.506 220.751 C 271.849 220.394,271.063 219.539,270.758 218.851 C 270.435 218.121,269.906 217.600,269.488 217.600 C 268.633 217.600,267.087 216.646,265.277 215.002 C 263.813 213.671,261.682 212.400,260.915 212.400 C 260.642 212.400,260.103 211.905,259.718 211.300 C 258.817 209.883,258.679 209.796,256.029 208.971 C 254.803 208.589,253.710 208.169,253.600 208.038 C 252.266 206.443,250.219 205.268,248.017 204.835 C 246.157 204.469,245.217 204.035,244.340 203.138 C 243.057 201.826,241.938 201.406,238.049 200.780 C 236.336 200.503,234.908 199.962,233.699 199.130 C 231.612 197.695,230.514 197.409,224.800 196.815 C 219.737 196.290,217.068 195.690,215.200 194.659 C 212.238 193.025,191.124 192.902,186.200 194.490 C 181.805 195.907,179.756 196.354,175.762 196.768 C 170.047 197.360,168.066 197.801,167.076 198.703 C 165.705 199.951,164.854 200.270,161.000 200.985 C 157.925 201.555,157.196 201.849,156.000 202.997 C 155.099 203.861,154.030 204.434,153.000 204.604 C 150.127 205.077,148.991 205.584,147.671 206.983 C 146.777 207.932,145.616 208.585,143.945 209.080 C 142.130 209.618,141.381 210.065,140.974 210.850 C 140.664 211.450,139.734 212.180,138.806 212.551 C 137.912 212.909,136.420 213.892,135.490 214.736 C 133.837 216.237,132.141 217.303,130.662 217.771 C 130.256 217.899,129.841 218.322,129.740 218.710 C 129.428 219.902,124.109 223.600,122.706 223.600 C 121.758 223.600,119.439 222.090,117.200 220.014 C 116.210 219.097,115.264 218.223,115.099 218.073 C 109.638 213.129,107.570 208.400,110.869 208.400 C 111.418 208.400,112.800 206.835,112.800 206.212 C 112.800 205.957,113.513 205.346,114.385 204.857 C 115.257 204.367,116.363 203.413,116.844 202.738 C 117.325 202.062,118.348 201.246,119.118 200.925 C 120.650 200.285,121.600 199.487,121.600 198.841 C 121.600 198.612,122.635 197.930,123.900 197.326 C 125.165 196.721,126.752 195.681,127.427 195.013 C 128.709 193.746,129.914 193.041,131.600 192.572 C 132.150 192.419,133.251 191.709,134.048 190.995 C 134.844 190.281,136.554 189.303,137.848 188.822 C 139.141 188.341,140.574 187.518,141.030 186.993 C 141.866 186.032,144.177 185.077,146.835 184.596 C 147.624 184.452,148.884 183.810,149.635 183.168 C 151.006 181.996,153.501 181.105,156.742 180.632 C 158.653 180.352,160.354 179.589,161.403 178.540 C 162.135 177.808,163.748 177.464,169.467 176.824 C 171.484 176.598,173.554 176.245,174.067 176.039 C 178.784 174.150,181.958 173.546,188.800 173.237 C 199.185 172.769,200.623 172.767,209.967 173.215 M23.934 192.672 C 21.866 193.011,22.222 194.000,24.413 194.000 C 26.253 194.000,26.400 194.072,26.400 194.976 C 26.400 196.378,26.347 196.369,34.751 196.470 C 44.314 196.586,45.060 197.348,42.608 204.500 C 41.979 206.335,42.085 206.364,43.338 204.700 C 44.924 202.591,45.203 198.140,43.849 196.531 L 42.831 195.321 37.425 195.094 C 32.776 194.900,31.709 194.725,29.795 193.849 C 27.396 192.751,25.622 192.394,23.934 192.672 M211.838 211.222 C 218.361 211.654,221.591 212.349,223.000 213.624 C 223.446 214.028,224.773 214.469,226.000 214.621 C 230.959 215.235,234.421 216.323,235.268 217.533 C 235.610 218.021,236.870 218.578,238.609 219.009 C 241.936 219.834,243.118 220.398,244.237 221.692 C 244.697 222.225,245.898 222.891,246.905 223.173 C 247.912 223.455,249.286 224.224,249.959 224.881 C 251.194 226.089,253.787 227.600,254.623 227.600 C 254.873 227.600,255.802 228.365,256.688 229.300 C 257.575 230.235,258.905 231.362,259.645 231.805 C 260.386 232.248,261.058 232.960,261.141 233.387 C 261.223 233.814,261.810 234.649,262.445 235.242 C 264.244 236.923,263.311 240.892,260.778 242.333 C 260.133 242.700,259.604 243.135,259.603 243.300 C 259.600 243.571,257.317 245.924,255.953 247.060 C 255.649 247.314,254.968 248.088,254.439 248.781 C 252.518 251.299,248.395 252.395,246.809 250.809 C 246.374 250.374,245.364 249.745,244.564 249.411 C 243.764 249.076,242.454 248.161,241.654 247.376 C 240.855 246.591,239.278 245.524,238.152 245.004 C 237.026 244.484,235.709 243.556,235.226 242.943 C 234.632 242.187,233.679 241.661,232.274 241.312 C 228.861 240.465,226.851 239.590,226.615 238.849 C 226.390 238.137,222.663 237.124,218.200 236.559 C 217.100 236.420,214.850 235.775,213.200 235.126 C 206.974 232.675,191.978 232.674,186.718 235.125 C 184.977 235.936,183.083 236.466,181.318 236.636 C 177.029 237.049,174.511 237.827,173.190 239.148 C 172.107 240.231,170.698 240.768,167.084 241.477 C 166.464 241.598,165.518 242.285,164.956 243.022 C 164.397 243.755,163.425 244.463,162.783 244.604 C 162.144 244.744,160.753 245.640,159.692 246.594 C 158.630 247.548,156.968 248.742,155.997 249.248 C 155.026 249.755,153.909 250.491,153.516 250.884 C 151.550 252.850,148.722 251.552,143.529 246.300 C 141.409 244.155,139.522 242.400,139.337 242.400 C 137.612 242.398,136.317 236.612,137.716 235.155 C 138.220 234.630,138.948 233.699,139.335 233.086 C 139.721 232.473,140.824 231.589,141.785 231.122 C 142.746 230.655,143.757 229.854,144.031 229.341 C 144.306 228.829,145.041 228.183,145.665 227.907 C 146.289 227.631,146.800 227.269,146.800 227.102 C 146.800 226.936,147.059 226.800,147.376 226.800 C 147.692 226.800,148.735 226.122,149.692 225.293 C 150.650 224.465,152.460 223.438,153.716 223.011 C 155.057 222.555,156.090 221.947,156.220 221.536 C 156.516 220.605,158.233 219.791,161.653 218.959 C 163.204 218.582,164.569 218.026,164.685 217.722 C 165.152 216.505,168.790 215.341,174.337 214.635 C 175.568 214.478,176.820 214.040,177.290 213.602 C 179.835 211.231,195.594 210.145,211.838 211.222 M207.660 251.180 C 212.699 251.570,215.852 252.411,216.673 253.583 C 216.997 254.045,217.929 254.425,219.149 254.593 C 222.532 255.058,225.440 256.433,226.052 257.855 C 226.133 258.045,227.157 258.527,228.327 258.926 C 230.506 259.670,232.400 261.000,232.400 261.786 C 232.400 262.029,232.907 262.527,233.527 262.893 C 234.745 263.613,235.674 265.849,235.155 266.813 C 234.981 267.136,234.539 268.075,234.173 268.900 C 233.808 269.725,233.327 270.400,233.105 270.400 C 232.882 270.400,230.968 272.161,228.850 274.312 C 223.065 280.191,219.088 281.717,216.702 278.974 C 215.682 277.800,214.025 276.976,212.000 276.634 C 211.230 276.505,209.520 275.741,208.200 274.936 L 205.800 273.474 200.154 273.448 C 194.761 273.424,194.438 273.468,192.954 274.438 C 191.141 275.623,188.300 276.800,187.253 276.800 C 186.195 276.800,184.305 277.824,183.210 278.990 C 181.381 280.936,176.468 279.958,174.222 277.200 C 173.774 276.650,173.014 275.840,172.533 275.400 C 172.052 274.960,171.464 274.420,171.228 274.200 C 169.074 272.199,165.600 268.085,165.600 267.535 C 165.600 267.157,165.420 266.736,165.200 266.600 C 163.186 265.355,170.293 258.400,173.578 258.400 C 174.030 258.400,174.400 258.142,174.400 257.827 C 174.400 257.083,176.490 255.600,177.538 255.600 C 177.986 255.600,178.451 255.441,178.571 255.246 C 178.692 255.052,179.641 254.765,180.682 254.609 C 181.761 254.447,183.065 253.911,183.718 253.362 C 184.347 252.833,185.172 252.400,185.551 252.400 C 185.930 252.400,186.421 252.219,186.642 251.998 C 187.565 251.075,200.035 250.589,207.660 251.180 " stroke="none" fill="#99c1ec" fill-rule="evenodd"></path></g></svg>