<svg id="svg" version="1.1" xmlns="http://www.w3.org/2000/svg" xmlns:xlink="http://www.w3.org/1999/xlink" width="40" height="40" viewBox="0, 0, 400,400"><g id="svgg"><path id="path0" d="M303.143 39.391 C 303.053 39.481,300.554 39.751,297.589 39.992 C 289.998 40.608,289.915 40.627,289.000 42.013 C 287.707 43.972,284.811 45.129,280.000 45.608 C 268.633 46.741,268.871 46.691,267.552 48.194 C 265.123 50.960,262.768 51.641,251.507 52.832 C 247.626 53.242,246.774 53.451,246.587 54.040 C 245.711 56.800,241.692 58.229,233.811 58.580 C 226.820 58.892,226.589 58.954,225.544 60.814 C 224.566 62.554,221.595 64.118,217.961 64.807 C 215.063 65.357,215.165 65.072,215.289 72.231 L 215.400 78.600 259.200 78.710 C 283.290 78.770,303.405 78.722,303.900 78.602 L 304.800 78.385 304.800 59.755 C 304.800 42.173,304.758 41.073,304.053 40.177 C 303.642 39.654,303.233 39.301,303.143 39.391 M102.245 75.345 L 101.200 77.411 101.200 134.342 L 101.200 191.272 102.100 192.023 C 103.177 192.921,165.782 193.222,169.000 192.345 C 169.880 192.105,173.930 191.794,178.000 191.654 L 185.400 191.400 185.507 144.200 C 185.628 91.110,185.908 95.429,182.313 95.022 C 178.786 94.623,175.575 93.503,174.109 92.161 C 172.264 90.472,167.640 88.805,163.000 88.155 C 158.135 87.474,155.332 86.689,152.414 85.191 C 149.523 83.706,146.967 83.028,140.400 82.001 C 133.520 80.925,130.797 80.220,128.025 78.797 C 124.549 77.012,122.371 76.494,113.997 75.457 C 109.705 74.926,105.540 74.219,104.742 73.885 L 103.291 73.279 102.245 75.345 M201.553 95.153 L 200.000 96.706 200.000 143.906 L 200.000 191.107 201.601 192.553 L 203.202 194.000 278.301 193.976 C 329.030 193.960,354.049 193.816,355.400 193.533 C 356.500 193.303,360.820 192.999,365.000 192.858 L 372.600 192.603 365.200 192.281 C 361.130 192.104,322.880 191.833,280.200 191.680 L 202.600 191.400 202.498 144.243 C 202.422 108.739,202.512 96.947,202.864 96.523 C 203.263 96.042,214.524 95.968,279.966 96.016 C 334.416 96.055,356.926 95.945,357.726 95.636 C 358.345 95.396,360.595 95.170,362.726 95.134 L 366.600 95.068 362.000 94.772 C 359.470 94.610,356.230 94.283,354.800 94.046 C 353.012 93.750,328.919 93.614,277.653 93.608 L 203.106 93.600 201.553 95.153 M374.193 147.000 C 374.193 171.420,374.241 181.351,374.300 169.069 C 374.359 156.787,374.359 136.807,374.300 124.669 C 374.241 112.531,374.193 122.580,374.193 147.000 M275.287 105.024 C 273.577 106.222,273.200 107.628,273.200 112.800 C 273.200 121.381,272.892 121.200,287.509 121.200 C 302.626 121.200,302.400 121.328,302.400 112.800 C 302.400 107.387,301.983 106.026,300.013 105.007 C 298.246 104.093,276.594 104.109,275.287 105.024 M298.662 107.820 L 300.000 108.841 300.000 112.590 C 300.000 116.242,299.968 116.370,298.769 117.569 L 297.538 118.800 287.600 118.800 L 277.662 118.800 276.431 117.569 C 275.232 116.370,275.200 116.241,275.200 112.598 L 275.200 108.858 276.500 107.833 L 277.800 106.809 287.562 106.804 L 297.324 106.800 298.662 107.820 M174.800 111.569 C 176.594 112.830,177.000 114.216,177.000 119.071 C 177.000 125.729,175.156 127.709,170.000 126.592 C 167.919 126.141,162.267 126.025,141.684 126.014 C 113.013 125.998,113.680 126.062,112.208 123.216 C 111.272 121.406,111.387 116.155,112.398 114.496 C 114.254 111.452,112.713 111.605,141.600 111.584 C 161.679 111.569,167.932 111.446,169.800 111.028 C 172.453 110.434,173.319 110.528,174.800 111.569 M174.800 136.769 C 176.360 137.866,176.966 139.520,177.132 143.134 C 177.461 150.301,175.290 152.920,169.967 151.779 C 167.943 151.345,161.943 151.225,141.600 151.213 C 112.712 151.195,114.254 151.349,112.398 148.304 C 110.464 145.131,111.594 139.368,114.496 137.598 C 115.761 136.827,116.577 136.802,141.600 136.784 C 161.679 136.769,167.932 136.646,169.800 136.228 C 172.453 135.634,173.319 135.728,174.800 136.769 M174.800 161.569 C 176.594 162.830,177.000 164.216,177.000 169.071 C 177.000 175.729,175.156 177.709,170.000 176.592 C 167.919 176.141,162.267 176.025,141.684 176.014 C 113.013 175.998,113.680 176.062,112.208 173.216 C 111.272 171.406,111.387 166.155,112.398 164.496 C 114.254 161.452,112.713 161.605,141.600 161.584 C 161.679 161.569,167.932 161.446,169.800 161.028 C 172.453 160.434,173.319 160.528,174.800 161.569 M40.100 172.276 C 40.485 172.376,41.115 172.376,41.500 172.276 C 41.885 172.175,41.570 172.093,40.800 172.093 C 40.030 172.093,39.715 172.175,40.100 172.276 M58.900 178.276 C 59.285 178.376,59.915 178.376,60.300 178.276 C 60.685 178.175,60.370 178.093,59.600 178.093 C 58.830 178.093,58.515 178.175,58.900 178.276 M101.931 207.494 C 101.199 208.095,100.468 208.770,100.306 208.994 C 100.144 209.217,100.009 224.946,100.006 243.947 L 100.000 278.494 101.553 280.047 L 103.106 281.600 134.453 281.576 C 154.504 281.561,166.521 281.402,167.800 281.136 C 168.900 280.908,173.220 280.593,177.400 280.436 L 185.000 280.152 178.326 280.076 C 174.655 280.034,171.145 279.806,170.526 279.568 C 169.750 279.271,159.176 279.152,136.461 279.185 C 111.943 279.220,103.378 279.114,102.961 278.767 C 102.121 278.070,102.121 209.529,102.961 208.832 C 103.378 208.486,111.962 208.362,136.261 208.351 C 154.268 208.342,172.600 208.216,177.000 208.069 L 185.000 207.804 177.400 207.541 C 173.220 207.397,168.900 207.092,167.800 206.864 C 166.521 206.598,154.528 206.439,134.531 206.424 L 103.261 206.400 101.931 207.494 M202.100 208.267 L 201.200 208.898 201.200 243.779 L 201.200 278.661 202.126 279.530 L 203.052 280.400 279.026 280.394 C 343.978 280.388,355.348 280.303,357.400 279.808 C 358.948 279.434,362.007 279.223,366.020 279.214 C 370.307 279.204,372.389 279.051,372.720 278.720 C 373.451 277.989,373.412 209.474,372.680 208.867 C 371.311 207.730,203.706 207.141,202.100 208.267 M186.591 243.800 C 186.591 262.940,186.640 270.829,186.700 261.330 C 186.760 251.832,186.760 236.172,186.700 226.530 C 186.640 216.889,186.591 224.660,186.591 243.800 M298.304 218.798 C 301.206 220.568,302.336 226.331,300.402 229.504 C 298.728 232.249,298.080 232.397,287.680 232.399 C 274.963 232.401,274.600 232.201,274.600 225.219 C 274.600 220.562,274.771 220.099,277.000 218.737 C 278.893 217.579,296.388 217.630,298.304 218.798 M139.800 223.194 C 107.649 223.445,110.400 222.685,110.400 231.309 C 110.400 237.011,110.794 238.363,112.749 239.374 C 114.351 240.202,168.062 240.373,170.782 239.558 L 172.530 239.034 170.565 238.442 C 168.936 237.950,164.037 237.824,141.912 237.706 L 115.225 237.563 114.012 236.351 C 112.160 234.499,112.155 228.307,114.004 226.458 L 115.208 225.254 142.704 225.082 C 157.827 224.987,170.740 224.765,171.399 224.589 L 172.599 224.269 170.599 223.565 C 169.500 223.179,168.060 222.891,167.400 222.925 C 166.740 222.960,154.320 223.081,139.800 223.194 M176.142 231.400 C 176.141 233.380,176.208 234.240,176.292 233.312 C 176.376 232.384,176.377 230.764,176.295 229.712 C 176.212 228.660,176.143 229.420,176.142 231.400 M139.800 247.994 C 107.736 248.244,110.400 247.483,110.400 256.400 C 110.400 261.790,110.819 263.175,112.749 264.174 C 114.351 265.002,168.062 265.173,170.782 264.358 L 172.530 263.834 170.565 263.242 C 168.936 262.750,164.037 262.624,141.912 262.506 L 115.225 262.363 114.012 261.151 C 112.845 259.984,112.800 259.806,112.800 256.400 C 112.800 252.994,112.845 252.816,114.012 251.649 L 115.225 250.437 141.912 250.294 C 163.939 250.176,168.940 250.049,170.546 249.563 L 172.492 248.975 170.311 248.288 C 169.111 247.909,167.696 247.642,167.165 247.694 C 166.634 247.746,154.320 247.881,139.800 247.994 M176.140 256.400 C 176.140 258.270,176.209 259.035,176.293 258.100 C 176.377 257.165,176.377 255.635,176.293 254.700 C 176.209 253.765,176.140 254.530,176.140 256.400 M39.905 259.483 C 40.402 259.579,41.122 259.575,41.505 259.475 C 41.887 259.375,41.480 259.296,40.600 259.301 C 39.720 259.305,39.407 259.387,39.905 259.483 M58.705 265.883 C 59.202 265.979,59.922 265.975,60.305 265.875 C 60.687 265.775,60.280 265.696,59.400 265.701 C 58.520 265.705,58.207 265.787,58.705 265.883 M201.553 295.153 L 200.000 296.706 200.000 306.400 L 200.000 316.094 201.553 317.647 L 203.106 319.200 278.253 319.176 C 328.621 319.160,354.059 319.015,355.400 318.736 C 356.500 318.508,360.820 318.193,365.000 318.036 L 372.600 317.752 365.674 317.676 C 361.804 317.634,358.405 317.416,357.970 317.184 C 357.440 316.900,332.814 316.776,280.347 316.792 C 223.310 316.809,203.359 316.698,202.950 316.359 C 202.143 315.689,202.143 297.111,202.950 296.441 C 203.359 296.102,223.310 295.991,280.347 296.008 C 332.814 296.024,357.440 295.900,357.970 295.616 C 358.405 295.384,361.804 295.166,365.674 295.124 L 372.600 295.048 365.000 294.764 C 360.820 294.607,356.500 294.292,355.400 294.064 C 354.059 293.785,328.621 293.640,278.253 293.624 L 203.106 293.600 201.553 295.153 M102.070 295.726 L 101.200 296.652 101.206 322.626 C 101.214 355.362,101.015 354.194,106.765 355.222 C 109.795 355.763,112.805 354.676,113.391 352.829 C 113.525 352.407,114.341 351.333,115.204 350.444 C 116.067 349.555,117.211 347.966,117.747 346.914 C 118.927 344.595,119.949 343.623,122.700 342.201 C 123.855 341.604,124.800 340.964,124.800 340.778 C 124.800 336.245,146.129 335.901,150.172 340.369 C 150.568 340.806,151.816 341.641,152.946 342.225 C 155.835 343.718,156.755 344.656,158.019 347.400 C 158.626 348.720,159.608 350.250,160.200 350.800 C 160.792 351.350,161.517 352.264,161.813 352.831 C 162.108 353.398,163.157 354.290,164.144 354.814 L 165.940 355.767 169.504 355.083 C 171.845 354.635,175.056 354.400,178.855 354.400 C 182.821 354.400,184.791 354.249,185.120 353.920 C 185.814 353.226,185.814 297.174,185.120 296.480 C 184.791 296.151,182.752 295.996,178.620 295.986 C 174.932 295.977,171.593 295.750,170.000 295.400 C 167.868 294.931,161.597 294.826,135.170 294.814 L 102.939 294.800 102.070 295.726 M374.173 306.400 C 374.173 311.790,374.230 313.995,374.299 311.300 C 374.368 308.605,374.368 304.195,374.299 301.500 C 374.230 298.805,374.173 301.010,374.173 306.400 M202.070 333.326 C 200.670 334.816,200.719 353.408,202.126 354.730 C 204.309 356.781,212.579 355.386,213.391 352.829 C 213.525 352.407,214.341 351.333,215.204 350.444 C 216.067 349.555,217.211 347.966,217.747 346.914 C 218.927 344.595,219.949 343.623,222.700 342.201 C 223.855 341.604,224.800 340.964,224.800 340.778 C 224.800 336.245,246.129 335.901,250.172 340.369 C 250.568 340.806,251.816 341.641,252.946 342.224 C 255.739 343.666,256.982 344.921,258.020 347.347 C 258.503 348.476,259.596 350.161,260.449 351.091 C 261.302 352.021,262.000 352.959,262.000 353.174 C 262.000 353.390,262.781 354.024,263.735 354.583 L 265.470 355.600 287.600 355.600 L 309.730 355.600 311.438 354.599 C 312.378 354.048,313.257 353.252,313.391 352.829 C 313.525 352.407,314.341 351.333,315.204 350.444 C 316.067 349.555,317.211 347.966,317.747 346.914 C 318.927 344.595,319.949 343.623,322.700 342.201 C 323.855 341.604,324.800 340.964,324.800 340.778 C 324.800 336.230,346.131 335.904,350.191 340.390 C 351.125 341.422,352.648 342.183,355.359 342.971 C 357.752 343.666,358.096 343.978,358.765 346.059 C 359.092 347.072,359.600 347.668,360.431 348.013 C 361.933 348.635,363.064 350.055,363.671 352.078 C 364.315 354.230,365.161 354.602,368.026 353.994 C 372.413 353.064,373.200 351.102,373.200 341.103 C 373.200 332.984,373.792 333.604,366.020 333.586 C 362.007 333.577,358.948 333.366,357.400 332.992 C 355.348 332.497,343.971 332.412,278.970 332.406 L 202.939 332.400 202.070 333.326 M133.528 354.807 C 132.793 355.852,131.627 356.728,129.828 357.587 L 127.200 358.841 127.200 362.558 C 127.200 366.721,127.290 366.882,130.320 368.195 C 132.001 368.923,134.400 371.197,134.400 372.063 C 134.400 372.838,135.682 371.487,137.269 369.038 C 140.171 364.561,139.255 357.329,135.358 353.941 C 134.640 353.316,134.544 353.361,133.528 354.807 M233.528 354.807 C 232.793 355.852,231.627 356.728,229.828 357.587 L 227.200 358.841 227.200 362.558 C 227.200 366.721,227.290 366.882,230.320 368.195 C 232.001 368.923,234.400 371.197,234.400 372.063 C 234.400 372.838,235.682 371.487,237.269 369.038 C 240.171 364.561,239.255 357.329,235.358 353.941 C 234.640 353.316,234.544 353.361,233.528 354.807 M333.528 354.807 C 332.793 355.852,331.627 356.728,329.828 357.587 L 327.200 358.841 327.200 362.558 C 327.200 366.721,327.290 366.882,330.320 368.195 C 332.001 368.923,334.400 371.197,334.400 372.063 C 334.400 372.838,335.682 371.487,337.269 369.038 C 340.171 364.561,339.255 357.329,335.358 353.941 C 334.640 353.316,334.544 353.361,333.528 354.807 " stroke="none" fill="#bea68c" fill-rule="evenodd"></path><path id="path1" d="M313.600 9.584 C 304.684 9.969,303.600 10.498,303.600 14.460 L 303.600 15.600 297.300 15.621 C 285.535 15.659,285.061 15.810,284.626 19.649 L 284.360 22.000 275.609 22.000 C 266.234 22.000,265.600 22.131,265.600 24.076 C 265.600 24.526,264.901 25.593,264.047 26.447 L 262.494 28.000 257.489 28.000 C 244.281 28.000,241.200 28.995,241.200 33.260 L 241.200 34.400 234.100 34.424 C 222.900 34.461,222.536 34.579,222.148 38.296 L 221.890 40.758 213.164 40.879 C 203.265 41.016,203.625 40.891,203.316 44.301 L 203.099 46.694 200.478 46.939 C 196.790 47.283,197.016 46.437,196.874 60.420 C 196.752 72.367,196.722 72.786,196.000 72.400 C 195.551 72.160,190.633 72.000,183.682 72.000 L 172.111 72.000 171.889 69.547 C 171.534 65.633,172.171 65.819,158.631 65.673 L 146.890 65.546 146.724 62.946 C 146.514 59.643,146.461 59.614,140.600 59.605 C 137.960 59.601,132.695 59.480,128.900 59.336 L 122.000 59.074 121.998 57.837 C 121.989 52.916,122.997 53.140,101.600 53.285 L 84.600 53.400 84.499 106.300 L 84.397 159.200 82.799 159.200 C 80.865 159.200,78.000 156.701,78.000 155.014 C 78.000 153.423,76.947 153.200,69.436 153.200 C 62.525 153.200,62.409 153.186,61.807 152.266 C 61.470 151.753,60.755 151.097,60.218 150.810 C 59.509 150.430,59.208 149.892,59.121 148.845 C 58.966 146.996,58.572 146.909,50.105 146.847 L 43.611 146.800 42.216 145.300 C 41.449 144.475,40.817 143.408,40.811 142.929 C 40.784 140.805,40.747 140.800,24.611 140.800 L 9.679 140.800 9.381 145.500 C 8.983 151.783,9.447 181.145,9.966 182.511 C 10.384 183.610,10.782 183.772,14.100 184.203 L 16.000 184.449 16.000 186.380 C 16.000 189.983,17.996 190.758,27.347 190.788 L 31.294 190.800 32.847 192.353 C 33.701 193.207,34.400 194.274,34.400 194.724 C 34.400 196.668,35.036 196.800,44.382 196.800 L 53.107 196.800 53.272 199.399 C 53.506 203.063,53.320 202.979,61.588 203.132 L 68.737 203.264 70.368 204.816 C 71.370 205.769,72.000 206.729,72.000 207.304 C 72.000 209.027,72.609 209.200,78.680 209.200 L 84.400 209.200 84.400 228.000 L 84.400 246.800 82.865 246.800 C 81.005 246.800,78.000 244.265,78.000 242.696 C 78.000 240.925,77.468 240.800,69.931 240.800 L 62.821 240.800 61.011 238.989 C 59.853 237.832,59.200 236.827,59.200 236.204 C 59.200 234.629,58.129 234.400,50.779 234.400 L 43.906 234.400 42.353 232.847 C 41.499 231.993,40.800 230.947,40.800 230.524 C 40.800 228.167,41.025 228.200,24.867 228.200 C 16.729 228.200,9.919 228.350,9.735 228.534 C 9.551 228.718,9.402 238.319,9.406 249.870 C 9.412 273.939,9.075 272.000,13.245 272.000 L 15.536 272.000 15.818 274.629 C 16.178 277.990,16.203 278.000,24.579 278.000 L 31.106 278.000 32.753 279.647 C 33.659 280.553,34.403 281.678,34.406 282.147 C 34.421 284.162,34.554 284.191,44.185 284.327 L 53.200 284.455 53.205 286.327 C 53.218 290.574,53.686 290.800,62.460 290.800 L 68.800 290.800 70.400 292.400 C 71.401 293.401,72.000 294.369,72.000 294.986 C 72.000 296.513,73.105 296.800,78.974 296.800 L 84.400 296.800 84.399 330.500 C 84.398 371.829,84.174 370.012,89.428 371.269 C 90.512 371.528,95.386 371.805,100.257 371.885 C 110.628 372.053,109.586 371.346,109.595 378.224 C 109.601 383.625,109.765 383.911,113.043 384.250 L 115.487 384.502 115.843 387.151 C 116.363 391.010,115.352 390.852,138.708 390.714 C 160.889 390.583,159.200 390.908,159.200 386.779 L 159.200 384.511 161.653 384.289 C 165.268 383.961,165.374 383.772,165.539 377.386 L 165.678 372.000 187.393 372.000 L 209.107 372.000 209.348 372.900 C 209.481 373.395,209.592 375.791,209.595 378.224 C 209.601 383.625,209.765 383.911,213.043 384.250 L 215.487 384.502 215.843 387.151 C 216.363 391.010,215.352 390.852,238.708 390.714 C 260.889 390.583,259.200 390.908,259.200 386.779 L 259.200 384.511 261.653 384.289 C 265.268 383.961,265.374 383.772,265.539 377.386 L 265.678 372.000 287.393 372.000 L 309.107 372.000 309.348 372.900 C 309.481 373.395,309.592 375.791,309.595 378.224 C 309.601 383.625,309.765 383.911,313.043 384.250 L 315.487 384.502 315.843 387.151 C 316.363 391.010,315.352 390.852,338.708 390.714 C 360.889 390.583,359.200 390.908,359.200 386.779 L 359.200 384.511 361.653 384.289 C 365.268 383.961,365.374 383.772,365.539 377.386 L 365.678 372.000 374.816 372.000 C 379.841 372.000,384.049 371.844,384.167 371.654 C 384.284 371.464,385.123 371.208,386.030 371.087 C 388.163 370.801,389.473 369.545,389.817 367.456 C 389.968 366.545,390.251 365.601,390.446 365.358 C 391.074 364.578,390.666 85.398,390.034 82.924 C 388.824 78.190,387.710 78.000,361.100 78.000 L 340.800 78.000 340.800 75.000 L 340.800 72.000 349.184 72.000 C 362.803 72.000,364.738 71.469,365.107 67.626 L 365.298 65.643 377.235 65.522 C 390.980 65.382,390.334 65.565,390.685 61.697 L 390.903 59.289 393.257 59.118 C 396.530 58.882,396.600 58.759,396.600 53.241 C 396.600 47.469,396.447 47.200,393.151 47.200 L 390.800 47.200 390.800 44.633 C 390.800 40.405,392.458 40.797,374.657 40.824 C 354.126 40.855,353.600 40.961,353.600 45.044 L 353.600 46.800 347.200 46.800 L 340.800 46.800 340.800 28.424 C 340.800 14.574,340.682 9.974,340.321 9.751 C 339.644 9.333,321.967 9.223,313.600 9.584 M324.090 28.968 C 325.427 31.467,325.571 34.105,325.586 56.320 C 325.601 80.155,325.622 79.898,323.513 81.376 C 322.716 81.934,316.918 82.000,268.724 82.000 L 214.827 82.000 213.389 80.563 L 211.952 79.126 212.076 71.612 C 212.256 60.678,214.922 57.926,227.400 55.794 C 231.933 55.019,234.365 54.241,237.400 52.592 C 240.491 50.914,241.465 50.624,248.181 49.391 C 253.942 48.332,255.915 47.664,258.513 45.891 C 260.093 44.812,263.322 43.935,268.400 43.206 C 273.565 42.465,276.889 41.542,280.200 39.932 C 282.353 38.886,284.761 38.116,287.561 37.579 C 295.487 36.060,297.414 35.508,300.319 33.919 C 302.718 32.607,304.392 32.085,309.719 30.983 C 316.737 29.533,318.672 28.952,320.791 27.664 C 322.291 26.752,323.069 27.060,324.090 28.968 M106.455 72.146 C 110.139 73.825,112.525 74.352,118.573 74.821 C 123.880 75.233,127.311 76.056,132.600 78.189 C 134.558 78.978,138.059 79.987,140.380 80.432 C 142.701 80.876,146.327 81.569,148.438 81.972 C 150.729 82.409,153.763 83.364,155.966 84.342 C 158.418 85.430,161.158 86.261,164.128 86.816 C 170.083 87.930,176.057 89.448,179.000 90.596 C 180.320 91.110,181.977 91.649,182.681 91.793 C 184.404 92.145,185.857 93.352,186.811 95.222 C 187.584 96.736,187.599 97.751,187.571 144.084 L 187.542 191.400 186.127 192.578 L 184.713 193.755 143.829 193.929 L 102.945 194.103 101.472 192.810 L 100.000 191.517 100.000 134.167 C 100.000 71.328,99.851 75.390,102.281 72.100 C 103.435 70.537,102.910 70.531,106.455 72.146 M371.146 93.480 C 375.959 94.664,375.712 91.964,375.885 145.250 L 376.032 190.700 375.168 192.165 C 373.479 195.027,381.036 194.800,287.600 194.800 C 194.982 194.800,201.840 194.985,200.032 192.444 C 199.201 191.278,199.200 191.233,199.200 144.018 C 199.200 91.837,199.031 95.229,201.719 93.579 C 203.222 92.656,367.410 92.561,371.146 93.480 M277.100 108.446 C 275.412 109.705,275.427 115.301,277.122 116.925 L 278.244 118.000 287.647 118.000 L 297.050 118.000 298.125 116.878 C 299.809 115.120,299.753 109.648,298.038 108.427 C 296.259 107.160,278.803 107.176,277.100 108.446 M143.111 112.700 L 115.621 112.806 114.211 114.216 C 112.203 116.224,112.061 121.524,113.960 123.558 L 115.121 124.800 142.860 124.884 C 158.117 124.931,171.202 124.954,171.938 124.936 C 174.449 124.873,175.000 123.797,175.000 118.956 L 175.000 114.734 173.694 113.567 C 172.925 112.881,172.019 112.440,171.494 112.497 C 171.002 112.551,158.230 112.642,143.111 112.700 M143.111 137.900 L 115.621 138.006 114.211 139.416 C 112.061 141.565,112.063 146.436,114.213 148.587 L 115.627 150.000 142.513 150.004 C 157.301 150.007,170.050 150.116,170.845 150.248 C 172.071 150.451,172.496 150.303,173.645 149.276 L 175.000 148.066 175.000 144.000 L 175.000 139.934 173.694 138.767 C 172.925 138.081,172.019 137.640,171.494 137.697 C 171.002 137.751,158.230 137.842,143.111 137.900 M33.920 161.223 C 41.365 162.764,43.275 163.344,47.000 165.200 C 50.081 166.735,52.241 167.468,56.400 168.392 C 60.545 169.312,62.730 170.053,65.800 171.578 C 70.206 173.767,71.686 174.228,76.098 174.787 C 86.642 176.124,91.551 183.816,85.939 190.208 L 84.767 191.543 82.284 190.395 C 80.811 189.715,77.886 188.905,75.099 188.405 C 69.614 187.423,67.706 186.807,65.217 185.214 C 62.776 183.652,61.858 183.336,55.800 181.974 C 49.978 180.665,48.955 180.311,46.443 178.732 C 44.259 177.359,40.875 176.245,36.200 175.362 C 32.784 174.717,32.508 174.586,30.800 172.810 C 29.810 171.780,28.428 170.543,27.728 170.062 C 24.730 167.997,24.231 165.499,26.080 161.819 C 27.551 158.892,27.754 158.784,29.829 159.835 C 30.825 160.339,32.666 160.964,33.920 161.223 M143.111 162.700 L 115.621 162.806 114.211 164.216 C 112.203 166.224,112.061 171.524,113.960 173.558 L 115.121 174.800 142.860 174.884 C 158.117 174.931,171.202 174.954,171.938 174.936 C 174.449 174.873,175.000 173.797,175.000 168.956 L 175.000 164.734 173.694 163.567 C 172.925 162.881,172.019 162.440,171.494 162.497 C 171.002 162.551,158.230 162.642,143.111 162.700 M185.572 206.186 C 186.195 206.508,187.176 207.332,187.752 208.016 L 188.800 209.261 188.799 243.731 C 188.797 282.386,189.001 279.714,185.904 281.602 C 183.877 282.838,103.745 282.851,101.719 281.616 C 99.064 279.997,99.200 282.035,99.200 243.806 C 99.200 205.422,99.020 208.030,101.783 206.345 C 103.459 205.323,183.609 205.171,185.572 206.186 M373.494 207.600 L 374.756 208.600 374.778 243.825 L 374.800 279.050 373.574 280.225 L 372.348 281.400 287.564 281.530 L 202.780 281.660 201.390 280.270 L 200.000 278.880 200.000 243.881 L 200.000 208.883 201.448 207.612 L 202.896 206.340 287.564 206.470 L 372.232 206.600 373.494 207.600 M276.613 220.613 C 275.233 221.994,275.200 222.101,275.200 225.200 C 275.200 228.299,275.233 228.406,276.613 229.787 L 278.027 231.200 287.600 231.200 L 297.173 231.200 298.587 229.787 C 299.967 228.406,300.000 228.299,300.000 225.200 C 300.000 222.101,299.967 221.994,298.587 220.613 L 297.173 219.200 287.600 219.200 L 278.027 219.200 276.613 220.613 M114.675 227.122 C 113.028 228.841,113.057 234.130,114.722 235.725 L 115.844 236.800 144.252 236.800 L 172.661 236.800 173.530 235.874 C 174.867 234.451,174.828 228.141,173.474 226.870 L 172.548 226.000 144.149 226.000 L 115.750 226.000 114.675 227.122 M33.200 248.534 C 34.410 248.880,37.110 249.532,39.200 249.983 C 41.770 250.536,44.295 251.448,47.000 252.797 C 50.003 254.295,52.297 255.087,56.200 255.971 C 61.595 257.194,63.857 257.938,67.615 259.727 C 68.833 260.307,72.212 261.322,75.122 261.982 C 87.466 264.785,91.708 270.838,85.935 277.413 L 84.767 278.743 82.284 277.586 C 80.583 276.794,77.909 276.106,73.804 275.402 C 68.443 274.484,67.528 274.207,65.179 272.788 C 63.545 271.800,61.351 270.914,59.376 270.443 C 57.629 270.027,54.600 269.312,52.643 268.855 C 50.241 268.293,48.221 267.500,46.419 266.412 C 43.893 264.885,40.998 263.957,35.200 262.812 C 26.325 261.061,21.966 252.856,27.077 247.520 L 28.111 246.440 29.555 247.172 C 30.350 247.575,31.990 248.188,33.200 248.534 M114.675 252.322 C 113.037 254.031,113.065 258.938,114.722 260.525 L 115.844 261.600 144.252 261.600 L 172.661 261.600 173.530 260.674 C 174.861 259.257,174.823 253.337,173.474 252.070 L 172.548 251.200 144.149 251.200 L 115.750 251.200 114.675 252.322 M373.216 293.408 C 375.695 294.690,376.000 296.115,376.000 306.400 C 376.000 316.685,375.695 318.110,373.216 319.392 C 371.408 320.327,203.771 320.316,201.962 319.381 C 199.368 318.039,199.203 317.270,199.201 306.480 C 199.200 295.715,199.332 295.040,201.719 293.584 C 203.489 292.505,371.138 292.333,373.216 293.408 M186.201 295.201 L 187.600 296.557 187.600 325.200 L 187.600 353.843 186.300 355.072 L 185.000 356.301 174.951 356.526 C 162.059 356.813,160.796 356.237,156.821 348.243 C 155.438 345.461,154.928 344.986,151.000 342.817 C 149.680 342.088,148.510 341.381,148.400 341.246 C 145.440 337.606,131.412 337.561,126.666 341.175 C 125.750 341.873,124.485 342.749,123.856 343.122 C 120.855 344.900,120.158 345.579,118.828 348.021 C 115.109 354.849,111.738 357.171,106.490 356.521 C 99.781 355.690,100.005 356.859,100.002 322.660 L 100.000 296.320 101.412 294.908 L 102.823 293.497 143.813 293.671 L 184.802 293.845 186.201 295.201 M373.574 332.575 L 374.800 333.750 374.790 342.175 C 374.776 354.512,374.521 355.110,368.876 355.988 C 364.014 356.745,360.999 354.705,357.657 348.400 C 356.270 345.783,355.770 345.329,352.284 343.515 C 350.551 342.614,348.923 341.679,348.665 341.438 C 347.388 340.243,346.605 339.870,343.916 339.171 C 338.103 337.661,330.052 338.596,326.666 341.175 C 325.750 341.873,324.485 342.749,323.856 343.122 C 320.855 344.900,320.158 345.579,318.828 348.021 C 313.908 357.053,314.808 356.800,287.600 356.800 C 260.225 356.800,261.213 357.075,256.821 348.243 C 255.438 345.461,254.928 344.986,251.000 342.817 C 249.680 342.088,248.510 341.381,248.400 341.246 C 245.440 337.606,231.412 337.561,226.666 341.175 C 225.750 341.873,224.485 342.749,223.856 343.122 C 220.855 344.900,220.158 345.579,218.828 348.021 C 215.225 354.636,212.170 356.800,206.434 356.800 C 202.744 356.800,202.711 356.791,201.360 355.440 L 200.000 354.080 200.000 344.000 L 200.000 333.920 201.390 332.530 L 202.780 331.140 287.564 331.270 L 372.348 331.400 373.574 332.575 M137.649 352.667 L 140.412 353.334 141.153 355.747 C 141.839 357.982,142.016 358.204,143.547 358.763 L 145.200 359.365 145.200 362.651 L 145.200 365.936 144.041 366.191 C 142.539 366.521,141.928 367.304,141.041 370.033 L 140.316 372.266 137.537 372.932 C 134.377 373.691,133.541 373.462,131.453 371.265 C 130.822 370.601,129.800 369.849,129.182 369.593 C 125.742 368.168,124.604 360.524,127.382 357.500 C 128.139 356.675,128.911 356.000,129.097 356.000 C 129.283 356.000,130.499 355.100,131.800 354.000 C 134.518 351.702,134.072 351.804,137.649 352.667 M237.649 352.667 L 240.412 353.334 241.153 355.747 C 241.839 357.982,242.016 358.204,243.547 358.763 L 245.200 359.365 245.200 362.651 L 245.200 365.936 244.041 366.191 C 242.539 366.521,241.928 367.304,241.041 370.033 L 240.316 372.266 237.537 372.932 C 234.377 373.691,233.541 373.462,231.453 371.265 C 230.822 370.601,229.800 369.849,229.182 369.593 C 225.742 368.168,224.604 360.524,227.382 357.500 C 228.139 356.675,228.911 356.000,229.097 356.000 C 229.283 356.000,230.499 355.100,231.800 354.000 C 234.518 351.702,234.072 351.804,237.649 352.667 M337.649 352.667 L 340.412 353.334 341.153 355.747 C 341.839 357.982,342.016 358.204,343.547 358.763 L 345.200 359.365 345.200 362.651 L 345.200 365.936 344.041 366.191 C 342.539 366.521,341.928 367.304,341.041 370.033 L 340.316 372.266 337.537 372.932 C 334.377 373.691,333.541 373.462,331.453 371.265 C 330.822 370.601,329.800 369.849,329.182 369.593 C 325.742 368.168,324.604 360.524,327.382 357.500 C 328.139 356.675,328.911 356.000,329.097 356.000 C 329.283 356.000,330.499 355.100,331.800 354.000 C 334.518 351.702,334.072 351.804,337.649 352.667 " stroke="none" fill="#050404" fill-rule="evenodd"></path><path id="path2" d="M202.863 96.524 C 202.512 96.947,202.422 108.785,202.498 144.243 L 202.600 191.400 279.400 191.400 L 356.200 191.400 356.200 144.320 C 356.200 106.228,356.101 97.141,355.680 96.720 C 354.872 95.912,203.532 95.717,202.863 96.524 M300.013 105.007 C 301.983 106.026,302.400 107.387,302.400 112.800 C 302.400 121.328,302.626 121.200,287.509 121.200 C 272.892 121.200,273.200 121.381,273.200 112.800 C 273.200 107.628,273.577 106.222,275.287 105.024 C 276.594 104.109,298.246 104.093,300.013 105.007 M102.880 208.880 C 102.184 209.576,102.184 278.024,102.880 278.720 C 103.416 279.256,164.024 279.398,167.000 278.870 L 168.600 278.586 168.600 272.000 L 168.600 265.414 167.000 265.130 C 166.120 264.974,153.826 264.836,139.680 264.823 C 107.965 264.795,110.400 265.495,110.400 256.400 C 110.400 247.305,107.965 248.005,139.680 247.977 C 153.826 247.964,166.120 247.826,167.000 247.670 L 168.600 247.386 168.600 244.000 L 168.600 240.614 167.000 240.330 C 166.120 240.174,153.826 240.036,139.680 240.023 C 107.877 239.995,110.400 240.745,110.400 231.309 C 110.400 222.505,107.878 223.205,139.680 223.177 C 153.826 223.164,166.120 223.026,167.000 222.870 L 168.600 222.586 168.600 215.800 L 168.600 209.014 167.000 208.730 C 164.024 208.202,103.416 208.344,102.880 208.880 M202.880 296.480 C 202.198 297.162,202.198 315.638,202.880 316.320 C 203.416 316.856,351.597 317.003,354.600 316.470 L 356.200 316.186 356.200 306.400 L 356.200 296.614 354.600 296.330 C 351.597 295.797,203.416 295.944,202.880 296.480 " stroke="none" fill="#fcecac" fill-rule="evenodd"></path><path id="path3" d="M320.791 27.664 C 318.672 28.952,316.737 29.533,309.719 30.983 C 304.392 32.085,302.718 32.607,300.319 33.919 C 297.414 35.508,295.487 36.060,287.561 37.579 C 284.761 38.116,282.353 38.886,280.200 39.932 C 276.889 41.542,273.565 42.465,268.400 43.206 C 263.322 43.935,260.093 44.812,258.513 45.891 C 255.915 47.664,253.942 48.332,248.181 49.391 C 241.465 50.624,240.491 50.914,237.400 52.592 C 234.365 54.241,231.933 55.019,227.400 55.794 C 214.922 57.926,212.256 60.678,212.076 71.612 L 211.952 79.126 213.389 80.563 L 214.827 82.000 268.724 82.000 C 328.025 82.000,323.663 82.186,325.002 79.596 C 325.837 77.982,325.869 35.446,325.039 31.973 C 323.996 27.612,322.827 26.426,320.791 27.664 M304.800 59.755 L 304.800 78.385 303.900 78.602 C 303.405 78.722,283.290 78.770,259.200 78.710 L 215.400 78.600 215.289 72.231 C 215.165 65.072,215.063 65.357,217.961 64.807 C 221.595 64.118,224.566 62.554,225.544 60.814 C 226.589 58.954,226.820 58.892,233.811 58.580 C 241.692 58.229,245.711 56.800,246.587 54.040 C 246.774 53.451,247.626 53.242,251.507 52.832 C 262.768 51.641,265.123 50.960,267.552 48.194 C 268.871 46.691,268.633 46.741,280.000 45.608 C 284.811 45.129,287.707 43.972,289.000 42.013 C 289.915 40.627,289.998 40.608,297.589 39.992 C 300.554 39.751,303.053 39.481,303.143 39.391 C 303.233 39.301,303.642 39.654,304.053 40.177 C 304.758 41.073,304.800 42.173,304.800 59.755 M102.281 72.100 C 99.851 75.390,100.000 71.328,100.000 134.167 L 100.000 191.517 101.472 192.810 L 102.945 194.103 143.829 193.929 L 184.713 193.755 186.127 192.578 L 187.542 191.400 187.571 144.084 C 187.599 97.751,187.584 96.736,186.811 95.222 C 185.857 93.352,184.404 92.145,182.681 91.793 C 181.977 91.649,180.320 91.110,179.000 90.596 C 176.057 89.448,170.083 87.930,164.128 86.816 C 161.158 86.261,158.418 85.430,155.966 84.342 C 153.763 83.364,150.729 82.409,148.438 81.972 C 146.327 81.569,142.701 80.876,140.380 80.432 C 138.059 79.987,134.558 78.978,132.600 78.189 C 127.311 76.056,123.880 75.233,118.573 74.821 C 112.525 74.352,110.139 73.825,106.455 72.146 C 102.910 70.531,103.435 70.537,102.281 72.100 M113.997 75.457 C 122.371 76.494,124.549 77.012,128.025 78.797 C 130.797 80.220,133.520 80.925,140.400 82.001 C 146.967 83.028,149.523 83.706,152.414 85.191 C 155.332 86.689,158.135 87.474,163.000 88.155 C 167.640 88.805,172.264 90.472,174.109 92.161 C 175.575 93.503,178.786 94.623,182.313 95.022 C 185.908 95.429,185.628 91.110,185.507 144.200 L 185.400 191.400 178.000 191.654 C 173.930 191.794,169.880 192.105,169.000 192.345 C 165.782 193.222,103.177 192.921,102.100 192.023 L 101.200 191.272 101.200 134.342 L 101.200 77.411 102.245 75.345 L 103.291 73.279 104.742 73.885 C 105.540 74.219,109.705 74.926,113.997 75.457 M201.719 93.579 C 199.031 95.229,199.200 91.837,199.200 144.018 C 199.200 191.233,199.201 191.278,200.032 192.444 C 201.840 194.985,194.982 194.800,287.600 194.800 C 381.036 194.800,373.479 195.027,375.168 192.165 L 376.032 190.700 375.885 145.250 C 375.712 91.964,375.959 94.664,371.146 93.480 C 367.410 92.561,203.222 92.656,201.719 93.579 M354.800 94.038 C 356.230 94.269,359.650 94.607,362.400 94.788 C 375.636 95.660,374.400 90.245,374.400 147.368 L 374.400 191.050 373.260 191.892 C 372.225 192.658,371.448 192.752,364.760 192.925 C 360.712 193.030,356.500 193.304,355.400 193.534 C 354.051 193.816,328.942 193.960,278.301 193.976 L 203.202 194.000 201.601 192.553 L 200.000 191.107 200.000 143.906 L 200.000 96.706 201.553 95.153 L 203.106 93.600 277.653 93.608 C 327.942 93.613,353.046 93.753,354.800 94.038 M276.500 107.833 L 275.200 108.858 275.200 112.598 C 275.200 116.241,275.232 116.370,276.431 117.569 L 277.662 118.800 287.600 118.800 L 297.538 118.800 298.769 117.569 C 299.968 116.370,300.000 116.242,300.000 112.590 L 300.000 108.841 298.662 107.820 L 297.324 106.800 287.562 106.804 L 277.800 106.809 276.500 107.833 M298.038 108.427 C 299.753 109.648,299.809 115.120,298.125 116.878 L 297.050 118.000 287.647 118.000 L 278.244 118.000 277.122 116.925 C 275.427 115.301,275.412 109.705,277.100 108.446 C 278.803 107.176,296.259 107.160,298.038 108.427 M169.800 111.028 C 167.932 111.446,161.679 111.569,141.600 111.584 C 112.713 111.605,114.254 111.452,112.398 114.496 C 111.387 116.155,111.272 121.406,112.208 123.216 C 113.680 126.062,113.013 125.998,141.684 126.014 C 162.267 126.025,167.919 126.141,170.000 126.592 C 175.156 127.709,177.000 125.729,177.000 119.071 C 177.000 111.851,175.184 109.823,169.800 111.028 M173.694 113.567 L 175.000 114.734 175.000 118.956 C 175.000 123.797,174.449 124.873,171.938 124.936 C 171.202 124.954,158.117 124.931,142.860 124.884 L 115.121 124.800 113.960 123.558 C 112.061 121.524,112.203 116.224,114.211 114.216 L 115.621 112.806 143.111 112.700 C 158.230 112.642,171.002 112.551,171.494 112.497 C 172.019 112.440,172.925 112.881,173.694 113.567 M169.800 136.228 C 167.932 136.646,161.679 136.769,141.600 136.784 C 112.713 136.805,114.254 136.652,112.398 139.696 C 110.464 142.869,111.594 148.632,114.496 150.402 C 115.761 151.173,116.574 151.197,141.600 151.213 C 161.943 151.225,167.943 151.345,169.967 151.779 C 175.290 152.920,177.461 150.301,177.132 143.134 C 176.853 137.058,174.787 135.112,169.800 136.228 M173.694 138.767 L 175.000 139.934 175.000 144.000 L 175.000 148.066 173.645 149.276 C 172.496 150.303,172.071 150.451,170.845 150.248 C 170.050 150.116,157.301 150.007,142.513 150.004 L 115.627 150.000 114.213 148.587 C 112.063 146.436,112.061 141.565,114.211 139.416 L 115.621 138.006 143.111 137.900 C 158.230 137.842,171.002 137.751,171.494 137.697 C 172.019 137.640,172.925 138.081,173.694 138.767 M27.455 159.559 C 24.173 163.303,24.287 167.691,27.728 170.062 C 28.428 170.543,29.810 171.780,30.800 172.810 C 32.508 174.586,32.784 174.717,36.200 175.362 C 40.875 176.245,44.259 177.359,46.443 178.732 C 48.955 180.311,49.978 180.665,55.800 181.974 C 61.858 183.336,62.776 183.652,65.217 185.214 C 67.706 186.807,69.614 187.423,75.099 188.405 C 77.886 188.905,80.811 189.715,82.284 190.395 L 84.767 191.543 85.939 190.208 C 91.551 183.816,86.642 176.124,76.098 174.787 C 71.686 174.228,70.206 173.767,65.800 171.578 C 62.730 170.053,60.545 169.312,56.400 168.392 C 52.241 167.468,50.081 166.735,47.000 165.200 C 43.275 163.344,41.365 162.764,33.920 161.223 C 32.666 160.964,30.825 160.339,29.829 159.835 C 28.177 158.998,27.968 158.974,27.455 159.559 M169.800 161.028 C 167.932 161.446,161.679 161.569,141.600 161.584 C 112.713 161.605,114.254 161.452,112.398 164.496 C 111.387 166.155,111.272 171.406,112.208 173.216 C 113.680 176.062,113.013 175.998,141.684 176.014 C 162.267 176.025,167.919 176.141,170.000 176.592 C 175.156 177.709,177.000 175.729,177.000 169.071 C 177.000 161.851,175.184 159.823,169.800 161.028 M173.694 163.567 L 175.000 164.734 175.000 168.956 C 175.000 173.797,174.449 174.873,171.938 174.936 C 171.202 174.954,158.117 174.931,142.860 174.884 L 115.121 174.800 113.960 173.558 C 112.061 171.524,112.203 166.224,114.211 164.216 L 115.621 162.806 143.111 162.700 C 158.230 162.642,171.002 162.551,171.494 162.497 C 172.019 162.440,172.925 162.881,173.694 163.567 M41.500 172.276 C 41.115 172.376,40.485 172.376,40.100 172.276 C 39.715 172.175,40.030 172.093,40.800 172.093 C 41.570 172.093,41.885 172.175,41.500 172.276 M60.300 178.276 C 59.915 178.376,59.285 178.376,58.900 178.276 C 58.515 178.175,58.830 178.093,59.600 178.093 C 60.370 178.093,60.685 178.175,60.300 178.276 M101.783 206.345 C 99.020 208.030,99.200 205.422,99.200 243.806 C 99.200 282.035,99.064 279.997,101.719 281.616 C 103.745 282.851,183.877 282.838,185.904 281.602 C 189.001 279.714,188.797 282.386,188.799 243.731 L 188.800 209.261 187.752 208.016 C 185.589 205.446,188.398 205.600,143.720 205.601 C 104.762 205.603,102.947 205.635,101.783 206.345 M167.800 206.866 C 168.900 207.096,173.123 207.370,177.185 207.475 C 183.726 207.644,184.696 207.757,185.685 208.460 L 186.800 209.254 186.800 243.752 L 186.800 278.250 185.700 279.296 C 184.612 280.330,184.517 280.344,177.200 280.529 C 173.130 280.631,168.900 280.904,167.800 281.134 C 166.512 281.403,154.637 281.561,134.453 281.576 L 103.106 281.600 101.553 280.047 L 100.000 278.494 100.006 243.947 C 100.009 224.946,100.144 209.217,100.306 208.994 C 100.468 208.770,101.199 208.095,101.931 207.494 L 103.261 206.400 134.531 206.424 C 154.661 206.439,166.512 206.597,167.800 206.866 M201.448 207.612 L 200.000 208.883 200.000 243.881 L 200.000 278.880 201.390 280.270 L 202.780 281.660 287.564 281.530 L 372.348 281.400 373.574 280.225 L 374.800 279.050 374.778 243.825 L 374.756 208.600 373.494 207.600 L 372.232 206.600 287.564 206.470 L 202.896 206.340 201.448 207.612 M364.580 208.204 C 369.063 208.341,372.373 208.612,372.680 208.867 C 373.412 209.474,373.451 277.989,372.720 278.720 C 372.389 279.051,370.307 279.204,366.020 279.214 C 362.007 279.223,358.948 279.434,357.400 279.808 C 355.348 280.303,343.978 280.388,279.026 280.394 L 203.052 280.400 202.126 279.530 L 201.200 278.661 201.200 243.779 L 201.200 208.898 202.100 208.267 C 203.013 207.627,343.866 207.573,364.580 208.204 M277.000 218.737 C 274.771 220.099,274.600 220.562,274.600 225.219 C 274.600 232.201,274.963 232.401,287.680 232.399 C 298.080 232.397,298.728 232.249,300.402 229.504 C 302.336 226.331,301.206 220.568,298.304 218.798 C 296.388 217.630,278.893 217.579,277.000 218.737 M298.587 220.613 C 299.967 221.994,300.000 222.101,300.000 225.200 C 300.000 228.299,299.967 228.406,298.587 229.787 L 297.173 231.200 287.600 231.200 L 278.027 231.200 276.613 229.787 C 275.233 228.406,275.200 228.299,275.200 225.200 C 275.200 222.101,275.233 221.994,276.613 220.613 L 278.027 219.200 287.600 219.200 L 297.173 219.200 298.587 220.613 M168.400 224.814 C 166.970 224.975,154.429 225.128,140.531 225.153 L 115.262 225.200 114.031 226.431 C 112.155 228.307,112.144 234.482,114.012 236.351 L 115.225 237.563 141.912 237.707 C 162.367 237.817,168.995 237.972,170.290 238.371 C 172.552 239.069,173.777 238.686,174.989 236.902 C 176.369 234.872,176.496 228.296,175.195 226.193 C 174.061 224.357,173.493 224.242,168.400 224.814 M173.474 226.870 C 174.828 228.141,174.867 234.451,173.530 235.874 L 172.661 236.800 144.252 236.800 L 115.844 236.800 114.722 235.725 C 113.057 234.130,113.028 228.841,114.675 227.122 L 115.750 226.000 144.149 226.000 L 172.548 226.000 173.474 226.870 M27.077 247.520 C 21.966 252.856,26.325 261.061,35.200 262.812 C 40.998 263.957,43.893 264.885,46.419 266.412 C 48.221 267.500,50.241 268.293,52.643 268.855 C 54.600 269.312,57.629 270.027,59.376 270.443 C 61.351 270.914,63.545 271.800,65.179 272.788 C 67.528 274.207,68.443 274.484,73.804 275.402 C 77.909 276.106,80.583 276.794,82.284 277.586 L 84.767 278.743 85.935 277.413 C 91.708 270.838,87.466 264.785,75.122 261.982 C 72.212 261.322,68.833 260.307,67.615 259.727 C 63.857 257.938,61.595 257.194,56.200 255.971 C 52.297 255.087,50.003 254.295,47.000 252.797 C 44.295 251.448,41.770 250.536,39.200 249.983 C 34.191 248.903,31.320 248.067,29.555 247.172 L 28.111 246.440 27.077 247.520 M169.800 249.714 C 168.977 250.019,160.207 250.203,141.912 250.298 L 115.225 250.437 114.012 251.649 C 112.845 252.816,112.800 252.994,112.800 256.400 C 112.800 259.806,112.845 259.984,114.012 261.151 L 115.225 262.363 141.912 262.507 C 162.367 262.617,168.995 262.772,170.290 263.171 C 174.175 264.369,176.000 262.222,176.000 256.454 C 176.000 250.354,173.983 248.162,169.800 249.714 M173.474 252.070 C 174.823 253.337,174.861 259.257,173.530 260.674 L 172.661 261.600 144.252 261.600 L 115.844 261.600 114.722 260.525 C 113.065 258.938,113.037 254.031,114.675 252.322 L 115.750 251.200 144.149 251.200 L 172.548 251.200 173.474 252.070 M41.505 259.475 C 41.122 259.575,40.402 259.579,39.905 259.483 C 39.407 259.387,39.720 259.305,40.600 259.301 C 41.480 259.296,41.887 259.375,41.505 259.475 M60.305 265.875 C 59.922 265.975,59.202 265.979,58.705 265.883 C 58.207 265.787,58.520 265.705,59.400 265.701 C 60.280 265.696,60.687 265.775,60.305 265.875 M201.719 293.584 C 199.332 295.040,199.200 295.715,199.201 306.480 C 199.203 317.270,199.368 318.039,201.962 319.381 C 203.771 320.316,371.408 320.327,373.216 319.392 C 375.695 318.110,376.000 316.685,376.000 306.400 C 376.000 296.115,375.695 294.690,373.216 293.408 C 371.138 292.333,203.489 292.505,201.719 293.584 M101.412 294.908 L 100.000 296.320 100.002 322.660 C 100.005 356.859,99.781 355.690,106.490 356.521 C 111.738 357.171,115.109 354.849,118.828 348.021 C 120.158 345.579,120.855 344.900,123.856 343.122 C 124.485 342.749,125.750 341.873,126.666 341.175 C 131.412 337.561,145.440 337.606,148.400 341.246 C 148.510 341.381,149.680 342.088,151.000 342.817 C 154.928 344.986,155.438 345.461,156.821 348.243 C 160.796 356.237,162.059 356.813,174.951 356.526 L 185.000 356.301 186.300 355.072 L 187.600 353.843 187.600 325.200 L 187.600 296.557 186.201 295.201 L 184.802 293.845 143.813 293.671 L 102.823 293.497 101.412 294.908 M355.400 294.066 C 356.500 294.296,360.730 294.569,364.800 294.671 C 372.117 294.856,372.212 294.870,373.300 295.904 L 374.400 296.950 374.400 306.400 L 374.400 315.850 373.300 316.896 C 372.212 317.930,372.117 317.944,364.800 318.129 C 360.730 318.231,356.500 318.504,355.400 318.734 C 354.051 319.016,328.927 319.160,278.253 319.176 L 203.106 319.200 201.553 317.647 L 200.000 316.094 200.000 306.400 L 200.000 296.706 201.553 295.153 L 203.106 293.600 278.253 293.624 C 328.927 293.640,354.051 293.784,355.400 294.066 M170.000 295.400 C 171.593 295.750,174.932 295.977,178.620 295.986 C 182.752 295.996,184.791 296.151,185.120 296.480 C 185.814 297.174,185.814 353.226,185.120 353.920 C 184.791 354.249,182.821 354.400,178.855 354.400 C 175.056 354.400,171.845 354.635,169.504 355.083 L 165.940 355.767 164.144 354.814 C 163.157 354.290,162.108 353.398,161.813 352.831 C 161.517 352.264,160.792 351.350,160.200 350.800 C 159.608 350.250,158.626 348.720,158.019 347.400 C 156.755 344.656,155.835 343.718,152.946 342.225 C 151.816 341.641,150.568 340.806,150.172 340.369 C 146.129 335.901,124.800 336.245,124.800 340.778 C 124.800 340.964,123.855 341.604,122.700 342.201 C 119.949 343.623,118.927 344.595,117.747 346.914 C 117.211 347.966,116.067 349.555,115.204 350.444 C 114.341 351.333,113.525 352.407,113.391 352.829 C 112.805 354.676,109.795 355.763,106.765 355.222 C 101.015 354.194,101.214 355.362,101.206 322.626 L 101.200 296.652 102.070 295.726 L 102.939 294.800 135.170 294.814 C 161.597 294.826,167.868 294.931,170.000 295.400 M201.390 332.530 L 200.000 333.920 200.000 344.000 L 200.000 354.080 201.360 355.440 C 202.711 356.791,202.744 356.800,206.434 356.800 C 212.170 356.800,215.225 354.636,218.828 348.021 C 220.158 345.579,220.855 344.900,223.856 343.122 C 224.485 342.749,225.750 341.873,226.666 341.175 C 231.412 337.561,245.440 337.606,248.400 341.246 C 248.510 341.381,249.680 342.088,251.000 342.817 C 254.928 344.986,255.438 345.461,256.821 348.243 C 261.213 357.075,260.225 356.800,287.600 356.800 C 314.808 356.800,313.908 357.053,318.828 348.021 C 320.158 345.579,320.855 344.900,323.856 343.122 C 324.485 342.749,325.750 341.873,326.666 341.175 C 330.052 338.596,338.103 337.661,343.916 339.171 C 346.605 339.870,347.388 340.243,348.665 341.438 C 348.923 341.679,350.551 342.614,352.284 343.515 C 355.770 345.329,356.270 345.783,357.657 348.400 C 360.999 354.705,364.014 356.745,368.876 355.988 C 374.521 355.110,374.776 354.512,374.790 342.175 L 374.800 333.750 373.574 332.575 L 372.348 331.400 287.564 331.270 L 202.780 331.140 201.390 332.530 M357.400 332.992 C 358.948 333.366,362.007 333.577,366.020 333.586 C 373.792 333.604,373.200 332.984,373.200 341.103 C 373.200 351.102,372.413 353.064,368.026 353.994 C 365.161 354.602,364.315 354.230,363.671 352.078 C 363.064 350.055,361.933 348.635,360.431 348.013 C 359.600 347.668,359.092 347.072,358.765 346.059 C 358.096 343.978,357.752 343.666,355.359 342.971 C 352.648 342.183,351.125 341.422,350.191 340.390 C 346.131 335.904,324.800 336.230,324.800 340.778 C 324.800 340.964,323.855 341.604,322.700 342.201 C 319.949 343.623,318.927 344.595,317.747 346.914 C 317.211 347.966,316.067 349.555,315.204 350.444 C 314.341 351.333,313.525 352.407,313.391 352.829 C 313.257 353.252,312.378 354.048,311.438 354.599 L 309.730 355.600 287.600 355.600 L 265.470 355.600 263.735 354.583 C 262.781 354.024,262.000 353.390,262.000 353.174 C 262.000 352.959,261.302 352.021,260.449 351.091 C 259.596 350.161,258.503 348.476,258.020 347.347 C 256.982 344.921,255.739 343.666,252.946 342.224 C 251.816 341.641,250.568 340.806,250.172 340.369 C 246.129 335.901,224.800 336.245,224.800 340.778 C 224.800 340.964,223.855 341.604,222.700 342.201 C 219.949 343.623,218.927 344.595,217.747 346.914 C 217.211 347.966,216.067 349.555,215.204 350.444 C 214.341 351.333,213.525 352.407,213.391 352.829 C 212.579 355.386,204.309 356.781,202.126 354.730 C 200.719 353.408,200.670 334.816,202.070 333.326 L 202.939 332.400 278.970 332.406 C 343.971 332.412,355.348 332.497,357.400 332.992 M131.800 354.000 C 130.499 355.100,129.283 356.000,129.097 356.000 C 128.911 356.000,128.139 356.675,127.382 357.500 C 124.604 360.524,125.742 368.168,129.182 369.593 C 129.800 369.849,130.822 370.601,131.453 371.265 C 133.541 373.462,134.377 373.691,137.537 372.932 L 140.316 372.266 141.041 370.033 C 141.928 367.304,142.539 366.521,144.041 366.191 L 145.200 365.936 145.200 362.651 L 145.200 359.365 143.547 358.763 C 142.016 358.204,141.839 357.982,141.153 355.747 L 140.412 353.334 137.649 352.667 C 134.072 351.804,134.518 351.702,131.800 354.000 M231.800 354.000 C 230.499 355.100,229.283 356.000,229.097 356.000 C 228.911 356.000,228.139 356.675,227.382 357.500 C 224.604 360.524,225.742 368.168,229.182 369.593 C 229.800 369.849,230.822 370.601,231.453 371.265 C 233.541 373.462,234.377 373.691,237.537 372.932 L 240.316 372.266 241.041 370.033 C 241.928 367.304,242.539 366.521,244.041 366.191 L 245.200 365.936 245.200 362.651 L 245.200 359.365 243.547 358.763 C 242.016 358.204,241.839 357.982,241.153 355.747 L 240.412 353.334 237.649 352.667 C 234.072 351.804,234.518 351.702,231.800 354.000 M331.800 354.000 C 330.499 355.100,329.283 356.000,329.097 356.000 C 328.911 356.000,328.139 356.675,327.382 357.500 C 324.604 360.524,325.742 368.168,329.182 369.593 C 329.800 369.849,330.822 370.601,331.453 371.265 C 333.541 373.462,334.377 373.691,337.537 372.932 L 340.316 372.266 341.041 370.033 C 341.928 367.304,342.539 366.521,344.041 366.191 L 345.200 365.936 345.200 362.651 L 345.200 359.365 343.547 358.763 C 342.016 358.204,341.839 357.982,341.153 355.747 L 340.412 353.334 337.649 352.667 C 334.072 351.804,334.518 351.702,331.800 354.000 M137.458 356.681 C 139.576 359.966,139.490 365.612,137.269 369.038 C 135.682 371.487,134.400 372.838,134.400 372.063 C 134.400 371.197,132.001 368.923,130.320 368.195 C 127.290 366.882,127.200 366.721,127.200 362.558 L 127.200 358.841 129.828 357.587 C 131.627 356.728,132.793 355.852,133.528 354.807 C 134.800 352.996,135.208 353.190,137.458 356.681 M237.458 356.681 C 239.576 359.966,239.490 365.612,237.269 369.038 C 235.682 371.487,234.400 372.838,234.400 372.063 C 234.400 371.197,232.001 368.923,230.320 368.195 C 227.290 366.882,227.200 366.721,227.200 362.558 L 227.200 358.841 229.828 357.587 C 231.627 356.728,232.793 355.852,233.528 354.807 C 234.800 352.996,235.208 353.190,237.458 356.681 M337.458 356.681 C 339.576 359.966,339.490 365.612,337.269 369.038 C 335.682 371.487,334.400 372.838,334.400 372.063 C 334.400 371.197,332.001 368.923,330.320 368.195 C 327.290 366.882,327.200 366.721,327.200 362.558 L 327.200 358.841 329.828 357.587 C 331.627 356.728,332.793 355.852,333.528 354.807 C 334.800 352.996,335.208 353.190,337.458 356.681 " stroke="none" fill="#c22d42" fill-rule="evenodd"></path><path id="path4" d="M357.200 95.766 C 355.903 96.235,355.815 96.373,356.000 97.636 C 356.110 98.386,356.200 119.790,356.200 145.200 L 356.200 191.400 357.600 191.894 C 359.613 192.604,372.352 192.563,373.300 191.843 C 374.356 191.041,374.331 103.289,373.273 99.200 L 372.600 96.600 370.000 95.927 C 366.854 95.113,359.272 95.018,357.200 95.766 M170.078 208.353 L 168.756 208.600 168.757 215.800 L 168.759 223.000 171.743 223.970 C 175.573 225.214,176.400 226.542,176.400 231.450 C 176.400 236.434,175.420 237.897,171.065 239.412 L 168.730 240.225 168.730 244.000 L 168.730 247.775 171.065 248.588 C 175.380 250.089,176.400 251.582,176.400 256.400 C 176.400 261.213,175.379 262.711,171.079 264.208 L 168.759 265.015 168.759 271.999 L 168.759 278.982 170.079 279.461 C 172.438 280.315,184.930 280.162,185.738 279.269 C 186.852 278.037,186.744 209.012,185.626 208.414 C 184.800 207.972,172.375 207.923,170.078 208.353 M357.485 295.758 L 356.371 296.252 356.371 306.396 L 356.371 316.540 357.631 317.070 C 359.779 317.973,372.486 317.810,373.338 316.869 C 374.394 315.702,374.332 296.824,373.269 295.862 C 372.339 295.020,359.345 294.935,357.485 295.758 " stroke="none" fill="#fcd424" fill-rule="evenodd"></path></g></svg>