<svg class="svg-icon" style="width: 1em; height: 1em;vertical-align: middle;fill: currentColor;overflow: hidden;" viewBox="0 0 1024 1024" version="1.1" xmlns="http://www.w3.org/2000/svg"><path d="M512 512m-414 0a414 414 0 1 0 828 0 414 414 0 1 0-828 0Z" fill="#F0C48A" /><path d="M688 58.4H336c-31 0-56 25-56 56v795.2c0 31 25 56 56 56h352c31 0 56-25 56-56V114.4c0-31-25-56-56-56z" fill="#FFFFFF" /><path d="M688 58.4h-32v907.2h32c31 0 56-25 56-56V114.4c0-31-25-56-56-56z" fill="#D3E6F8" /><path d="M688 977.4H336c-37.4 0-67.8-30.4-67.8-67.8V114.4c0-37.4 30.4-67.8 67.8-67.8h352c37.4 0 67.8 30.4 67.8 67.8v795.2c0 37.4-30.4 67.8-67.8 67.8zM336 70c-24.4 0-44.2 19.8-44.2 44.2v795.2c0 24.4 19.8 44.2 44.2 44.2h352c24.4 0 44.2-19.8 44.2-44.2V114.4C732.2 90 712.4 70 688 70H336z" fill="#4C4372" /><path d="M631.4 197.8c-3 0-6-1.2-8.2-3.4-61.2-61.2-161-61.2-222.2 0-4.6 4.6-12 4.6-16.6 0-4.6-4.6-4.6-12 0-16.6 34-34 79.4-52.8 127.6-52.8s93.6 18.8 127.6 52.8c4.6 4.6 4.6 12 0 16.6-2.2 2.2-5.2 3.4-8.2 3.4z" fill="#4C4372" /><path d="M593.6 235.6c-3 0-6-1.2-8.2-3.4-40.4-40.4-106-40.4-146.4 0-4.6 4.6-12 4.6-16.6 0-4.6-4.6-4.6-12 0-16.6 49.6-49.6 130-49.6 179.6 0 4.6 4.6 4.6 12 0 16.6-2.4 2.4-5.6 3.4-8.4 3.4z" fill="#4C4372" /><path d="M554 275.2c-3 0-6-1.2-8.2-3.4-9-9-21-14-33.6-14-12.8 0-24.6 5-33.6 14-4.6 4.6-12 4.6-16.6 0-4.6-4.6-4.6-12 0-16.6 13.4-13.4 31.2-20.8 50.2-20.8 19 0 36.8 7.4 50.2 20.8 4.6 4.6 4.6 12 0 16.6-2.4 2.2-5.4 3.4-8.4 3.4z" fill="#4C4372" /><path d="M512 305.4m-24.4 0a24.4 24.4 0 1 0 48.8 0 24.4 24.4 0 1 0-48.8 0Z" fill="#4C4372" /><path d="M672 801H352c-6.4 0-11.8-5.2-11.8-11.8 0-6.4 5.2-11.8 11.8-11.8h320c6.4 0 11.8 5.2 11.8 11.8 0 6.4-5.4 11.8-11.8 11.8z" fill="#4C4372" /><path d="M672 858.4H352c-6.4 0-11.8-5.2-11.8-11.8 0-6.4 5.2-11.8 11.8-11.8h320c6.4 0 11.8 5.2 11.8 11.8 0 6.4-5.4 11.8-11.8 11.8z" fill="#4C4372" /><path d="M672 915.8H352c-6.4 0-11.8-5.2-11.8-11.8 0-6.4 5.2-11.8 11.8-11.8h320c6.4 0 11.8 5.2 11.8 11.8 0 6.4-5.4 11.8-11.8 11.8z" fill="#4C4372" /><path d="M935.6 394H88.4C46 394 11.8 428.4 11.8 470.8V746c0 42.4 34.4 76.8 76.8 76.8H240v-86.4h542.2v86.4h153.4c42.4 0 76.8-34.4 76.8-76.8V470.8c-0.2-42.4-34.4-76.8-76.8-76.8z" fill="#D3E6F8" /><path d="M11.8 470.8v53h1000.6v-53c0-42.4-34.4-76.8-76.8-76.8H88.4C46 394 11.8 428.4 11.8 470.8z" fill="#A4CFF2" /><path d="M924.4 822.6h8.6c43.8 0 79.4-35.6 79.4-79.4V473.4c0-43.8-35.6-79.4-79.4-79.4h-8.6v428.6z" fill="#A4CFF2" /><path d="M1012.2 524h-88v-121.6h19.2c38 0 68.6 30.8 68.6 68.6V524z" fill="#7BABF1" /><path d="M574.8 608.4h-125.6c-18.6 0-33.6-15-33.6-33.6v-51h192.6v51c0.2 18.6-14.8 33.6-33.4 33.6z" fill="#FD919E" /><path d="M1012.2 535.6H11.8c-6.4 0-11.8-5.2-11.8-11.8s5.2-11.8 11.8-11.8h1000.6c6.4 0 11.8 5.2 11.8 11.8s-5.4 11.8-12 11.8z" fill="#4C4372" /><path d="M935.6 834.4h-153.4c-6.4 0-11.8-5.2-11.8-11.8V748H251.6v74.8c0 6.4-5.2 11.8-11.8 11.8H88.4C39.6 834.4 0 794.6 0 746V470.8c0-48.8 39.6-88.4 88.4-88.4h847c48.8 0 88.4 39.6 88.4 88.4V746c0.2 48.6-39.4 88.4-88.2 88.4z m-141.8-23.4h141.6c35.8 0 65-29.2 65-65V470.8c0-35.8-29.2-65-65-65H88.4c-35.8 0-65 29.2-65 65V746c0 35.8 29.2 65 65 65h139.8v-74.8c0-6.4 5.2-11.8 11.8-11.8h542.2c6.4 0 11.8 5.2 11.8 11.8v74.8z" fill="#4C4372" /><path d="M554 608.4h28.2c15.2 0 27.4-12.2 27.4-27.4v-64H554v91.4z" fill="#E8677D" /><path d="M574.8 620h-125.6c-25 0-45.2-20.4-45.2-45.2v-51c0-6.4 5.2-11.8 11.8-11.8h192.6c6.4 0 11.8 5.2 11.8 11.8v51c-0.2 25-20.4 45.2-45.4 45.2z m-147.4-84.4v39.2c0 12 9.8 21.8 21.8 21.8h125.6c12 0 21.8-9.8 21.8-21.8v-39.2h-169.2z" fill="#4C4372" /></svg>