<svg id="svg" version="1.1" xmlns="http://www.w3.org/2000/svg" xmlns:xlink="http://www.w3.org/1999/xlink" width="400" height="400" viewBox="0, 0, 400,400"><g id="svgg"><path id="path0" d="M194.400 168.448 C 194.400 168.667,194.239 168.748,194.042 168.626 C 193.845 168.504,193.581 168.674,193.454 169.002 C 193.328 169.331,192.954 169.600,192.622 169.600 C 192.290 169.600,191.712 170.095,191.337 170.700 C 190.963 171.305,190.377 172.030,190.036 172.311 C 189.524 172.734,189.390 174.233,189.263 180.999 L 189.108 189.176 140.654 189.339 C 83.768 189.530,90.038 189.414,89.322 190.290 C 89.002 190.680,88.855 190.775,88.994 190.500 C 89.133 190.225,89.063 190.000,88.838 190.000 C 88.347 190.000,87.541 191.407,87.631 192.105 C 87.792 193.358,87.514 193.563,85.500 193.679 L 83.400 193.800 83.280 195.880 L 83.160 197.960 81.080 198.080 L 79.000 198.200 78.880 200.059 C 78.752 202.041,78.322 202.382,75.943 202.395 C 74.659 202.401,74.477 202.997,74.430 207.341 C 74.391 210.929,74.293 211.200,73.038 211.200 C 70.687 211.200,70.609 211.655,70.501 226.032 L 70.402 239.180 71.637 239.819 C 72.316 240.170,73.120 240.363,73.423 240.246 C 74.152 239.967,74.480 240.563,74.480 242.168 C 74.480 244.595,74.469 244.592,82.597 244.688 C 91.693 244.796,91.482 244.912,91.711 239.694 C 91.725 239.382,92.024 239.281,92.495 239.430 C 93.290 239.682,94.805 238.633,94.794 237.838 C 94.791 237.597,94.613 237.670,94.400 238.000 C 94.163 238.367,94.010 238.414,94.006 238.120 C 94.003 237.856,94.315 237.464,94.700 237.248 C 95.335 236.893,95.412 235.833,95.533 225.828 L 95.667 214.800 97.606 214.800 C 99.490 214.800,100.199 214.241,99.966 212.941 C 99.933 212.754,99.927 212.195,99.953 211.700 L 100.000 210.800 200.000 210.800 L 300.000 210.800 300.047 211.700 C 300.073 212.195,300.063 212.838,300.023 213.130 C 299.883 214.161,300.889 214.800,302.649 214.800 L 304.400 214.800 304.456 223.500 C 304.487 228.285,304.469 232.896,304.417 233.748 C 304.365 234.599,304.474 235.202,304.661 235.088 C 304.847 234.973,305.008 235.572,305.019 236.419 C 305.042 238.298,306.184 239.741,307.405 239.434 C 308.147 239.248,308.256 239.417,308.342 240.875 C 308.396 241.784,308.617 242.859,308.834 243.264 C 309.051 243.669,309.087 244.015,308.914 244.034 C 308.741 244.053,309.140 244.235,309.800 244.438 C 310.460 244.641,314.107 244.790,317.904 244.770 C 325.615 244.728,325.600 244.734,325.600 241.826 C 325.600 241.042,325.735 240.388,325.900 240.372 C 329.720 240.022,329.572 240.574,329.554 226.700 C 329.544 219.537,329.388 214.800,329.161 214.800 C 328.954 214.800,328.894 214.366,329.027 213.835 C 329.332 212.620,328.023 211.200,326.600 211.200 C 325.610 211.200,325.600 211.165,325.595 207.700 C 325.587 203.108,325.382 202.401,324.053 202.395 C 321.678 202.382,321.248 202.040,321.120 200.059 L 321.000 198.200 319.100 198.078 C 317.291 197.962,317.200 197.900,317.200 196.778 C 317.200 194.072,316.782 193.600,314.386 193.600 C 312.506 193.600,312.400 193.544,312.400 192.544 C 312.400 191.963,312.085 191.230,311.700 190.914 C 311.272 190.563,311.233 190.453,311.600 190.629 C 312.078 190.859,312.102 190.811,311.715 190.394 C 310.794 189.399,303.345 189.239,257.100 189.219 L 210.800 189.200 210.750 181.600 C 210.722 177.420,210.655 173.820,210.600 173.600 C 210.545 173.380,210.478 173.009,210.450 172.776 C 210.423 172.543,210.250 172.446,210.066 172.559 C 209.882 172.673,209.432 172.138,209.067 171.371 C 208.701 170.603,208.086 169.862,207.701 169.724 C 207.315 169.585,206.688 169.152,206.307 168.760 C 205.514 167.945,194.400 167.654,194.400 168.448 " stroke="none" fill="#cd4c49" fill-rule="evenodd"></path><path id="path1" d="M113.084 32.800 C 113.520 34.468,116.370 36.000,119.036 36.000 C 119.760 36.000,120.464 36.180,120.600 36.400 C 120.943 36.954,279.600 36.954,279.600 36.400 C 279.600 36.180,280.316 36.000,281.192 36.000 C 283.488 36.000,285.923 34.909,286.615 33.570 C 287.447 31.961,287.376 31.896,285.700 32.729 C 281.765 34.684,285.604 34.600,200.200 34.600 C 114.918 34.600,119.114 34.690,114.546 32.765 C 112.955 32.094,112.900 32.096,113.084 32.800 M133.000 67.866 C 128.006 68.983,128.022 68.923,128.010 87.076 C 128.004 94.818,127.841 101.251,127.648 101.370 C 127.454 101.490,127.198 101.996,127.079 102.494 C 126.960 102.992,126.592 104.479,126.261 105.797 C 125.511 108.789,125.504 108.784,127.758 106.713 C 129.553 105.065,131.200 101.804,131.200 99.900 C 131.200 98.950,131.979 97.616,133.200 96.472 L 134.200 95.536 147.400 95.830 C 165.058 96.224,236.011 96.212,252.827 95.812 L 266.254 95.493 267.468 96.966 C 268.194 97.847,268.893 99.354,269.207 100.719 C 269.908 103.756,270.401 104.674,272.461 106.771 C 274.620 108.969,274.776 108.486,273.354 103.988 C 272.287 100.613,272.283 100.544,272.125 85.613 C 271.951 69.122,272.079 69.929,269.401 68.459 C 268.255 67.830,135.736 67.254,133.000 67.866 M43.300 290.670 L 42.400 291.298 42.400 317.222 L 42.400 343.146 43.562 343.973 C 44.720 344.797,44.874 344.800,89.427 344.800 L 134.130 344.800 135.887 343.770 L 137.644 342.741 137.522 317.332 L 137.400 291.924 136.200 290.964 L 135.000 290.004 89.600 290.023 C 49.020 290.040,44.104 290.109,43.300 290.670 M264.522 290.574 C 264.260 290.874,263.810 291.197,263.522 291.292 C 262.555 291.614,262.529 342.301,263.496 343.148 C 265.440 344.850,263.999 344.800,310.833 344.800 C 355.528 344.800,355.680 344.797,356.838 343.973 L 358.000 343.146 358.000 317.388 L 358.000 291.631 357.125 290.816 C 355.996 289.764,265.441 289.528,264.522 290.574 M134.633 292.500 C 134.812 292.995,135.021 304.510,135.097 318.088 L 135.234 342.776 134.317 342.998 C 133.813 343.120,113.330 343.170,88.800 343.110 L 44.200 343.000 44.081 319.800 C 44.015 307.040,44.074 295.475,44.212 294.100 L 44.464 291.600 89.385 291.600 L 134.307 291.600 134.633 292.500 M356.000 317.402 L 356.000 343.203 310.700 343.102 L 265.400 343.000 265.278 321.000 C 265.211 308.900,265.273 297.335,265.416 295.300 L 265.675 291.600 310.837 291.600 L 356.000 291.600 356.000 317.402 M0.000 384.000 L 0.000 400.000 92.406 400.000 L 184.813 400.000 184.789 386.400 C 184.771 376.061,184.650 372.799,184.283 372.794 C 183.968 372.790,183.944 372.685,184.213 372.494 C 184.584 372.230,184.670 371.541,184.400 371.000 C 184.285 370.769,184.122 370.150,184.050 369.664 C 184.023 369.480,183.539 369.118,182.975 368.861 C 182.381 368.591,182.054 368.564,182.198 368.797 C 182.335 369.019,182.156 369.200,181.800 369.200 C 181.386 369.200,181.263 369.380,181.459 369.700 C 181.627 369.975,181.174 369.705,180.452 369.100 C 179.159 368.017,179.052 368.000,173.657 368.000 L 168.175 368.000 167.640 369.811 C 167.074 371.728,165.400 373.629,163.901 374.058 C 162.202 374.544,18.650 374.444,16.330 373.955 C 13.935 373.450,11.988 371.730,11.132 369.364 L 10.639 368.000 5.320 368.000 L 0.000 368.000 0.000 384.000 M220.089 368.623 C 219.591 368.972,219.200 369.060,219.200 368.823 C 219.200 368.590,219.009 368.400,218.776 368.400 C 218.543 368.400,218.472 368.592,218.617 368.827 C 218.763 369.063,218.495 369.355,218.018 369.479 C 217.517 369.610,217.240 369.926,217.357 370.232 C 217.479 370.550,217.350 370.679,217.032 370.557 C 216.726 370.440,216.410 370.717,216.279 371.218 C 216.155 371.695,215.863 371.963,215.627 371.817 C 215.367 371.656,215.200 371.953,215.200 372.576 C 215.200 373.139,215.374 373.600,215.587 373.600 C 215.802 373.600,215.847 373.944,215.687 374.374 C 215.529 374.800,215.450 380.740,215.511 387.574 L 215.622 400.000 307.811 400.000 L 400.000 400.000 400.000 384.000 L 400.000 368.000 394.600 368.000 C 389.897 368.000,389.200 368.083,389.200 368.646 C 389.200 370.924,386.554 373.440,383.560 374.008 C 379.137 374.846,237.643 374.493,235.762 373.638 C 234.086 372.878,232.687 371.101,232.188 369.100 L 231.913 368.000 226.446 368.000 C 222.144 368.000,220.788 368.133,220.089 368.623 M216.946 368.868 C 216.056 369.298,214.944 371.200,215.582 371.200 C 215.782 371.200,216.057 370.849,216.194 370.420 C 216.330 369.992,216.792 369.530,217.220 369.394 C 217.649 369.257,218.000 368.978,218.000 368.773 C 218.000 368.339,218.047 368.335,216.946 368.868 M183.600 369.800 C 183.944 370.215,183.959 370.400,183.649 370.400 C 183.402 370.400,183.082 370.445,182.938 370.500 C 182.794 370.555,182.630 370.285,182.574 369.900 C 182.448 369.042,182.931 368.994,183.600 369.800 " stroke="none" fill="#4c5c73" fill-rule="evenodd"></path><path id="path2" d="M96.275 32.300 C 96.180 32.465,95.978 33.455,95.826 34.500 C 95.552 36.395,95.547 36.400,93.990 36.400 C 91.505 36.400,91.600 35.118,91.600 68.494 C 91.600 101.906,91.450 100.000,94.080 100.000 C 95.556 100.000,95.600 100.041,95.600 101.426 C 95.600 103.756,96.166 104.400,98.214 104.400 L 100.000 104.400 100.000 105.920 C 100.000 108.450,99.730 108.400,113.265 108.400 L 125.569 108.400 125.991 106.700 C 126.749 103.645,127.333 101.807,127.670 101.420 C 127.851 101.211,128.004 94.731,128.010 87.020 C 128.021 69.905,128.058 69.692,131.200 68.383 C 133.470 67.438,267.674 67.511,269.401 68.459 C 272.095 69.938,271.971 69.146,272.031 85.219 C 272.083 99.317,272.116 99.893,273.012 102.600 C 273.522 104.140,274.063 106.075,274.214 106.900 L 274.489 108.400 287.002 108.400 C 300.828 108.400,300.000 108.566,300.000 105.788 C 300.000 104.446,300.007 104.441,302.100 104.321 L 304.200 104.200 304.321 102.100 C 304.441 100.007,304.446 100.000,305.788 100.000 C 308.637 100.000,308.400 102.847,308.400 68.586 C 308.400 34.279,308.573 36.400,305.771 36.400 C 304.466 36.400,304.400 36.331,304.400 34.974 C 304.400 31.951,304.547 32.000,295.434 32.000 L 287.297 32.000 286.779 33.251 C 286.147 34.776,283.742 35.979,281.300 35.991 C 280.365 35.996,279.600 36.180,279.600 36.400 C 279.600 36.954,120.943 36.954,120.600 36.400 C 120.464 36.180,119.760 36.000,119.036 36.000 C 116.347 36.000,113.844 34.679,113.164 32.900 C 112.814 31.984,96.784 31.415,96.275 32.300 M93.877 238.019 C 93.491 238.469,93.287 239.018,93.424 239.238 C 93.812 239.867,94.792 238.844,94.508 238.105 C 94.346 237.683,94.422 237.566,94.732 237.758 C 94.989 237.917,95.200 237.857,95.200 237.624 C 95.200 236.958,94.642 237.125,93.877 238.019 M44.212 294.100 C 44.074 295.475,44.015 307.040,44.081 319.800 L 44.200 343.000 88.800 343.110 C 113.330 343.170,133.813 343.120,134.317 342.998 L 135.234 342.776 135.097 318.088 C 135.021 304.510,134.812 292.995,134.633 292.500 L 134.307 291.600 89.385 291.600 L 44.464 291.600 44.212 294.100 M265.416 295.300 C 265.273 297.335,265.211 308.900,265.278 321.000 L 265.400 343.000 310.700 343.102 L 356.000 343.203 356.000 317.402 L 356.000 291.600 310.837 291.600 L 265.675 291.600 265.416 295.300 M180.400 369.000 C 181.383 370.047,181.838 370.308,181.376 369.562 C 181.208 369.289,181.388 369.178,181.853 369.267 C 182.264 369.346,182.600 369.633,182.600 369.905 C 182.600 370.177,182.735 370.400,182.900 370.400 C 183.065 370.400,183.425 370.394,183.700 370.387 C 183.975 370.379,183.775 370.019,183.256 369.587 C 182.736 369.154,182.498 368.800,182.727 368.800 C 183.553 368.800,184.452 370.055,184.009 370.589 C 183.712 370.947,183.742 371.220,184.112 371.527 C 184.519 371.864,184.653 371.691,184.726 370.733 C 184.865 368.919,184.167 368.301,182.331 368.612 C 181.336 368.780,180.800 368.718,180.800 368.435 C 180.800 368.196,180.499 368.000,180.130 368.000 C 179.576 368.000,179.622 368.172,180.400 369.000 M219.200 368.649 C 219.200 369.180,219.309 369.208,219.800 368.800 C 220.130 368.526,220.400 368.234,220.400 368.151 C 220.400 368.068,220.130 368.000,219.800 368.000 C 219.470 368.000,219.200 368.292,219.200 368.649 M215.680 368.880 C 215.416 369.144,215.212 369.729,215.227 370.180 C 215.254 370.985,215.262 370.984,215.669 370.142 C 215.898 369.671,216.471 369.098,216.942 368.869 C 217.784 368.462,217.785 368.454,216.980 368.427 C 216.529 368.412,215.944 368.616,215.680 368.880 M217.346 369.268 C 216.459 369.697,215.397 371.530,215.801 371.934 C 215.928 372.061,216.138 371.758,216.268 371.260 C 216.408 370.727,216.722 370.438,217.032 370.557 C 217.367 370.685,217.478 370.548,217.337 370.180 C 217.202 369.827,217.357 369.600,217.734 369.600 C 218.074 369.600,218.464 369.420,218.600 369.200 C 218.907 368.704,218.461 368.728,217.346 369.268 M184.283 372.659 C 184.646 372.806,184.771 376.195,184.789 386.301 C 184.802 393.696,184.900 399.833,185.007 399.940 C 185.113 400.046,185.200 393.893,185.200 386.267 C 185.200 373.315,185.154 372.402,184.500 372.432 C 184.111 372.449,184.015 372.550,184.283 372.659 M215.067 373.867 C 214.610 374.323,214.751 400.000,215.209 400.000 C 215.481 400.000,215.609 395.679,215.589 387.195 C 215.572 380.152,215.669 374.212,215.803 373.995 C 216.076 373.554,215.483 373.450,215.067 373.867 " stroke="none" fill="#2d3d4d" fill-rule="evenodd"></path><path id="path3" d="M113.600 32.351 C 113.930 32.557,115.460 33.148,117.000 33.663 L 119.800 34.600 200.200 34.600 C 287.652 34.600,282.411 34.724,286.000 32.571 C 286.930 32.014,286.817 31.994,284.400 32.286 C 281.016 32.695,119.471 32.697,115.800 32.288 C 114.026 32.091,113.220 32.114,113.600 32.351 M133.200 96.472 C 131.979 97.616,131.200 98.950,131.200 99.900 C 131.200 101.825,129.552 105.066,127.712 106.761 L 125.800 108.521 127.795 108.299 C 130.079 108.045,131.556 106.669,132.321 104.086 C 132.563 103.269,132.995 101.790,133.281 100.800 L 133.800 99.000 144.636 98.894 C 153.630 98.805,155.721 98.891,156.936 99.399 L 158.400 100.011 158.413 110.705 C 158.427 122.366,158.399 122.222,160.800 123.219 C 163.390 124.294,238.146 124.067,240.000 122.978 L 241.400 122.156 241.506 111.152 L 241.612 100.148 243.141 99.474 C 244.450 98.897,246.206 98.800,255.390 98.800 C 267.125 98.800,267.149 98.805,267.193 101.200 C 267.212 102.216,268.119 105.128,268.832 106.459 C 269.367 107.459,271.296 108.400,272.811 108.400 L 274.062 108.400 272.392 106.700 C 270.403 104.675,269.904 103.738,269.207 100.719 C 268.893 99.354,268.194 97.847,267.468 96.966 L 266.254 95.493 252.827 95.812 C 236.011 96.212,165.058 96.224,147.400 95.830 L 134.200 95.536 133.200 96.472 M43.123 288.279 C 42.531 288.372,41.316 289.158,40.423 290.024 L 38.800 291.599 38.800 317.383 L 38.800 343.168 39.900 344.208 C 42.340 346.515,39.741 346.400,89.645 346.400 C 134.153 346.400,135.655 346.376,137.634 345.624 C 141.021 344.337,140.773 346.572,140.787 317.170 L 140.800 290.939 139.900 290.120 C 137.686 288.103,140.189 288.203,90.600 288.154 C 65.080 288.129,43.715 288.185,43.123 288.279 M264.600 288.271 C 262.670 288.530,261.066 289.282,260.100 290.378 L 259.201 291.400 259.200 317.275 L 259.200 343.150 260.300 344.220 C 262.610 346.467,260.776 346.387,310.440 346.394 C 360.056 346.400,357.930 346.496,360.281 344.146 L 361.600 342.827 361.600 317.297 L 361.600 291.767 359.783 289.983 L 357.966 288.200 311.883 288.155 C 286.537 288.130,265.260 288.183,264.600 288.271 M136.200 290.964 L 137.400 291.924 137.522 317.332 L 137.644 342.741 135.887 343.770 L 134.130 344.800 89.427 344.800 C 44.874 344.800,44.720 344.797,43.562 343.973 L 42.400 343.146 42.400 317.222 L 42.400 291.298 43.300 290.670 C 44.104 290.109,49.020 290.040,89.600 290.023 L 135.000 290.004 136.200 290.964 M357.125 290.816 L 358.000 291.631 358.000 317.388 L 358.000 343.146 356.838 343.973 C 355.680 344.797,355.528 344.800,310.833 344.800 C 263.999 344.800,265.440 344.850,263.496 343.148 C 262.529 342.301,262.555 291.614,263.522 291.292 C 263.810 291.197,264.260 290.874,264.522 290.574 C 265.441 289.528,355.996 289.764,357.125 290.816 M10.801 368.700 C 10.811 370.527,13.872 373.420,16.360 373.954 C 18.646 374.444,162.198 374.545,163.901 374.058 C 165.256 373.670,166.933 371.904,167.537 370.229 C 168.212 368.356,168.008 368.159,166.337 369.071 C 164.300 370.182,16.122 370.211,13.086 369.100 C 10.916 368.306,10.799 368.286,10.801 368.700 M232.219 369.300 C 232.806 371.240,234.177 372.919,235.762 373.638 C 237.643 374.493,379.137 374.846,383.560 374.008 C 386.123 373.522,387.307 372.681,388.471 370.521 C 389.596 368.434,389.387 368.207,387.162 369.096 C 384.206 370.277,237.396 370.381,234.410 369.204 C 231.879 368.206,231.887 368.206,232.219 369.300 " stroke="none" fill="#acb4bc" fill-rule="evenodd"></path><path id="path4" d="M112.800 15.936 L 112.800 31.872 116.577 32.336 C 122.017 33.004,278.630 32.997,283.655 32.328 L 287.200 31.856 287.200 15.928 L 287.200 0.000 200.000 0.000 L 112.800 0.000 112.800 15.936 M133.650 99.507 C 133.441 99.896,133.140 100.931,132.981 101.807 C 132.222 105.968,130.513 108.030,127.588 108.311 L 125.567 108.505 125.621 131.261 C 125.666 150.612,125.762 154.105,126.258 154.600 C 127.067 155.410,271.596 155.510,271.606 154.701 C 271.610 154.391,271.724 154.352,271.906 154.600 C 272.423 155.304,273.546 155.249,273.946 154.501 C 274.182 154.060,274.353 144.875,274.382 131.088 L 274.430 108.400 272.995 108.400 C 271.318 108.400,269.389 107.501,268.832 106.459 C 268.119 105.128,267.212 102.216,267.193 101.200 C 267.149 98.805,267.125 98.800,255.390 98.800 C 246.206 98.800,244.450 98.897,243.141 99.474 L 241.612 100.148 241.506 111.152 L 241.400 122.156 240.000 122.978 C 238.146 124.067,163.390 124.294,160.800 123.219 C 158.399 122.222,158.427 122.366,158.413 110.705 L 158.400 100.011 156.951 99.405 C 154.606 98.426,134.181 98.515,133.650 99.507 M19.375 258.557 C 19.243 259.083,19.170 259.848,19.214 260.257 C 19.368 261.716,19.202 261.853,17.396 261.758 C 16.286 261.699,15.686 261.815,15.836 262.058 C 15.970 262.276,15.837 262.408,15.540 262.353 C 14.243 262.112,11.989 263.554,11.744 264.782 C 11.610 265.452,11.345 266.000,11.156 266.000 C 10.966 266.000,10.808 288.875,10.803 317.162 L 10.794 368.324 13.097 369.062 C 16.748 370.232,163.716 370.210,166.313 369.039 L 168.000 368.279 167.994 316.639 C 167.988 267.419,167.903 263.519,166.845 264.172 C 166.600 264.324,166.400 264.257,166.400 264.024 C 166.400 263.791,166.670 263.600,167.000 263.600 C 167.330 263.600,167.600 263.426,167.600 263.214 C 167.600 262.614,166.182 262.000,164.797 262.000 C 163.835 262.000,163.201 261.620,162.085 260.378 C 160.898 259.056,160.442 258.799,159.615 258.990 C 158.924 259.150,158.776 259.107,159.151 258.857 C 159.454 258.655,159.573 258.281,159.416 258.025 C 159.202 257.679,158.966 257.693,158.488 258.081 C 158.008 258.469,157.922 258.474,158.147 258.100 C 158.386 257.702,144.557 257.602,89.655 257.607 C 35.479 257.612,20.820 257.718,20.663 258.106 C 20.506 258.493,20.456 258.492,20.432 258.100 C 20.377 257.233,19.626 257.558,19.375 258.557 M240.600 258.000 C 240.252 258.563,240.767 259.268,241.289 258.945 C 241.546 258.786,241.609 258.862,241.443 259.130 C 241.236 259.465,240.955 259.455,240.370 259.092 C 239.669 258.657,239.395 258.797,238.005 260.300 C 236.757 261.649,236.155 262.000,235.093 262.000 C 231.913 262.000,232.213 256.620,232.094 315.712 L 231.988 368.288 234.094 369.120 L 236.200 369.952 310.800 369.876 C 382.278 369.803,385.480 369.769,387.303 369.061 L 389.206 368.323 389.197 317.141 C 389.191 283.641,389.052 266.044,388.794 266.204 C 388.577 266.338,388.400 266.065,388.400 265.597 C 388.400 263.949,386.240 262.049,384.700 262.343 C 384.535 262.374,384.400 262.234,384.400 262.031 C 384.400 261.829,383.590 261.706,382.600 261.758 C 380.766 261.855,380.655 261.755,380.726 260.087 C 380.747 259.585,380.605 259.273,380.410 259.394 C 380.215 259.514,379.939 259.426,379.798 259.197 C 379.656 258.968,379.689 258.830,379.870 258.890 C 380.212 259.004,380.400 258.689,380.400 258.000 C 380.400 257.419,378.504 257.508,378.265 258.100 C 378.104 258.499,378.057 258.498,378.032 258.098 C 377.991 257.455,242.800 257.362,242.800 258.004 C 242.800 258.222,242.609 258.400,242.376 258.400 C 242.143 258.400,242.064 258.220,242.200 258.000 C 242.336 257.780,242.087 257.600,241.647 257.600 C 241.207 257.600,240.736 257.780,240.600 258.000 M233.340 264.613 C 233.085 265.276,232.400 265.412,232.400 264.800 C 232.400 264.580,232.591 264.400,232.824 264.400 C 233.057 264.400,233.119 264.192,232.962 263.938 C 232.789 263.659,232.852 263.585,233.121 263.751 C 233.365 263.902,233.464 264.290,233.340 264.613 M138.000 288.750 C 138.550 289.052,139.405 289.669,139.900 290.120 L 140.800 290.939 140.787 317.170 C 140.773 346.572,141.021 344.337,137.634 345.624 C 135.655 346.376,134.153 346.400,89.645 346.400 C 39.741 346.400,42.340 346.515,39.900 344.208 L 38.800 343.168 38.800 317.383 L 38.800 291.599 40.423 290.024 C 41.316 289.158,42.531 288.372,43.123 288.279 C 46.331 287.772,137.042 288.223,138.000 288.750 M359.783 289.983 L 361.600 291.767 361.600 317.297 L 361.600 342.827 360.281 344.146 C 357.930 346.496,360.056 346.400,310.440 346.394 C 260.776 346.387,262.610 346.467,260.300 344.220 L 259.200 343.150 259.200 317.275 L 259.201 291.400 260.100 290.378 C 261.066 289.282,262.670 288.530,264.600 288.271 C 265.260 288.183,286.537 288.130,311.883 288.155 L 357.966 288.200 359.783 289.983 " stroke="none" fill="#e3ebeb" fill-rule="evenodd"></path></g></svg>