<svg id="svg" version="1.1" xmlns="http://www.w3.org/2000/svg" xmlns:xlink="http://www.w3.org/1999/xlink" width="400" height="400" viewBox="0, 0, 400,400"><g id="svgg"><path id="path0" d="M195.200 27.957 C 195.200 28.154,194.921 28.422,194.579 28.553 C 194.223 28.689,194.063 28.622,194.203 28.395 C 194.337 28.178,194.263 28.000,194.038 28.000 C 193.305 28.000,192.827 29.454,193.068 30.944 L 193.305 32.400 189.952 32.435 C 183.366 32.505,169.388 32.802,168.722 32.886 C 168.178 32.955,168.138 33.087,168.522 33.561 C 168.916 34.046,168.876 34.103,168.300 33.887 C 167.915 33.743,167.600 33.799,167.600 34.013 C 167.600 34.226,167.750 34.400,167.933 34.400 C 168.117 34.400,168.267 34.670,168.267 35.000 C 168.267 35.330,168.113 35.600,167.926 35.600 C 167.738 35.600,167.698 36.050,167.836 36.600 C 168.119 37.727,168.726 37.613,161.836 37.732 L 157.872 37.800 157.749 39.777 C 157.579 42.516,157.490 42.640,155.745 42.569 C 154.895 42.535,153.975 42.685,153.700 42.902 C 153.368 43.165,153.200 43.161,153.200 42.891 C 153.200 42.625,152.656 42.607,151.617 42.841 C 150.746 43.036,149.621 43.152,149.117 43.098 C 148.457 43.027,148.216 43.196,148.256 43.700 C 148.286 44.085,148.151 44.400,147.956 44.400 C 147.271 44.400,147.607 45.600,148.300 45.632 C 148.718 45.650,148.799 45.744,148.500 45.865 C 148.225 45.976,148.000 46.412,148.000 46.833 C 148.000 47.610,147.955 47.621,144.323 47.730 C 143.128 47.766,142.647 48.743,142.617 51.200 C 142.600 52.563,142.557 52.600,141.000 52.606 C 138.295 52.617,137.735 52.992,137.800 54.750 C 137.900 57.428,137.553 57.848,135.280 57.802 C 133.125 57.757,132.282 58.905,132.515 61.564 C 132.606 62.594,130.967 63.398,129.499 63.044 C 129.072 62.940,128.903 63.042,129.065 63.305 C 129.237 63.583,129.079 63.639,128.621 63.463 C 128.093 63.261,127.971 63.346,128.143 63.795 C 128.271 64.128,128.201 64.400,127.987 64.400 C 127.774 64.400,127.600 64.670,127.600 65.000 C 127.600 65.330,127.856 65.600,128.169 65.600 C 128.648 65.600,128.637 65.804,128.101 66.877 C 127.626 67.830,127.588 68.196,127.949 68.316 C 128.319 68.440,128.323 68.610,127.968 69.039 C 127.607 69.474,127.625 69.601,128.051 69.606 C 128.505 69.611,128.507 69.671,128.066 69.951 C 127.772 70.137,127.547 70.404,127.566 70.545 C 127.802 72.307,127.575 72.640,126.100 72.696 C 122.539 72.831,122.805 72.362,122.701 78.700 L 122.633 82.800 121.417 82.868 C 120.046 82.945,118.754 83.059,118.286 83.143 C 118.113 83.175,118.162 83.556,118.395 83.991 C 118.741 84.636,118.706 84.739,118.209 84.548 C 117.814 84.396,117.600 84.548,117.600 84.981 C 117.600 85.347,117.754 85.552,117.942 85.436 C 118.130 85.320,118.265 85.759,118.242 86.411 C 118.219 87.064,118.108 87.599,117.996 87.599 C 117.884 87.600,117.761 88.609,117.721 89.842 C 117.682 91.075,117.561 92.173,117.452 92.281 C 117.343 92.390,111.347 92.482,104.127 92.486 C 96.907 92.489,90.820 92.602,90.600 92.735 C 89.992 93.103,89.172 93.169,89.380 92.832 C 89.481 92.668,87.277 92.597,84.482 92.673 C 78.494 92.837,78.004 92.882,78.232 93.252 C 78.327 93.406,78.179 93.623,77.902 93.734 C 77.507 93.894,77.509 93.944,77.914 93.968 C 78.305 93.992,78.325 94.193,77.996 94.808 C 77.758 95.253,77.673 95.794,77.807 96.012 C 78.696 97.450,77.702 97.800,72.732 97.800 L 67.856 97.800 67.757 100.151 C 67.703 101.443,67.439 102.703,67.171 102.951 C 66.808 103.285,66.750 103.281,66.943 102.935 C 67.130 102.601,66.612 102.507,65.102 102.602 C 63.946 102.675,63.000 102.766,63.000 102.804 C 63.000 102.843,62.127 102.908,61.060 102.949 C 58.930 103.030,57.799 103.974,58.162 105.370 C 58.433 106.416,57.232 108.387,56.495 108.105 C 56.179 107.983,55.760 108.135,55.566 108.442 C 55.283 108.889,55.211 108.860,55.206 108.300 C 55.203 107.915,54.930 107.600,54.600 107.600 C 54.270 107.600,54.000 107.780,54.000 108.000 C 54.000 108.220,53.784 108.355,53.520 108.300 C 53.193 108.232,53.021 108.968,52.982 110.600 L 52.924 113.000 51.125 113.000 C 48.962 113.000,47.855 113.768,48.176 115.046 C 48.301 115.544,48.251 116.045,48.065 116.160 C 47.518 116.498,47.588 120.050,48.136 119.743 C 48.430 119.578,48.417 119.680,48.100 120.021 C 47.825 120.318,47.600 121.066,47.600 121.684 C 47.600 122.744,47.504 122.806,45.900 122.777 C 42.654 122.720,42.792 122.567,42.734 126.279 C 42.704 128.215,42.625 128.375,41.592 128.602 C 39.701 129.017,37.165 132.794,38.057 133.869 C 38.325 134.191,38.342 134.400,38.101 134.400 C 37.738 134.400,37.672 136.535,37.614 150.151 L 37.600 153.302 36.004 153.047 C 33.779 152.691,32.651 153.783,33.042 155.915 C 33.192 156.732,33.469 157.460,33.657 157.533 C 34.110 157.709,34.102 162.695,33.649 162.867 C 32.957 163.129,32.759 165.391,33.356 166.207 C 33.674 166.643,34.084 166.849,34.267 166.667 C 34.449 166.484,34.284 166.104,33.899 165.823 C 33.515 165.542,33.200 165.169,33.200 164.994 C 33.200 164.819,33.566 165.008,34.014 165.413 C 34.462 165.818,34.728 166.410,34.606 166.729 C 34.427 167.195,34.697 167.265,35.992 167.092 C 36.876 166.973,37.600 167.039,37.600 167.238 C 37.600 167.437,36.835 167.615,35.900 167.634 C 34.965 167.653,32.760 167.701,31.000 167.742 L 27.800 167.816 27.800 169.962 C 27.800 172.425,27.375 172.766,24.500 172.602 C 23.565 172.549,22.800 172.682,22.800 172.897 C 22.800 173.130,22.218 173.180,21.367 173.020 C 19.431 172.657,17.826 173.654,18.166 175.008 C 18.296 175.527,18.207 176.072,17.967 176.221 C 17.727 176.369,17.619 176.830,17.728 177.245 C 17.848 177.704,17.718 178.000,17.396 178.000 C 17.105 178.000,16.791 178.135,16.699 178.300 C 16.607 178.465,16.586 178.375,16.653 178.100 C 16.726 177.802,16.376 177.600,15.787 177.600 C 15.244 177.600,14.800 177.791,14.800 178.024 C 14.800 178.257,14.612 178.331,14.382 178.189 C 13.602 177.707,12.749 178.857,13.009 180.040 C 13.371 181.689,12.662 182.656,10.882 182.940 C 8.934 183.252,7.981 184.284,8.025 186.037 C 8.043 186.787,7.950 188.089,7.816 188.932 C 7.629 190.115,7.691 190.393,8.087 190.155 C 8.503 189.905,8.503 189.967,8.086 190.481 C 7.803 190.830,7.600 191.270,7.633 191.458 C 7.817 192.480,7.469 192.740,5.900 192.755 C 3.450 192.777,2.942 192.880,2.865 193.367 C 2.828 193.605,2.729 195.600,2.645 197.800 C 2.562 200.000,2.472 201.935,2.447 202.100 C 2.421 202.265,1.860 202.400,1.200 202.400 L 0.000 202.400 0.000 230.000 L 0.000 257.600 1.200 257.600 C 1.860 257.600,2.419 257.735,2.443 257.900 C 2.466 258.065,2.551 260.000,2.630 262.200 C 2.810 267.145,2.814 267.169,3.467 266.919 C 3.760 266.807,4.000 266.914,4.000 267.157 C 4.000 267.415,4.751 267.600,5.800 267.600 C 6.790 267.600,7.600 267.780,7.600 268.000 C 7.600 268.788,7.675 269.008,8.134 269.577 C 8.495 270.024,8.488 270.086,8.100 269.853 C 7.763 269.651,7.600 269.829,7.600 270.400 C 7.600 270.971,7.763 271.149,8.100 270.947 C 8.391 270.772,8.349 270.961,8.000 271.398 C 7.456 272.080,7.465 272.125,8.100 271.887 C 8.888 271.592,9.026 272.014,8.360 272.680 C 7.717 273.323,8.310 275.491,9.321 276.200 C 10.294 276.881,11.375 277.006,10.996 276.393 C 10.858 276.170,10.601 276.076,10.426 276.184 C 9.744 276.605,8.654 274.857,9.194 274.208 C 9.495 273.844,9.531 273.600,9.282 273.600 C 9.054 273.600,8.776 273.825,8.665 274.100 C 8.544 274.399,8.450 274.318,8.432 273.900 C 8.414 273.515,8.611 273.200,8.869 273.200 C 9.126 273.200,9.697 272.885,10.137 272.500 C 10.577 272.115,10.812 272.016,10.658 272.280 C 10.398 272.724,11.446 273.602,12.067 273.461 C 12.213 273.427,12.483 273.564,12.667 273.764 C 12.860 273.976,12.790 274.008,12.500 273.841 C 12.225 273.682,12.000 273.743,12.000 273.976 C 12.000 274.209,12.210 274.400,12.467 274.400 C 12.723 274.400,12.819 274.514,12.679 274.654 C 12.539 274.794,12.014 274.642,11.512 274.316 C 10.568 273.704,9.600 273.775,9.600 274.457 C 9.600 274.672,9.768 274.744,9.972 274.617 C 10.177 274.491,10.475 274.598,10.634 274.855 C 10.798 275.120,10.751 275.217,10.528 275.079 C 10.311 274.945,10.133 275.080,10.133 275.379 C 10.133 275.680,10.383 275.828,10.690 275.710 C 10.996 275.593,11.148 275.241,11.028 274.928 C 10.899 274.592,10.983 274.466,11.232 274.620 C 11.464 274.763,11.558 275.133,11.440 275.440 C 11.317 275.760,11.472 276.000,11.800 276.000 C 12.116 276.000,12.286 276.231,12.178 276.514 C 12.069 276.797,12.345 277.419,12.790 277.897 C 13.472 278.629,13.527 278.922,13.141 279.771 C 12.787 280.546,12.799 280.916,13.190 281.388 C 13.771 282.088,14.800 282.208,14.800 281.576 C 14.800 281.343,14.983 281.266,15.207 281.404 C 15.430 281.542,15.509 281.823,15.383 282.028 C 15.256 282.232,15.534 282.400,16.000 282.400 C 16.466 282.400,16.736 282.220,16.600 282.000 C 16.464 281.780,16.543 281.600,16.776 281.600 C 17.009 281.600,17.200 281.799,17.200 282.043 C 17.200 282.286,17.429 282.398,17.709 282.290 C 18.069 282.152,18.218 282.563,18.218 283.690 C 18.218 284.880,18.456 285.478,19.153 286.043 C 20.139 286.841,21.424 287.086,20.996 286.393 C 20.858 286.170,20.601 286.076,20.426 286.184 C 19.744 286.605,18.654 284.857,19.194 284.208 C 19.495 283.844,19.531 283.600,19.282 283.600 C 19.054 283.600,18.776 283.825,18.665 284.100 C 18.527 284.441,18.454 284.409,18.435 284.000 C 18.391 283.072,20.131 282.414,20.983 283.037 C 21.365 283.316,21.912 283.455,22.198 283.345 C 22.893 283.079,23.403 283.957,22.866 284.494 C 22.566 284.794,22.170 284.743,21.521 284.322 C 20.570 283.704,19.600 283.773,19.600 284.457 C 19.600 284.672,19.768 284.744,19.972 284.617 C 20.177 284.491,20.475 284.598,20.634 284.855 C 20.798 285.120,20.751 285.217,20.528 285.079 C 20.311 284.945,20.133 285.080,20.133 285.379 C 20.133 285.680,20.383 285.828,20.690 285.710 C 20.996 285.593,21.148 285.241,21.028 284.928 C 20.899 284.592,20.983 284.466,21.232 284.620 C 21.464 284.763,21.550 285.154,21.422 285.488 C 21.241 285.958,21.416 286.052,22.194 285.903 C 22.747 285.797,23.200 285.866,23.200 286.055 C 23.200 286.245,22.930 286.400,22.600 286.400 C 22.270 286.400,22.000 286.574,22.000 286.787 C 22.000 287.001,22.270 287.071,22.600 286.945 C 22.933 286.817,23.200 286.933,23.200 287.206 C 23.200 287.592,23.329 287.591,23.800 287.200 C 24.215 286.856,24.400 286.841,24.400 287.151 C 24.400 287.408,25.084 287.600,26.000 287.600 C 26.880 287.600,27.625 287.735,27.655 287.900 C 27.686 288.065,27.738 288.958,27.773 289.884 C 27.866 292.407,27.515 292.269,34.024 292.350 C 36.237 292.377,37.952 292.554,37.835 292.743 C 37.719 292.932,37.786 293.655,37.986 294.351 C 38.210 295.132,38.206 295.527,37.974 295.384 C 37.768 295.257,37.600 295.411,37.600 295.727 C 37.600 296.466,38.647 297.342,39.155 297.028 C 39.369 296.895,39.653 296.962,39.785 297.176 C 39.939 297.425,62.241 297.574,101.831 297.591 L 163.637 297.616 163.518 294.908 L 163.400 292.200 105.800 292.000 C 42.003 291.778,45.525 291.935,44.625 289.286 C 43.987 287.407,43.635 287.224,40.182 286.966 C 34.937 286.573,33.838 285.952,33.517 283.200 C 33.411 282.295,33.178 282.176,31.070 281.950 C 29.788 281.812,28.537 281.497,28.290 281.250 C 28.042 281.002,27.537 280.800,27.166 280.800 C 26.573 280.800,25.038 279.046,25.010 278.336 C 24.988 277.757,22.892 276.463,21.663 276.269 C 19.842 275.982,19.200 275.322,19.200 273.738 C 19.200 272.895,18.971 272.287,18.600 272.145 C 18.270 272.018,18.000 271.709,17.999 271.457 C 17.998 271.206,17.324 270.640,16.500 270.200 C 15.677 269.760,15.055 269.259,15.119 269.086 C 15.183 268.913,14.875 268.313,14.434 267.752 C 13.951 267.139,13.526 265.791,13.364 264.366 C 13.113 262.148,12.989 261.961,11.796 262.008 C 9.529 262.098,8.102 258.601,8.020 252.750 C 8.002 251.459,7.866 251.273,6.777 251.055 C 5.423 250.785,4.791 250.272,3.988 248.792 C 3.426 247.754,3.294 213.238,3.846 211.420 C 4.226 210.167,5.232 209.201,6.162 209.194 C 7.644 209.183,7.907 208.664,8.181 205.200 C 8.613 199.739,9.222 198.641,11.999 198.317 C 12.896 198.212,13.031 197.957,13.327 195.800 C 13.509 194.480,13.824 193.229,14.028 193.020 C 14.233 192.811,14.400 192.347,14.400 191.990 C 14.400 191.225,16.018 189.600,16.780 189.600 C 17.778 189.600,19.200 187.615,19.200 186.223 C 19.200 185.097,19.373 184.845,20.300 184.620 C 22.056 184.194,24.822 182.759,24.595 182.391 C 24.480 182.207,24.559 181.949,24.769 181.819 C 24.979 181.689,25.086 181.244,25.006 180.830 C 24.921 180.388,25.137 179.985,25.530 179.853 C 25.899 179.730,26.920 179.340,27.800 178.987 C 28.680 178.634,30.120 178.257,31.000 178.149 C 33.434 177.850,33.600 177.730,33.600 176.262 C 33.600 174.297,34.399 173.870,38.935 173.410 L 42.970 173.000 43.272 171.600 C 43.437 170.830,43.574 163.810,43.575 156.000 C 43.577 138.518,43.676 138.000,46.986 138.000 C 47.912 138.000,48.000 137.852,48.002 136.300 C 48.009 131.118,49.414 128.000,51.741 128.000 C 52.530 128.000,52.723 127.630,53.357 124.900 C 54.264 120.995,54.991 119.742,56.529 119.434 C 57.189 119.302,58.013 118.791,58.361 118.297 C 59.056 117.313,59.077 117.244,59.150 115.814 C 59.205 114.735,60.217 114.022,62.118 113.723 C 63.408 113.519,64.517 112.644,64.652 111.723 C 64.770 110.924,66.021 109.088,66.276 109.342 C 66.392 109.459,67.374 109.204,68.458 108.777 C 69.543 108.350,71.034 108.000,71.772 108.000 C 73.188 108.000,73.600 107.499,73.600 105.777 C 73.600 104.340,75.005 103.700,78.800 103.409 C 83.242 103.068,83.463 102.986,83.741 101.594 C 83.956 100.522,85.194 99.031,85.913 98.979 C 86.071 98.968,87.280 98.813,88.600 98.635 C 91.432 98.254,118.646 98.236,120.886 98.615 C 123.079 98.985,123.600 98.402,123.600 95.575 C 123.600 94.295,123.780 93.136,124.000 93.000 C 124.220 92.864,124.400 92.401,124.400 91.971 C 124.400 91.102,126.697 89.484,127.500 89.787 C 127.775 89.890,128.006 89.936,128.013 89.887 C 128.020 89.839,128.126 88.090,128.248 86.000 C 128.597 80.053,128.841 79.431,131.100 78.711 L 133.000 78.106 133.317 74.753 C 133.698 70.731,134.431 69.456,136.467 69.280 C 137.902 69.156,138.800 67.792,138.800 65.734 C 138.800 64.601,140.044 63.600,141.451 63.600 C 142.979 63.600,143.600 62.956,143.600 61.369 C 143.600 59.860,144.142 59.340,146.393 58.687 C 147.922 58.244,148.134 58.019,148.737 56.200 C 149.348 54.358,149.527 54.173,151.000 53.861 C 153.385 53.356,153.740 53.079,154.450 51.167 C 155.173 49.222,157.846 48.017,161.465 48.005 C 163.097 48.000,163.135 47.968,163.403 46.384 C 163.774 44.186,164.672 43.736,169.272 43.443 C 174.099 43.136,174.183 43.101,174.758 41.183 C 175.122 39.969,175.478 39.553,176.315 39.371 C 176.912 39.240,177.940 38.960,178.600 38.747 C 180.421 38.161,218.396 38.339,221.400 38.948 C 223.639 39.402,223.854 39.545,224.600 41.074 C 225.576 43.074,226.968 43.600,231.288 43.600 C 234.805 43.600,236.400 44.587,236.400 46.763 C 236.400 47.842,236.552 47.988,237.900 48.200 C 244.394 49.223,245.002 49.565,245.169 52.300 C 245.186 52.575,245.470 52.800,245.800 52.800 C 246.130 52.800,246.400 52.956,246.400 53.147 C 246.400 53.338,247.134 53.593,248.031 53.713 C 250.053 53.985,251.045 54.846,251.378 56.621 C 251.660 58.125,252.266 58.589,254.497 59.007 C 255.815 59.254,256.009 59.447,256.243 60.743 C 256.649 62.996,257.038 63.464,258.985 64.039 C 260.894 64.602,261.032 64.844,262.218 69.700 C 262.366 70.305,262.692 70.800,262.943 70.800 C 264.155 70.801,266.353 73.852,266.626 75.911 C 266.984 78.610,266.088 78.467,281.894 78.354 C 299.237 78.230,301.318 78.507,302.194 81.053 C 302.797 82.809,304.843 83.519,309.600 83.623 C 314.242 83.724,315.378 84.455,315.570 87.465 C 315.587 87.721,316.365 88.057,317.300 88.212 C 321.744 88.950,321.877 89.016,322.269 90.675 C 322.662 92.334,322.878 92.478,326.400 93.424 C 329.873 94.358,330.798 94.964,330.807 96.309 C 330.816 97.715,332.378 99.198,333.856 99.206 C 335.499 99.215,335.906 99.601,336.348 101.568 C 336.788 103.525,337.113 103.830,339.400 104.428 C 340.852 104.807,341.009 104.976,341.102 106.253 C 341.158 107.027,341.366 107.962,341.563 108.330 C 341.760 108.699,342.049 109.855,342.206 110.900 C 342.433 112.414,342.648 112.800,343.265 112.800 C 345.098 112.800,346.293 113.894,346.585 115.838 C 347.040 118.872,348.221 120.425,350.184 120.571 C 350.395 120.587,350.681 121.156,350.820 121.835 C 350.959 122.514,351.185 123.252,351.323 123.476 C 351.461 123.699,351.767 125.927,352.003 128.427 C 352.436 133.025,352.668 133.571,354.200 133.606 C 355.962 133.648,356.423 135.173,356.682 141.810 L 356.925 148.016 357.962 148.244 C 361.236 148.963,363.455 150.349,364.105 152.082 C 364.265 152.508,365.528 153.119,367.468 153.709 C 370.515 154.636,370.582 154.684,370.894 156.187 C 371.212 157.716,372.116 158.763,373.140 158.787 C 374.794 158.826,376.400 160.105,376.400 161.384 C 376.400 162.134,376.694 162.912,377.100 163.238 C 378.187 164.111,379.533 164.800,380.150 164.800 C 380.482 164.800,380.826 165.413,380.991 166.300 C 381.145 167.125,381.412 167.980,381.584 168.200 C 381.755 168.420,382.017 169.275,382.166 170.100 C 382.332 171.022,382.660 171.600,383.018 171.600 C 383.338 171.600,383.600 171.881,383.600 172.224 C 383.600 172.567,383.759 172.749,383.953 172.629 C 384.433 172.332,386.400 173.924,386.400 174.609 C 386.400 177.427,387.297 179.230,389.135 180.109 C 390.161 180.599,390.942 181.090,390.872 181.200 C 390.801 181.310,390.936 181.905,391.171 182.523 C 391.405 183.140,391.694 184.850,391.811 186.323 C 392.360 193.190,392.333 193.087,393.646 193.349 C 396.830 193.986,396.939 195.093,397.232 230.000 C 397.333 242.088,397.374 242.400,398.842 242.400 L 400.000 242.400 400.000 215.225 L 400.000 188.051 398.700 187.889 L 397.400 187.728 398.700 187.664 C 400.433 187.579,400.526 186.400,398.800 186.400 C 398.000 186.400,397.600 186.200,397.600 185.800 C 397.600 185.400,398.000 185.200,398.800 185.200 C 399.600 185.200,400.000 185.000,400.000 184.600 C 400.000 184.200,399.600 184.000,398.800 184.000 C 397.491 184.000,397.542 184.166,397.513 179.800 C 397.506 178.700,397.255 177.319,396.956 176.731 C 396.563 175.959,396.538 175.621,396.869 175.510 C 397.569 175.277,396.918 173.291,396.052 173.016 C 395.641 172.886,394.877 172.943,394.353 173.142 C 393.091 173.622,392.400 172.866,392.400 171.005 C 392.400 168.761,390.363 165.121,388.650 164.304 C 387.685 163.844,387.291 163.428,387.444 163.030 C 387.569 162.704,387.520 162.205,387.335 161.919 C 387.151 161.634,387.000 160.778,387.000 160.017 C 387.000 158.351,385.711 157.469,383.700 157.761 C 382.309 157.963,382.189 157.761,382.364 155.508 C 382.473 154.105,381.866 153.031,380.934 152.978 C 378.649 152.849,378.096 152.686,377.057 151.836 C 376.225 151.156,376.051 150.816,376.418 150.589 C 376.768 150.372,376.824 150.437,376.600 150.800 C 376.386 151.146,376.433 151.227,376.738 151.038 C 377.389 150.636,377.313 148.992,376.618 148.415 C 375.988 147.892,375.040 148.218,375.417 148.828 C 375.806 149.457,375.330 149.240,374.749 148.523 C 374.281 147.947,374.283 147.897,374.762 148.185 C 375.143 148.415,375.232 148.375,375.038 148.062 C 374.881 147.808,374.393 147.600,373.953 147.600 C 373.513 147.600,373.255 147.765,373.379 147.966 C 373.504 148.168,373.071 148.131,372.417 147.884 C 371.735 147.627,371.028 146.951,370.758 146.299 C 370.269 145.119,368.262 143.791,367.593 144.204 C 367.382 144.335,367.311 144.176,367.436 143.851 C 367.766 142.991,366.500 142.513,364.200 142.632 L 362.200 142.734 362.252 135.361 C 362.285 130.661,362.153 127.895,361.890 127.732 C 361.651 127.584,361.597 127.671,361.762 127.938 C 361.919 128.192,361.955 128.400,361.842 128.400 C 361.730 128.400,361.293 127.622,360.873 126.671 C 360.344 125.476,359.720 124.781,358.854 124.422 C 358.078 124.101,357.600 123.616,357.600 123.151 C 357.600 122.738,357.375 122.397,357.100 122.394 C 356.772 122.390,356.745 122.287,357.020 122.094 C 357.541 121.730,357.706 117.713,357.212 117.408 C 357.015 117.285,356.955 116.555,357.080 115.784 C 357.405 113.783,356.404 112.767,354.238 112.900 L 352.600 113.000 352.400 110.403 L 352.200 107.807 350.108 107.778 C 347.519 107.743,347.607 107.842,347.524 104.842 C 347.486 103.476,347.303 102.263,347.116 102.148 C 346.928 102.032,346.891 101.322,347.032 100.569 C 347.238 99.470,347.162 99.200,346.645 99.200 C 346.290 99.200,346.000 99.009,346.000 98.776 C 346.000 98.543,346.208 98.481,346.462 98.638 C 346.757 98.821,346.815 98.747,346.621 98.435 C 346.455 98.166,346.073 98.040,345.772 98.155 C 345.472 98.271,345.119 98.193,344.989 97.983 C 344.535 97.247,342.803 97.531,343.050 98.300 C 343.240 98.891,343.208 98.906,342.844 98.400 C 342.606 98.070,342.409 97.485,342.406 97.100 C 342.403 96.715,342.175 96.397,341.900 96.394 C 341.532 96.389,341.543 96.297,341.943 96.044 C 343.417 95.110,341.518 92.387,339.971 93.216 C 339.440 93.499,339.200 93.499,339.200 93.214 C 339.200 92.986,338.883 92.800,338.496 92.800 C 337.504 92.800,336.772 91.439,337.041 90.094 C 337.413 88.235,336.475 87.808,331.947 87.775 C 327.364 87.742,327.493 87.816,327.493 85.223 C 327.493 84.121,327.356 83.303,327.189 83.407 C 327.021 83.511,326.792 83.357,326.680 83.065 C 326.543 82.708,325.842 82.561,324.538 82.616 C 323.472 82.661,322.240 82.552,321.800 82.374 C 321.054 82.073,321.051 82.049,321.752 82.025 C 322.699 81.993,322.417 79.421,321.357 78.428 C 320.989 78.082,320.813 78.025,320.967 78.300 C 321.121 78.575,321.076 78.800,320.866 78.800 C 320.657 78.800,320.382 78.530,320.255 78.200 C 320.129 77.870,319.559 77.600,318.989 77.600 C 318.337 77.600,318.054 77.763,318.225 78.040 C 318.413 78.344,318.266 78.369,317.748 78.120 C 317.337 77.922,315.920 77.769,314.600 77.780 L 312.200 77.800 311.789 76.235 C 311.031 73.344,309.423 72.817,300.700 72.603 C 297.402 72.522,295.600 72.623,295.600 72.888 C 295.600 73.145,295.414 73.161,295.100 72.930 C 294.825 72.728,289.652 72.514,283.605 72.454 C 277.559 72.393,272.551 72.284,272.477 72.210 C 272.403 72.137,272.343 71.072,272.343 69.844 C 272.343 68.616,272.176 67.509,271.971 67.382 C 271.767 67.256,271.600 66.828,271.600 66.430 C 271.600 65.239,270.056 63.647,268.644 63.382 C 267.508 63.169,267.349 62.999,267.509 62.165 C 267.611 61.632,267.500 60.962,267.264 60.677 C 267.027 60.392,266.933 59.778,267.054 59.313 C 267.349 58.186,266.145 57.562,264.263 57.867 C 262.606 58.136,262.398 57.857,262.217 55.121 C 262.053 52.645,262.057 52.654,261.400 53.200 C 260.992 53.538,260.800 53.556,260.800 53.254 C 260.800 53.009,260.080 52.694,259.200 52.554 C 257.773 52.325,257.600 52.176,257.600 51.172 C 257.600 50.554,257.428 49.941,257.217 49.811 C 257.007 49.681,256.931 49.324,257.048 49.018 C 257.310 48.337,255.895 47.512,255.034 47.842 C 254.691 47.974,253.888 47.900,253.249 47.677 C 252.425 47.390,251.956 47.404,251.633 47.727 C 251.293 48.067,251.293 47.853,251.631 46.884 C 252.561 44.216,251.067 42.537,248.117 42.935 C 247.393 43.032,246.800 42.941,246.800 42.732 C 246.800 42.524,246.617 42.466,246.393 42.604 C 246.170 42.742,246.111 43.068,246.262 43.328 C 246.414 43.587,246.185 43.492,245.754 43.115 C 245.323 42.738,244.617 42.516,244.185 42.620 C 242.876 42.937,242.333 42.245,242.333 40.259 C 242.333 39.240,242.128 38.279,241.878 38.125 C 241.094 37.640,235.602 37.678,235.894 38.166 C 236.037 38.405,235.862 38.364,235.506 38.076 C 235.151 37.787,234.621 37.584,234.330 37.623 C 233.000 37.803,231.969 37.574,232.228 37.155 C 232.379 36.911,232.254 36.551,231.951 36.355 C 231.484 36.054,231.484 35.946,231.949 35.646 C 232.373 35.373,232.403 35.032,232.080 34.146 C 231.851 33.516,231.649 33.236,231.632 33.524 C 231.614 33.812,231.417 33.934,231.193 33.796 C 230.970 33.658,230.863 33.422,230.955 33.272 C 231.048 33.123,230.241 33.000,229.162 33.000 C 228.083 33.000,227.200 32.903,227.200 32.785 C 227.200 32.667,224.005 32.549,220.100 32.524 C 216.195 32.499,211.597 32.461,209.882 32.439 L 206.764 32.400 207.018 31.042 C 207.313 29.471,206.613 27.833,205.782 28.152 C 205.476 28.269,205.119 28.193,204.989 27.983 C 204.690 27.499,195.200 27.474,195.200 27.957 M250.614 43.846 C 251.908 44.694,251.860 45.681,250.497 46.290 C 249.427 46.769,249.420 46.763,250.200 46.077 C 251.073 45.308,251.416 44.400,250.833 44.400 C 250.632 44.400,250.391 44.535,250.299 44.700 C 250.207 44.865,250.194 44.755,250.270 44.455 C 250.360 44.103,250.188 43.996,249.784 44.151 C 249.440 44.283,249.259 44.228,249.382 44.030 C 249.505 43.831,249.379 43.577,249.102 43.466 C 248.707 43.306,248.709 43.256,249.114 43.232 C 249.397 43.214,250.072 43.491,250.614 43.846 M270.748 67.102 C 270.666 67.316,270.181 66.841,269.668 66.046 L 268.737 64.600 269.816 65.657 C 270.410 66.238,270.829 66.889,270.748 67.102 M310.349 74.712 C 310.223 75.546,310.452 76.015,310.862 75.762 C 311.134 75.593,311.216 75.651,311.060 75.903 C 310.764 76.382,309.784 76.333,309.312 75.814 C 309.140 75.626,309.214 75.594,309.476 75.745 C 309.783 75.921,309.930 75.728,309.890 75.199 C 309.856 74.749,309.627 74.458,309.381 74.552 C 309.135 74.646,308.933 74.481,308.933 74.183 C 308.933 73.785,309.124 73.745,309.663 74.034 C 310.064 74.248,310.373 74.554,310.349 74.712 M336.800 89.194 C 336.800 90.108,335.766 90.294,335.691 89.393 C 335.633 88.688,335.771 88.491,336.206 88.658 C 336.533 88.783,336.800 89.024,336.800 89.194 M61.600 103.587 C 61.600 103.801,61.360 103.883,61.067 103.770 C 60.760 103.653,60.533 103.836,60.533 104.200 C 60.533 104.564,60.760 104.747,61.067 104.630 C 61.844 104.331,61.719 104.708,60.894 105.150 C 60.298 105.468,60.181 105.346,60.141 104.364 C 60.105 103.474,60.271 103.200,60.847 103.200 C 61.261 103.200,61.600 103.374,61.600 103.587 M59.316 104.400 C 59.115 105.167,58.400 105.542,58.400 104.880 C 58.400 104.601,59.216 103.600,59.443 103.600 C 59.488 103.600,59.431 103.960,59.316 104.400 M359.481 127.452 C 359.093 127.840,357.600 126.408,357.600 125.647 C 357.600 125.186,357.889 125.307,358.679 126.097 C 359.272 126.690,359.633 127.300,359.481 127.452 M40.864 130.431 C 39.949 131.328,39.200 132.208,39.200 132.388 C 39.200 132.568,38.943 132.813,38.630 132.933 C 37.713 133.285,40.264 129.787,41.282 129.296 C 41.787 129.053,42.274 128.842,42.364 128.827 C 42.454 128.812,41.779 129.534,40.864 130.431 M369.481 147.452 C 369.093 147.840,367.600 146.408,367.600 145.647 C 367.600 145.186,367.889 145.307,368.679 146.097 C 369.272 146.690,369.633 147.300,369.481 147.452 M386.800 159.194 C 386.800 160.108,385.766 160.294,385.691 159.393 C 385.633 158.688,385.771 158.491,386.206 158.658 C 386.533 158.783,386.800 159.024,386.800 159.194 M389.481 167.452 C 389.093 167.840,387.600 166.408,387.600 165.647 C 387.600 165.186,387.889 165.307,388.679 166.097 C 389.272 166.690,389.633 167.300,389.481 167.452 M396.400 173.800 C 396.678 174.135,396.721 174.400,396.498 174.400 C 396.278 174.400,395.874 174.130,395.600 173.800 C 395.322 173.465,395.279 173.200,395.502 173.200 C 395.722 173.200,396.126 173.470,396.400 173.800 M221.670 181.726 C 220.808 182.643,220.800 182.790,220.800 198.064 C 220.800 214.889,220.886 214.253,218.506 214.978 C 216.288 215.654,215.200 217.454,215.200 220.449 C 215.200 225.099,215.312 225.050,203.970 225.317 C 192.599 225.584,189.200 226.356,189.200 228.670 C 189.200 228.961,188.926 229.200,188.591 229.200 C 187.861 229.200,184.400 232.307,184.400 232.963 C 184.400 233.216,184.085 233.650,183.700 233.927 C 183.315 234.204,182.820 234.559,182.600 234.715 C 180.582 236.151,180.608 235.773,180.490 265.400 C 180.371 295.119,180.394 294.793,178.293 296.903 C 177.636 297.564,177.588 299.003,177.607 317.403 L 177.628 337.192 178.514 337.389 C 179.001 337.498,180.120 337.635,181.000 337.693 C 182.577 337.798,182.600 337.823,182.627 339.400 C 182.682 342.736,180.713 342.400,200.200 342.400 L 217.600 342.400 217.600 359.367 C 217.600 368.699,217.709 376.618,217.842 376.965 C 218.212 377.931,341.788 377.931,342.158 376.965 C 342.291 376.618,342.400 368.701,342.400 359.371 L 342.400 342.408 359.900 342.304 L 377.400 342.200 377.519 339.919 L 377.639 337.639 379.919 337.519 L 382.200 337.400 382.302 302.879 C 382.401 269.369,382.381 268.304,381.620 266.479 C 380.346 263.427,380.000 260.315,380.000 251.903 C 380.000 240.254,379.483 236.674,377.527 234.776 C 376.687 233.961,376.000 233.135,376.000 232.941 C 376.000 232.322,372.530 229.200,371.842 229.200 C 371.478 229.200,371.020 228.778,370.823 228.261 C 369.999 226.094,365.210 225.200,354.425 225.200 C 345.414 225.200,345.200 225.094,345.200 220.618 C 345.200 217.510,344.086 215.640,341.828 214.958 C 341.373 214.821,340.595 214.337,340.100 213.884 L 339.200 213.061 339.200 197.619 C 339.200 182.644,339.176 182.157,338.395 181.489 C 337.642 180.844,333.920 180.800,280.065 180.800 L 222.539 180.800 221.670 181.726 M333.720 184.243 C 336.516 185.648,336.381 184.602,336.391 204.972 L 336.400 223.343 334.950 224.672 L 333.499 226.000 280.382 226.000 C 223.969 226.000,224.816 226.026,224.803 224.271 C 224.801 224.091,224.530 223.673,224.200 223.343 C 223.248 222.391,223.309 188.678,224.266 186.468 C 225.579 183.437,221.530 183.644,280.120 183.621 C 327.416 183.602,332.563 183.662,333.720 184.243 M218.706 231.700 C 219.539 232.587,219.554 232.895,219.703 252.600 C 219.869 274.560,219.843 274.318,222.350 277.126 C 223.038 277.896,223.600 278.594,223.600 278.678 C 223.600 278.997,227.291 282.400,227.637 282.400 C 227.837 282.400,228.004 282.625,228.010 282.900 C 228.025 283.653,230.471 284.720,233.290 285.204 C 237.032 285.846,327.290 285.553,329.220 284.893 C 330.599 284.421,333.688 281.986,335.371 280.044 C 335.827 279.518,336.790 278.453,337.511 277.676 C 340.661 274.285,340.568 275.017,340.715 252.445 L 340.847 232.290 341.724 231.558 C 342.526 230.889,343.532 230.826,353.600 230.823 C 365.392 230.819,367.418 231.045,368.480 232.480 C 370.105 234.677,371.437 236.001,372.443 236.418 C 374.181 237.138,374.164 236.729,374.308 281.000 C 374.457 326.930,374.436 327.450,372.439 328.725 C 371.112 329.572,369.572 331.112,368.725 332.439 C 367.690 334.060,364.934 334.400,352.809 334.400 C 339.150 334.400,340.400 335.311,340.400 325.358 C 340.400 316.502,340.305 316.737,344.411 315.444 C 349.009 313.997,350.535 312.106,350.577 307.800 C 350.601 305.265,349.240 301.755,348.000 301.156 C 344.083 299.265,349.239 299.409,281.000 299.289 L 217.800 299.178 215.132 300.029 C 210.301 301.570,208.482 305.694,210.331 310.916 C 211.138 313.196,212.449 314.761,213.573 314.787 C 214.716 314.813,219.012 316.538,219.487 317.161 C 219.829 317.609,219.978 320.032,219.987 325.271 L 220.000 332.742 218.946 333.571 C 217.941 334.362,217.410 334.400,207.446 334.398 C 194.102 334.395,190.923 333.844,190.813 331.518 C 190.796 331.151,188.849 329.204,188.482 329.187 C 188.327 329.179,187.750 328.799,187.200 328.342 L 186.200 327.510 186.093 284.655 C 185.982 239.954,186.054 237.305,187.400 236.612 C 189.105 235.734,190.664 234.316,191.375 232.994 C 191.950 231.927,192.446 231.560,193.559 231.374 C 194.352 231.242,195.180 231.073,195.400 230.999 C 197.567 230.264,217.933 230.877,218.706 231.700 M333.711 231.605 C 335.220 233.367,334.565 273.600,333.027 273.600 C 332.425 273.600,329.200 276.607,329.200 277.169 C 329.200 279.312,331.911 279.200,280.056 279.200 L 232.512 279.200 231.756 278.115 C 230.647 276.524,227.899 273.765,227.160 273.500 C 225.775 273.004,225.300 233.036,226.662 231.531 C 227.753 230.326,332.678 230.398,333.711 231.605 M397.600 243.200 C 397.600 243.420,398.140 243.600,398.800 243.600 C 399.460 243.600,400.000 243.420,400.000 243.200 C 400.000 242.980,399.460 242.800,398.800 242.800 C 398.140 242.800,397.600 242.980,397.600 243.200 M397.600 245.400 C 397.600 245.800,398.000 246.000,398.800 246.000 C 399.600 246.000,400.000 245.800,400.000 245.400 C 400.000 245.000,399.600 244.800,398.800 244.800 C 398.000 244.800,397.600 245.000,397.600 245.400 M388.700 263.784 C 387.684 265.008,387.290 266.000,387.820 266.000 C 388.991 266.000,391.200 263.765,391.200 262.581 C 391.200 261.919,389.614 262.682,388.700 263.784 M334.822 306.222 L 336.200 307.644 336.335 337.875 C 336.486 371.936,336.635 370.157,333.560 371.117 C 331.374 371.799,229.017 371.817,226.742 371.135 C 223.428 370.143,223.530 371.172,223.754 340.799 C 223.987 309.330,224.102 307.368,225.800 305.878 L 227.000 304.825 280.222 304.813 L 333.443 304.800 334.822 306.222 " stroke="none" fill="#6f8fb4" fill-rule="evenodd"></path><path id="path1" d="M188.201 41.899 C 186.606 41.996,185.534 42.289,185.001 42.773 C 183.973 43.706,182.536 44.446,181.009 44.828 C 180.344 44.994,178.756 45.416,177.480 45.765 C 176.205 46.114,174.522 46.400,173.741 46.400 C 172.163 46.400,169.632 47.451,169.333 48.230 C 169.004 49.087,166.278 50.657,164.670 50.914 C 162.954 51.189,160.800 52.053,160.800 52.467 C 160.800 53.192,158.163 55.222,155.532 56.522 C 153.310 57.620,152.413 58.314,151.839 59.379 C 151.369 60.252,150.448 61.093,149.411 61.595 C 148.192 62.185,147.495 62.893,146.835 64.215 C 146.310 65.267,145.187 66.567,144.159 67.314 C 143.071 68.105,142.294 69.024,142.144 69.700 C 142.010 70.305,141.764 70.800,141.599 70.800 C 141.433 70.800,141.086 71.309,140.829 71.930 C 140.571 72.552,139.470 73.980,138.380 75.104 C 137.291 76.228,136.400 77.513,136.400 77.959 C 136.400 79.531,134.732 83.014,133.410 84.203 C 132.050 85.427,130.800 89.529,130.800 92.772 C 130.800 94.278,129.120 98.146,127.661 100.000 C 127.055 100.770,126.167 102.044,125.689 102.831 C 124.056 105.520,119.082 105.524,115.848 102.840 C 114.051 101.349,95.716 101.447,94.048 102.956 C 93.657 103.310,93.076 103.600,92.758 103.600 C 92.439 103.600,91.823 103.840,91.389 104.133 C 90.541 104.706,86.165 105.999,84.200 106.257 C 83.540 106.343,82.457 106.501,81.793 106.608 C 81.130 106.714,79.475 107.701,78.116 108.801 C 76.757 109.900,75.368 110.800,75.031 110.800 C 73.667 110.800,71.124 112.147,70.780 113.051 C 70.584 113.568,69.684 114.488,68.781 115.096 C 66.517 116.618,61.088 121.953,60.395 123.337 C 60.082 123.962,59.143 124.952,58.309 125.537 C 57.475 126.122,56.687 127.050,56.559 127.600 C 56.106 129.539,55.065 131.414,53.746 132.667 C 52.297 134.044,51.327 136.414,50.966 139.459 C 50.722 141.508,49.004 145.924,48.186 146.600 C 46.717 147.815,45.792 162.179,46.706 169.576 C 47.224 173.769,45.651 176.400,42.626 176.400 C 41.726 176.400,39.841 177.406,38.686 178.502 C 37.131 179.978,36.016 180.800,35.571 180.800 C 34.105 180.800,31.170 182.179,30.974 182.960 C 30.855 183.436,29.822 184.445,28.679 185.203 C 26.354 186.745,25.200 187.784,25.200 188.337 C 25.200 188.541,24.718 189.024,24.130 189.409 C 22.672 190.364,21.284 191.910,20.565 193.378 C 20.237 194.050,19.248 195.098,18.368 195.707 C 17.489 196.316,16.707 197.036,16.630 197.307 C 16.554 197.578,16.285 198.560,16.033 199.489 C 15.762 200.487,14.857 201.958,13.818 203.089 C 12.250 204.795,11.990 205.364,11.389 208.400 C 10.464 213.080,9.351 216.742,8.361 218.369 C 6.367 221.645,5.795 232.971,7.336 238.626 C 7.640 239.740,8.469 241.868,9.178 243.354 C 9.995 245.066,10.661 247.327,10.997 249.528 C 11.644 253.773,12.077 254.938,13.552 256.414 C 14.945 257.807,16.398 260.503,16.406 261.712 C 16.414 262.841,16.596 263.075,18.900 264.927 C 19.945 265.767,20.800 266.787,20.800 267.196 C 20.800 267.872,23.751 270.800,24.432 270.800 C 24.591 270.800,25.077 271.403,25.512 272.141 C 25.990 272.951,27.047 273.842,28.182 274.391 C 29.452 275.006,30.268 275.734,30.698 276.637 C 31.347 277.997,33.244 279.200,34.740 279.200 C 35.655 279.200,38.522 281.056,39.895 282.537 C 40.546 283.239,41.525 283.624,43.495 283.951 C 44.983 284.198,47.034 284.549,48.054 284.730 C 49.074 284.911,51.234 285.704,52.854 286.492 C 57.148 288.582,54.684 288.487,111.705 288.754 L 164.411 289.000 165.391 290.200 C 166.240 291.239,166.373 291.815,166.386 294.500 L 166.400 297.600 171.957 297.600 C 176.856 297.600,177.554 297.517,177.849 296.900 C 178.033 296.515,178.291 282.610,178.421 266.000 C 178.572 246.733,178.811 235.268,179.080 234.331 C 179.506 232.846,181.024 230.405,181.527 230.394 C 181.982 230.385,185.200 227.350,185.200 226.931 C 185.200 224.437,189.369 223.600,201.791 223.600 C 214.472 223.600,213.600 223.929,213.600 219.138 C 213.600 215.124,214.486 213.600,216.818 213.600 C 217.468 213.600,218.038 213.555,218.084 213.500 C 218.131 213.445,218.266 206.290,218.384 197.600 C 218.624 180.033,218.648 179.875,221.200 178.962 C 223.157 178.262,336.531 178.167,338.856 178.864 C 341.776 179.739,341.774 179.724,342.000 197.600 L 342.200 213.400 343.403 213.600 C 346.058 214.042,346.535 214.803,346.723 218.891 C 346.957 224.000,345.953 223.600,358.549 223.598 C 370.934 223.596,375.200 224.466,375.200 226.994 C 375.200 227.241,376.039 228.154,377.065 229.022 C 381.767 232.999,381.998 233.928,382.004 248.857 C 382.009 260.948,382.167 262.867,383.140 262.705 C 383.558 262.636,383.865 263.009,384.040 263.800 C 384.186 264.460,384.327 264.759,384.353 264.464 C 384.379 264.169,384.805 263.590,385.300 263.177 C 385.795 262.764,385.990 262.421,385.733 262.413 C 385.477 262.406,385.186 262.625,385.088 262.900 C 384.990 263.175,384.763 263.263,384.584 263.096 C 384.405 262.929,384.569 262.565,384.948 262.287 C 385.403 261.955,385.703 261.037,385.829 259.591 C 386.080 256.706,386.997 255.491,389.211 255.113 C 391.670 254.693,391.943 253.696,390.975 248.670 C 390.524 246.326,392.744 244.412,395.500 244.770 C 395.775 244.806,396.000 244.647,396.000 244.418 C 396.000 243.726,396.728 243.948,396.924 244.700 C 397.108 245.401,397.117 245.365,397.352 243.100 C 397.380 242.825,397.003 242.240,396.513 241.800 C 396.022 241.360,395.539 240.508,395.438 239.907 C 395.338 239.305,395.164 238.665,395.052 238.484 C 394.855 238.166,394.622 236.429,394.207 232.200 C 394.099 231.100,393.920 226.960,393.809 223.000 C 393.527 212.927,393.187 208.395,392.607 207.000 C 390.931 202.966,389.197 196.453,389.198 194.200 C 389.201 191.282,387.870 186.400,387.073 186.400 C 386.118 186.400,383.600 181.186,383.600 179.207 C 383.600 178.104,382.319 176.402,381.484 176.397 C 380.880 176.394,379.200 173.975,379.200 173.108 C 379.200 172.382,376.294 169.200,375.631 169.200 C 375.394 169.200,375.200 168.863,375.200 168.450 C 375.200 167.589,369.407 161.543,367.724 160.647 C 367.106 160.318,365.994 159.324,365.254 158.437 C 364.483 157.513,362.946 156.370,361.654 155.760 C 360.113 155.032,359.199 154.301,358.764 153.448 C 358.414 152.761,357.784 152.137,357.364 152.059 C 355.934 151.796,354.072 150.033,353.610 148.504 C 353.360 147.677,352.641 145.920,352.012 144.600 C 350.396 141.206,349.551 138.377,349.355 135.707 C 349.149 132.893,347.922 127.200,347.523 127.200 C 347.102 127.200,345.200 125.080,345.200 124.612 C 345.200 124.394,344.849 123.312,344.421 122.208 C 343.992 121.103,343.537 119.699,343.410 119.087 C 343.282 118.474,342.787 117.664,342.309 117.287 C 340.447 115.815,339.200 114.278,339.200 113.454 C 339.200 112.589,338.156 111.294,336.255 109.800 C 335.695 109.360,335.229 108.848,335.218 108.662 C 335.181 107.968,333.450 105.897,332.350 105.228 C 331.724 104.847,330.700 103.830,330.074 102.968 C 329.449 102.105,328.097 100.869,327.069 100.220 C 326.041 99.571,325.200 98.839,325.200 98.592 C 325.200 97.870,323.393 96.506,322.045 96.210 C 321.360 96.059,320.800 95.783,320.800 95.595 C 320.800 95.407,320.440 95.140,320.000 95.000 C 319.560 94.860,319.200 94.488,319.200 94.173 C 319.200 93.858,319.041 93.600,318.847 93.600 C 318.652 93.600,318.399 93.240,318.284 92.800 C 318.169 92.360,317.743 91.998,317.337 91.995 C 315.027 91.979,309.363 89.544,309.004 88.412 C 308.664 87.341,307.357 86.842,303.729 86.399 C 299.238 85.851,295.982 84.951,293.200 83.488 C 290.528 82.082,284.801 81.547,273.864 81.680 C 268.458 81.746,266.791 81.640,266.018 81.182 C 264.703 80.402,263.630 79.144,263.613 78.362 C 263.599 77.663,262.382 76.400,261.723 76.400 C 261.149 76.400,259.200 73.512,259.200 72.661 C 259.200 72.278,258.210 71.033,257.000 69.894 C 255.790 68.755,254.800 67.587,254.800 67.299 C 254.800 67.011,254.530 66.671,254.200 66.545 C 253.870 66.418,253.595 66.109,253.590 65.857 C 253.579 65.350,250.538 62.001,250.086 61.998 C 249.928 61.996,248.540 60.813,247.000 59.369 C 245.460 57.925,243.480 56.375,242.600 55.926 C 240.654 54.933,239.200 53.648,239.200 52.922 C 239.200 52.311,238.280 51.886,235.400 51.168 C 233.410 50.673,231.275 49.484,230.698 48.551 C 230.013 47.444,227.695 46.489,225.200 46.285 C 222.504 46.065,219.029 45.162,217.068 44.172 C 216.445 43.857,215.745 43.600,215.512 43.600 C 215.279 43.600,214.866 43.297,214.595 42.926 C 213.759 41.782,199.278 41.218,188.201 41.899 M227.141 186.268 C 226.064 186.554,226.011 187.455,226.005 205.484 C 226.000 222.753,226.001 222.770,226.875 223.584 C 227.747 224.397,227.970 224.400,280.206 224.400 L 332.661 224.400 333.530 223.474 C 334.842 222.077,334.907 188.107,333.600 186.800 C 332.849 186.049,229.902 185.534,227.141 186.268 M333.120 186.880 C 333.945 187.705,333.797 223.039,332.967 223.357 C 331.807 223.802,228.012 223.634,227.174 223.186 C 226.062 222.591,225.956 188.354,227.062 187.131 C 227.896 186.210,332.203 185.963,333.120 186.880 M386.562 270.338 C 386.719 270.592,386.657 270.822,386.424 270.850 C 386.191 270.877,385.790 270.923,385.533 270.950 C 384.671 271.042,384.767 271.869,385.633 271.805 C 386.661 271.729,387.431 270.590,386.743 270.165 C 386.452 269.985,386.384 270.050,386.562 270.338 M227.006 307.699 C 226.240 309.952,225.666 367.029,226.396 368.392 C 226.826 369.197,227.058 369.200,280.146 369.200 L 333.465 369.200 333.945 368.300 C 334.493 367.272,334.306 318.498,333.727 311.400 L 333.400 307.400 280.288 307.299 C 238.000 307.218,227.141 307.299,227.006 307.699 M333.179 315.500 C 333.809 317.770,333.754 367.686,333.120 368.320 C 332.378 369.062,228.079 368.987,227.100 368.243 C 226.069 367.461,226.019 319.114,227.046 315.975 L 227.692 314.000 280.227 314.000 L 332.762 314.000 333.179 315.500 " stroke="none" fill="#c3ebfb" fill-rule="evenodd"></path><path id="path2" d="M181.400 38.307 C 180.361 38.400,178.382 38.818,175.909 39.467 C 175.526 39.567,175.010 40.342,174.752 41.203 C 174.184 43.099,174.093 43.136,169.272 43.443 C 164.672 43.736,163.774 44.186,163.403 46.384 C 163.135 47.968,163.097 48.000,161.465 48.005 C 157.846 48.017,155.173 49.222,154.450 51.167 C 153.740 53.079,153.385 53.356,151.000 53.861 C 149.527 54.173,149.348 54.358,148.737 56.200 C 148.134 58.019,147.922 58.244,146.393 58.687 C 144.142 59.340,143.600 59.860,143.600 61.369 C 143.600 62.974,142.978 63.600,141.382 63.600 C 140.005 63.600,138.800 64.628,138.800 65.803 C 138.800 67.794,137.885 69.158,136.467 69.280 C 134.431 69.456,133.698 70.731,133.317 74.753 L 133.000 78.106 131.100 78.711 C 128.841 79.431,128.597 80.053,128.248 86.000 C 128.126 88.090,128.020 89.839,128.013 89.887 C 128.006 89.936,127.775 89.890,127.500 89.787 C 126.697 89.484,124.400 91.102,124.400 91.971 C 124.400 92.401,124.220 92.864,124.000 93.000 C 123.780 93.136,123.600 94.295,123.600 95.575 C 123.600 98.402,123.079 98.985,120.886 98.615 C 118.646 98.236,91.432 98.254,88.600 98.635 C 87.280 98.813,86.071 98.968,85.913 98.979 C 85.194 99.031,83.956 100.522,83.741 101.594 C 83.463 102.986,83.242 103.068,78.800 103.409 C 75.005 103.700,73.600 104.340,73.600 105.777 C 73.600 107.499,73.188 108.000,71.772 108.000 C 71.034 108.000,69.543 108.350,68.458 108.777 C 67.374 109.204,66.392 109.459,66.276 109.342 C 66.021 109.088,64.770 110.924,64.652 111.723 C 64.517 112.644,63.408 113.519,62.118 113.723 C 60.217 114.022,59.205 114.735,59.150 115.814 C 59.077 117.244,59.056 117.313,58.361 118.297 C 58.013 118.791,57.189 119.302,56.529 119.434 C 54.991 119.742,54.264 120.995,53.357 124.900 C 52.723 127.630,52.530 128.000,51.741 128.000 C 49.414 128.000,48.009 131.118,48.002 136.300 C 48.000 137.852,47.912 138.000,46.986 138.000 C 43.676 138.000,43.577 138.518,43.575 156.000 C 43.574 163.810,43.437 170.830,43.272 171.600 L 42.970 173.000 38.935 173.410 C 34.399 173.870,33.600 174.297,33.600 176.262 C 33.600 177.730,33.434 177.850,31.000 178.149 C 30.120 178.257,28.680 178.634,27.800 178.987 C 26.920 179.340,25.899 179.730,25.530 179.853 C 25.137 179.985,24.921 180.388,25.006 180.830 C 25.086 181.244,24.979 181.689,24.769 181.819 C 24.559 181.949,24.480 182.207,24.595 182.391 C 24.822 182.759,22.056 184.194,20.300 184.620 C 19.373 184.845,19.200 185.097,19.200 186.223 C 19.200 187.650,17.770 189.600,16.724 189.600 C 15.980 189.600,14.400 191.263,14.400 192.046 C 14.400 192.373,14.233 192.811,14.028 193.020 C 13.824 193.229,13.509 194.480,13.327 195.800 C 13.031 197.957,12.896 198.212,11.999 198.317 C 9.222 198.641,8.613 199.739,8.181 205.200 C 7.907 208.664,7.644 209.183,6.162 209.194 C 5.232 209.201,4.226 210.167,3.846 211.420 C 3.294 213.238,3.426 247.754,3.988 248.792 C 4.791 250.272,5.423 250.785,6.777 251.055 C 7.866 251.273,8.002 251.459,8.020 252.750 C 8.102 258.601,9.529 262.098,11.796 262.008 C 12.989 261.961,13.113 262.148,13.364 264.366 C 13.526 265.791,13.951 267.139,14.434 267.752 C 14.875 268.313,15.183 268.913,15.118 269.085 C 15.053 269.257,15.675 269.759,16.499 270.199 C 17.323 270.640,17.998 271.206,17.999 271.457 C 18.000 271.709,18.270 272.018,18.600 272.145 C 18.971 272.287,19.200 272.895,19.200 273.738 C 19.200 275.322,19.842 275.982,21.663 276.269 C 22.892 276.463,24.988 277.757,25.010 278.336 C 25.038 279.046,26.573 280.800,27.166 280.800 C 27.537 280.800,28.042 281.002,28.290 281.250 C 28.537 281.497,29.788 281.812,31.070 281.950 C 33.178 282.176,33.411 282.295,33.517 283.200 C 33.838 285.952,34.937 286.573,40.182 286.966 C 43.635 287.224,43.987 287.407,44.625 289.286 C 45.525 291.935,42.003 291.778,105.800 292.000 L 163.400 292.200 163.518 294.900 C 163.628 297.393,163.705 297.600,164.531 297.600 C 165.982 297.600,165.609 292.195,164.070 290.902 L 163.000 290.004 112.200 289.957 C 84.260 289.931,60.860 289.864,60.200 289.808 C 52.781 289.182,52.134 289.071,50.600 288.159 C 47.442 286.281,44.616 285.186,42.229 284.916 C 39.899 284.653,37.402 283.524,36.844 282.483 C 36.455 281.756,35.993 281.475,32.800 280.027 C 30.836 279.137,29.200 277.892,29.200 277.289 C 29.200 276.926,26.280 274.800,25.782 274.800 C 25.374 274.800,20.800 270.030,20.800 269.605 C 20.800 269.382,20.648 269.200,20.463 269.200 C 20.278 269.200,19.787 268.570,19.372 267.800 C 18.957 267.030,18.506 266.400,18.368 266.400 C 17.630 266.400,15.580 263.810,15.199 262.397 C 14.935 261.415,13.970 259.892,12.780 258.578 C 11.691 257.375,10.786 256.078,10.769 255.696 C 10.706 254.250,9.355 249.150,8.556 247.340 C 8.250 246.646,8.000 245.888,8.000 245.654 C 8.000 245.420,7.661 245.047,7.247 244.825 C 6.832 244.603,6.353 243.742,6.182 242.911 C 6.011 242.080,5.800 241.130,5.712 240.800 C 4.520 236.316,5.899 215.121,7.421 214.537 C 7.739 214.414,8.000 213.987,8.000 213.586 C 8.000 213.185,8.270 212.587,8.600 212.257 C 8.930 211.927,9.200 211.205,9.200 210.652 C 9.200 210.099,9.360 209.549,9.555 209.428 C 9.882 209.226,10.349 207.420,10.612 205.340 C 10.841 203.529,11.366 202.571,13.055 200.882 C 14.015 199.922,14.902 198.655,15.025 198.068 C 15.338 196.578,16.217 195.074,17.051 194.600 C 18.161 193.971,18.977 193.094,19.598 191.866 C 20.201 190.674,21.194 189.543,22.825 188.188 C 23.363 187.742,24.162 186.927,24.602 186.377 C 25.041 185.827,26.233 184.893,27.250 184.301 C 28.268 183.709,29.196 182.860,29.312 182.413 C 29.451 181.883,30.547 181.123,32.474 180.221 C 34.096 179.461,35.868 178.363,36.412 177.782 C 37.664 176.441,38.868 175.832,41.479 175.219 C 45.560 174.260,45.356 175.021,45.434 160.481 C 45.503 147.730,45.865 144.112,47.116 143.695 C 47.967 143.411,49.786 138.621,50.950 133.600 C 51.077 133.050,52.007 131.700,53.015 130.600 C 54.024 129.500,54.958 128.066,55.092 127.413 C 55.233 126.725,56.148 125.446,57.267 124.373 C 58.330 123.354,59.200 122.339,59.200 122.118 C 59.200 120.985,64.888 115.465,67.346 114.212 C 68.197 113.779,68.989 113.149,69.107 112.812 C 69.460 111.805,70.481 110.801,71.162 110.791 C 71.513 110.786,72.250 110.430,72.800 110.000 C 73.350 109.570,74.106 109.214,74.480 109.209 C 74.853 109.204,75.619 108.597,76.181 107.860 C 77.236 106.477,79.621 105.450,82.962 104.939 C 83.863 104.801,85.086 104.444,85.680 104.144 C 86.274 103.845,87.042 103.600,87.386 103.600 C 87.731 103.600,89.007 102.940,90.223 102.132 L 92.433 100.665 104.717 100.659 C 116.426 100.653,117.120 100.695,119.574 101.551 C 121.999 102.398,124.315 102.434,123.811 101.617 C 123.688 101.419,123.951 101.143,124.394 101.002 C 124.837 100.861,125.200 100.510,125.200 100.222 C 125.200 99.934,125.470 99.474,125.800 99.200 C 126.130 98.926,126.400 98.377,126.400 97.980 C 126.400 97.582,126.649 97.008,126.954 96.703 C 128.099 95.558,129.145 92.860,130.114 88.552 C 131.028 84.484,132.040 82.000,132.782 82.000 C 133.265 82.000,135.086 78.300,135.357 76.770 C 135.585 75.483,135.983 74.891,137.681 73.319 C 138.589 72.478,139.248 71.464,140.963 68.264 C 141.416 67.419,142.099 66.561,142.481 66.357 C 143.601 65.757,144.981 64.308,145.943 62.721 C 146.436 61.907,147.150 61.143,147.530 61.022 C 148.483 60.720,151.111 58.112,151.409 57.173 C 151.543 56.749,152.091 56.292,152.627 56.158 C 153.162 56.023,153.600 55.789,153.600 55.637 C 153.600 55.485,154.226 55.134,154.991 54.858 C 155.756 54.581,157.093 53.651,157.961 52.792 C 158.969 51.793,160.578 50.828,162.420 50.115 C 164.132 49.452,165.908 48.412,166.798 47.552 C 168.041 46.348,168.826 45.993,171.447 45.449 C 176.373 44.426,179.786 43.277,181.004 42.230 C 182.647 40.818,183.090 40.772,196.600 40.620 C 213.380 40.431,216.920 40.735,219.333 42.576 C 220.071 43.139,220.863 43.600,221.092 43.600 C 221.321 43.600,222.024 43.869,222.654 44.198 C 223.284 44.526,224.319 44.796,224.954 44.798 C 227.674 44.803,230.833 46.059,232.761 47.900 C 233.510 48.615,234.340 49.200,234.606 49.200 C 235.878 49.200,240.457 51.686,240.875 52.604 C 241.121 53.145,242.060 53.965,242.962 54.425 C 245.975 55.963,247.335 56.946,249.960 59.481 C 251.393 60.867,252.799 62.000,253.083 62.000 C 253.367 62.000,253.600 62.205,253.600 62.456 C 253.600 62.858,257.035 67.351,258.482 68.841 C 259.188 69.568,260.800 72.337,260.800 72.823 C 260.800 73.325,262.093 74.597,262.931 74.918 C 263.299 75.059,263.600 75.451,263.600 75.787 C 263.600 76.124,263.780 76.400,264.000 76.400 C 264.220 76.400,264.400 76.685,264.400 77.033 C 264.400 77.774,266.986 80.402,267.707 80.395 C 284.538 80.222,296.400 81.054,296.400 82.408 C 296.400 82.960,301.681 84.721,304.193 85.008 C 307.270 85.359,309.487 86.236,311.032 87.714 C 311.781 88.430,313.509 89.307,315.433 89.946 C 318.065 90.822,318.898 91.322,320.352 92.900 C 321.314 93.945,322.366 94.800,322.689 94.800 C 323.772 94.800,325.548 96.243,331.433 101.900 C 333.092 103.495,334.618 104.800,334.825 104.800 C 335.031 104.800,335.200 105.058,335.200 105.373 C 335.200 105.689,336.085 106.855,337.167 107.966 C 338.249 109.077,339.627 110.993,340.229 112.224 C 340.832 113.455,341.991 114.998,342.805 115.652 C 343.768 116.426,344.460 117.429,344.784 118.521 C 345.887 122.236,346.451 123.464,347.697 124.862 C 348.971 126.291,350.797 132.166,350.802 134.854 C 350.804 135.952,352.536 140.385,353.106 140.752 C 353.639 141.095,354.170 143.067,354.572 146.200 C 354.871 148.525,356.552 150.800,357.971 150.800 C 358.331 150.800,359.388 151.678,360.318 152.751 C 361.350 153.940,362.458 154.792,363.157 154.931 C 363.788 155.058,364.582 155.440,364.923 155.780 C 365.264 156.121,365.736 156.400,365.971 156.400 C 366.207 156.400,366.400 156.670,366.400 157.000 C 366.400 157.330,366.544 157.600,366.720 157.600 C 367.492 157.600,375.200 164.859,375.200 165.586 C 375.200 165.828,375.470 166.129,375.800 166.255 C 376.130 166.382,376.400 166.692,376.400 166.945 C 376.400 167.198,377.030 167.930,377.800 168.572 C 378.570 169.214,379.200 169.978,379.200 170.270 C 379.200 170.561,379.360 170.800,379.557 170.800 C 379.753 170.800,380.034 171.280,380.181 171.867 C 380.329 172.455,381.419 173.889,382.604 175.056 C 384.156 176.583,384.838 177.597,385.040 178.675 C 385.472 180.977,386.706 183.468,387.866 184.380 C 388.763 185.086,389.076 185.970,390.035 190.502 C 391.355 196.739,391.913 198.645,392.817 200.000 C 393.502 201.028,393.955 202.498,394.235 204.600 C 394.323 205.260,394.478 206.216,394.579 206.724 C 394.680 207.232,394.867 211.102,394.994 215.324 C 395.121 219.546,395.301 225.389,395.394 228.310 C 395.558 233.436,396.525 240.363,397.251 241.600 C 397.463 241.961,397.523 240.848,397.403 238.800 C 397.294 236.930,397.116 227.203,397.008 217.185 C 396.769 195.007,396.619 193.944,393.646 193.349 C 392.333 193.087,392.360 193.190,391.811 186.323 C 391.694 184.850,391.405 183.140,391.171 182.523 C 390.936 181.905,390.801 181.310,390.872 181.200 C 390.942 181.090,390.161 180.599,389.135 180.109 C 387.297 179.230,386.400 177.427,386.400 174.609 C 386.400 173.924,384.433 172.332,383.953 172.629 C 383.759 172.749,383.600 172.567,383.600 172.224 C 383.600 171.881,383.338 171.600,383.018 171.600 C 382.660 171.600,382.332 171.022,382.166 170.100 C 382.017 169.275,381.755 168.420,381.584 168.200 C 381.412 167.980,381.145 167.125,380.991 166.300 C 380.826 165.413,380.482 164.800,380.150 164.800 C 379.533 164.800,378.187 164.111,377.100 163.238 C 376.694 162.912,376.400 162.134,376.400 161.384 C 376.400 160.105,374.794 158.826,373.140 158.787 C 372.116 158.763,371.212 157.716,370.894 156.187 C 370.582 154.684,370.515 154.636,367.468 153.709 C 365.528 153.119,364.265 152.508,364.105 152.082 C 363.455 150.349,361.236 148.963,357.962 148.244 L 356.925 148.016 356.682 141.810 C 356.423 135.173,355.962 133.648,354.200 133.606 C 352.668 133.571,352.436 133.025,352.003 128.427 C 351.767 125.927,351.461 123.699,351.323 123.476 C 351.185 123.252,350.959 122.514,350.820 121.835 C 350.681 121.156,350.395 120.587,350.184 120.571 C 348.221 120.425,347.040 118.872,346.585 115.838 C 346.293 113.894,345.098 112.800,343.265 112.800 C 342.648 112.800,342.433 112.414,342.206 110.900 C 342.049 109.855,341.760 108.699,341.563 108.330 C 341.366 107.962,341.158 107.027,341.102 106.253 C 341.009 104.976,340.852 104.807,339.400 104.428 C 337.113 103.830,336.788 103.525,336.348 101.568 C 335.906 99.601,335.499 99.215,333.856 99.206 C 332.378 99.198,330.816 97.715,330.807 96.309 C 330.798 94.964,329.873 94.358,326.400 93.424 C 322.878 92.478,322.662 92.334,322.269 90.675 C 321.877 89.016,321.744 88.950,317.300 88.212 C 316.365 88.057,315.587 87.721,315.570 87.465 C 315.378 84.455,314.242 83.724,309.600 83.623 C 304.843 83.519,302.797 82.809,302.194 81.053 C 301.318 78.507,299.237 78.230,281.894 78.354 C 266.088 78.467,266.984 78.610,266.626 75.911 C 266.353 73.852,264.155 70.801,262.943 70.800 C 262.692 70.800,262.366 70.305,262.218 69.700 C 261.032 64.844,260.894 64.602,258.985 64.039 C 257.038 63.464,256.649 62.996,256.243 60.743 C 256.009 59.447,255.815 59.254,254.497 59.007 C 252.266 58.589,251.660 58.125,251.378 56.621 C 251.045 54.846,250.053 53.985,248.031 53.713 C 247.134 53.593,246.400 53.338,246.400 53.147 C 246.400 52.956,246.130 52.800,245.800 52.800 C 245.470 52.800,245.186 52.575,245.169 52.300 C 245.002 49.565,244.394 49.223,237.900 48.200 C 236.552 47.988,236.400 47.842,236.400 46.763 C 236.400 44.587,234.805 43.600,231.288 43.600 C 226.971 43.600,225.576 43.074,224.600 41.077 C 223.844 39.530,223.660 39.413,221.246 38.934 C 218.974 38.484,185.349 37.955,181.400 38.307 M249.457 43.795 C 249.314 44.168,249.438 44.284,249.825 44.135 C 250.188 43.996,250.357 44.117,250.270 44.455 C 250.194 44.755,250.207 44.865,250.299 44.700 C 250.391 44.535,250.632 44.400,250.833 44.400 C 251.416 44.400,251.073 45.308,250.200 46.077 C 249.420 46.763,249.427 46.769,250.497 46.290 C 251.852 45.684,251.909 44.695,250.637 43.861 C 249.823 43.328,249.640 43.318,249.457 43.795 M269.668 66.046 C 270.181 66.841,270.666 67.316,270.748 67.102 C 270.829 66.889,270.410 66.238,269.816 65.657 L 268.737 64.600 269.668 66.046 M127.600 66.467 C 127.600 66.943,127.651 67.258,127.713 67.167 C 127.775 67.075,128.067 66.685,128.362 66.300 C 128.821 65.701,128.804 65.600,128.249 65.600 C 127.850 65.600,127.600 65.934,127.600 66.467 M288.707 72.690 C 289.426 72.779,290.506 72.777,291.107 72.686 C 291.708 72.595,291.120 72.522,289.800 72.524 C 288.480 72.526,287.988 72.601,288.707 72.690 M308.933 74.183 C 308.933 74.481,309.135 74.646,309.381 74.552 C 309.627 74.458,309.856 74.749,309.890 75.199 C 309.930 75.728,309.783 75.921,309.476 75.745 C 309.214 75.594,309.140 75.626,309.312 75.814 C 309.784 76.333,310.764 76.382,311.060 75.903 C 311.216 75.651,311.134 75.593,310.862 75.762 C 310.452 76.015,310.223 75.546,310.349 74.712 C 310.373 74.554,310.064 74.248,309.663 74.034 C 309.124 73.745,308.933 73.785,308.933 74.183 M327.504 85.678 C 327.115 86.698,327.896 87.952,328.776 87.722 C 329.837 87.445,329.814 87.141,328.651 86.048 C 327.957 85.396,327.649 85.297,327.504 85.678 M335.691 89.393 C 335.752 90.129,335.892 90.255,336.285 89.929 C 336.963 89.367,336.936 88.938,336.206 88.658 C 335.771 88.491,335.633 88.688,335.691 89.393 M94.300 92.682 C 94.795 92.778,95.605 92.778,96.100 92.682 C 96.595 92.587,96.190 92.509,95.200 92.509 C 94.210 92.509,93.805 92.587,94.300 92.682 M113.700 92.676 C 114.085 92.776,114.715 92.776,115.100 92.676 C 115.485 92.575,115.170 92.493,114.400 92.493 C 113.630 92.493,113.315 92.575,113.700 92.676 M60.139 104.312 C 60.181 105.343,60.295 105.470,60.894 105.150 C 61.788 104.671,61.816 104.342,60.934 104.681 C 60.551 104.828,60.370 104.772,60.508 104.549 C 60.640 104.336,60.599 103.922,60.418 103.629 C 60.206 103.286,60.107 103.527,60.139 104.312 M357.600 125.647 C 357.600 126.408,359.093 127.840,359.481 127.452 C 359.633 127.300,359.272 126.690,358.679 126.097 C 357.889 125.307,357.600 125.186,357.600 125.647 M41.146 129.405 C 40.056 129.997,38.130 132.800,38.813 132.800 C 39.026 132.800,39.200 132.634,39.200 132.431 C 39.200 132.228,39.949 131.328,40.864 130.431 C 42.684 128.647,42.709 128.556,41.146 129.405 M367.600 145.647 C 367.600 146.408,369.093 147.840,369.481 147.452 C 369.633 147.300,369.272 146.690,368.679 146.097 C 367.889 145.307,367.600 145.186,367.600 145.647 M33.200 160.200 C 33.200 161.667,33.374 162.800,33.600 162.800 C 33.826 162.800,34.000 161.667,34.000 160.200 C 34.000 158.733,33.826 157.600,33.600 157.600 C 33.374 157.600,33.200 158.733,33.200 160.200 M385.691 159.393 C 385.752 160.129,385.892 160.255,386.285 159.929 C 386.963 159.367,386.936 158.938,386.206 158.658 C 385.771 158.491,385.633 158.688,385.691 159.393 M387.600 165.647 C 387.600 166.408,389.093 167.840,389.481 167.452 C 389.633 167.300,389.272 166.690,388.679 166.097 C 387.889 165.307,387.600 165.186,387.600 165.647 M339.291 197.630 L 339.200 213.061 340.126 213.930 C 340.635 214.409,341.203 214.800,341.387 214.800 C 341.571 214.800,341.290 214.425,340.761 213.967 L 339.800 213.133 339.591 197.667 L 339.381 182.200 339.291 197.630 M397.600 185.800 C 397.600 186.200,398.000 186.400,398.800 186.400 C 399.600 186.400,400.000 186.200,400.000 185.800 C 400.000 185.400,399.600 185.200,398.800 185.200 C 398.000 185.200,397.600 185.400,397.600 185.800 M398.100 187.876 C 398.485 187.976,399.115 187.976,399.500 187.876 C 399.885 187.775,399.570 187.693,398.800 187.693 C 398.030 187.693,397.715 187.775,398.100 187.876 M219.608 213.852 C 219.063 214.373,218.810 214.800,219.046 214.800 C 219.527 214.800,221.021 213.277,220.764 213.050 C 220.674 212.970,220.154 213.331,219.608 213.852 M216.078 216.119 C 214.853 217.384,214.803 217.561,214.878 220.419 L 214.957 223.400 215.098 220.640 C 215.249 217.687,215.703 216.716,217.478 215.545 C 218.170 215.089,218.362 214.804,217.978 214.803 C 217.637 214.801,216.782 215.394,216.078 216.119 M343.046 215.691 C 343.681 216.180,344.419 216.855,344.687 217.191 C 344.955 217.526,345.180 217.609,345.187 217.375 C 345.205 216.786,343.074 214.800,342.424 214.800 C 342.132 214.800,342.411 215.201,343.046 215.691 M345.200 223.077 C 345.200 223.296,345.560 223.802,346.000 224.200 C 346.440 224.598,346.800 224.834,346.800 224.723 C 346.800 224.613,346.440 224.107,346.000 223.600 C 345.560 223.093,345.200 222.857,345.200 223.077 M334.400 224.636 C 333.249 225.277,226.897 225.298,225.400 224.657 C 224.960 224.469,225.189 224.694,225.910 225.157 L 227.219 226.000 280.310 225.998 L 333.400 225.996 334.600 225.012 C 335.940 223.914,335.884 223.809,334.400 224.636 M193.800 225.194 C 191.492 225.618,189.552 226.564,188.323 227.865 C 187.733 228.489,187.014 229.202,186.725 229.448 C 184.044 231.736,180.628 236.083,180.891 236.873 C 180.982 237.147,181.313 236.793,181.626 236.086 C 181.939 235.379,182.304 234.800,182.436 234.800 C 182.866 234.800,184.400 233.318,184.400 232.904 C 184.400 232.292,187.898 229.200,188.591 229.200 C 188.926 229.200,189.200 228.961,189.200 228.670 C 189.200 226.380,192.778 225.556,204.200 225.214 L 213.400 224.939 204.400 224.920 C 199.450 224.909,194.680 225.032,193.800 225.194 M356.000 225.186 C 367.160 225.549,370.351 226.240,370.921 228.419 C 371.033 228.848,371.435 229.200,371.814 229.200 C 372.522 229.200,376.000 232.308,376.000 232.941 C 376.000 233.135,376.687 233.961,377.527 234.776 C 379.485 236.675,379.993 240.212,380.015 252.077 C 380.029 260.026,380.499 264.470,381.509 266.200 C 382.257 267.482,382.155 265.722,381.356 263.550 C 380.850 262.177,380.643 259.258,380.395 250.000 C 380.183 242.102,379.905 237.684,379.553 236.639 C 379.016 235.041,370.978 226.400,370.029 226.400 C 369.778 226.400,369.100 226.091,368.523 225.713 C 367.608 225.113,366.168 225.017,357.237 224.959 L 347.000 224.893 356.000 225.186 M226.662 231.531 C 225.300 233.036,225.775 273.004,227.160 273.500 C 227.899 273.765,230.647 276.524,231.756 278.115 L 232.512 279.200 280.056 279.200 C 331.911 279.200,329.200 279.312,329.200 277.169 C 329.200 276.607,332.425 273.600,333.027 273.600 C 334.565 273.600,335.220 233.367,333.711 231.605 C 332.678 230.398,227.753 230.326,226.662 231.531 M218.273 231.600 C 218.601 232.029,218.770 238.247,218.866 253.400 C 219.023 278.196,218.555 275.772,224.303 281.555 C 229.687 286.970,223.384 286.440,280.800 286.311 L 330.200 286.200 331.699 285.344 C 333.051 284.571,337.948 279.713,339.913 277.193 C 340.339 276.647,340.823 275.570,340.987 274.800 C 341.542 272.207,341.859 231.679,341.323 231.884 C 340.965 232.022,340.814 237.120,340.715 252.334 C 340.568 275.032,340.663 274.282,337.511 277.676 C 336.790 278.453,335.827 279.518,335.371 280.044 C 333.688 281.986,330.599 284.421,329.220 284.893 C 327.290 285.553,237.032 285.846,233.290 285.204 C 230.471 284.720,228.025 283.653,228.010 282.900 C 228.004 282.625,227.837 282.400,227.637 282.400 C 227.291 282.400,223.600 278.997,223.600 278.678 C 223.600 278.594,223.038 277.896,222.350 277.126 C 219.841 274.316,219.868 274.567,219.703 252.541 C 219.554 232.528,219.551 232.480,218.684 231.741 C 218.205 231.333,218.020 231.270,218.273 231.600 M180.323 237.700 C 180.280 237.755,180.136 250.310,180.003 265.600 C 179.870 280.890,179.625 293.850,179.458 294.400 L 179.154 295.400 179.746 294.384 C 180.258 293.504,181.001 237.599,180.500 237.600 C 180.445 237.600,180.365 237.645,180.323 237.700 M398.100 242.676 C 398.485 242.776,399.115 242.776,399.500 242.676 C 399.885 242.575,399.570 242.493,398.800 242.493 C 398.030 242.493,397.715 242.575,398.100 242.676 M397.570 243.700 C 397.400 244.273,397.302 245.676,397.459 245.300 C 397.573 245.025,398.192 244.800,398.833 244.800 C 399.604 244.800,400.000 244.596,400.000 244.200 C 400.000 243.711,397.707 243.239,397.570 243.700 M395.055 251.800 C 394.919 252.155,394.318 252.400,393.583 252.400 L 392.340 252.400 392.534 254.500 C 392.641 255.655,392.766 256.690,392.812 256.800 C 392.857 256.910,392.873 257.135,392.847 257.300 C 392.787 257.685,393.264 257.674,393.892 257.275 C 394.204 257.077,394.312 256.400,394.188 255.429 L 393.992 253.896 395.554 254.146 C 396.766 254.340,397.170 254.255,397.358 253.765 C 397.692 252.895,397.662 252.715,397.228 252.983 C 397.023 253.109,396.742 253.030,396.604 252.807 C 396.466 252.583,396.644 252.400,397.000 252.400 C 397.356 252.400,397.534 252.217,397.396 251.993 C 397.258 251.770,396.977 251.691,396.772 251.817 C 396.568 251.944,396.400 251.857,396.400 251.624 C 396.400 250.977,395.317 251.119,395.055 251.800 M395.461 252.996 C 394.523 253.935,394.283 253.707,395.081 252.637 C 395.477 252.107,395.859 251.836,395.932 252.033 C 396.005 252.231,395.793 252.664,395.461 252.996 M394.627 255.073 C 394.465 255.497,394.692 256.053,395.239 256.573 C 395.718 257.028,396.014 257.220,395.897 257.000 C 395.647 256.531,396.601 255.534,396.957 255.891 C 397.091 256.024,397.200 256.026,397.200 255.895 C 397.200 254.728,395.026 254.034,394.627 255.073 M391.239 260.224 C 390.777 261.007,390.610 261.518,390.867 261.358 C 391.190 261.159,391.250 261.294,391.059 261.791 C 390.821 262.410,390.871 262.439,391.410 261.992 C 391.846 261.630,391.901 261.386,391.589 261.193 C 391.267 260.994,391.290 260.756,391.670 260.349 C 392.191 259.791,392.555 258.800,392.240 258.800 C 392.151 258.800,391.701 259.441,391.239 260.224 M387.843 261.433 C 387.438 262.487,387.565 262.788,388.300 262.513 C 388.911 262.283,388.931 262.335,388.455 262.921 C 388.155 263.289,387.766 263.502,387.590 263.394 C 387.245 263.181,387.304 264.238,387.656 264.590 C 387.773 264.707,388.407 264.212,389.064 263.489 C 390.284 262.149,390.400 261.200,389.343 261.200 C 389.018 261.200,388.864 261.380,389.000 261.600 C 389.136 261.820,388.972 262.000,388.636 262.000 C 388.257 262.000,388.113 261.772,388.255 261.400 C 388.382 261.070,388.396 260.800,388.286 260.800 C 388.176 260.800,387.976 261.085,387.843 261.433 M386.102 268.900 C 386.194 269.175,385.984 269.637,385.635 269.926 C 385.079 270.387,385.096 270.405,385.770 270.071 C 386.583 269.669,387.009 268.400,386.331 268.400 C 386.112 268.400,386.009 268.625,386.102 268.900 M384.097 271.426 C 384.135 271.937,384.463 272.265,384.974 272.303 C 385.566 272.348,385.641 272.273,385.248 272.030 C 384.950 271.845,384.555 271.450,384.370 271.152 C 384.127 270.759,384.052 270.834,384.097 271.426 M9.411 273.000 L 8.223 273.972 9.054 275.086 C 9.512 275.699,10.047 276.203,10.243 276.206 C 10.439 276.209,10.837 276.363,11.127 276.546 C 11.416 276.730,11.747 276.787,11.861 276.672 C 11.975 276.558,11.688 276.261,11.223 276.012 C 10.758 275.763,10.495 275.370,10.639 275.137 C 10.812 274.857,11.029 274.898,11.280 275.257 C 11.592 275.702,11.632 275.695,11.503 275.219 C 11.417 274.900,10.861 274.612,10.268 274.581 C 9.127 274.520,8.512 274.155,8.899 273.768 C 9.027 273.640,9.529 273.748,10.014 274.007 C 10.699 274.374,10.830 274.372,10.599 273.998 C 10.435 273.734,10.779 273.830,11.363 274.213 C 11.947 274.595,12.539 274.794,12.679 274.654 C 12.819 274.514,12.723 274.400,12.467 274.400 C 12.210 274.400,12.000 274.209,12.000 273.976 C 12.000 273.743,12.208 273.681,12.462 273.838 C 12.757 274.021,12.815 273.947,12.622 273.635 C 12.456 273.367,12.224 273.242,12.107 273.359 C 11.758 273.709,10.358 272.792,10.612 272.380 C 10.968 271.804,10.714 271.935,9.411 273.000 M19.186 283.210 L 18.206 283.950 19.046 285.075 C 19.508 285.694,20.047 286.203,20.243 286.206 C 20.439 286.209,20.837 286.363,21.127 286.546 C 21.416 286.730,21.747 286.787,21.861 286.672 C 21.975 286.558,21.688 286.261,21.223 286.012 C 20.758 285.763,20.495 285.370,20.639 285.137 C 20.812 284.857,21.029 284.898,21.280 285.257 C 21.592 285.702,21.632 285.695,21.503 285.219 C 21.417 284.900,20.861 284.612,20.268 284.581 C 19.127 284.520,18.512 284.155,18.899 283.768 C 19.027 283.640,19.529 283.748,20.014 284.007 C 20.699 284.374,20.830 284.372,20.599 283.998 C 20.435 283.734,20.783 283.832,21.371 284.218 C 22.126 284.712,22.566 284.794,22.866 284.494 C 23.400 283.960,22.894 283.078,22.205 283.343 C 21.923 283.451,21.349 283.299,20.929 283.005 C 20.276 282.548,20.025 282.578,19.186 283.210 " stroke="none" fill="#8cb4f2" fill-rule="evenodd"></path><path id="path3" d="M32.940 160.000 C 32.940 161.870,33.009 162.635,33.093 161.700 C 33.177 160.765,33.177 159.235,33.093 158.300 C 33.009 157.365,32.940 158.130,32.940 160.000 M227.062 187.131 C 225.956 188.354,226.062 222.591,227.174 223.186 C 228.012 223.634,331.807 223.802,332.967 223.357 C 333.797 223.039,333.945 187.705,333.120 186.880 C 332.203 185.963,227.896 186.210,227.062 187.131 M355.700 250.412 C 353.235 252.830,353.321 252.594,354.700 253.132 C 357.866 254.369,359.494 253.591,358.607 251.265 C 358.300 250.459,357.992 249.474,357.924 249.076 C 357.825 248.498,357.377 248.767,355.700 250.412 M227.046 315.975 C 226.019 319.114,226.069 367.461,227.100 368.243 C 228.079 368.987,332.378 369.062,333.120 368.320 C 333.754 367.686,333.809 317.770,333.179 315.500 L 332.762 314.000 280.227 314.000 L 227.692 314.000 227.046 315.975 " stroke="none" fill="#fcfcfc" fill-rule="evenodd"></path><path id="path4" d="M186.800 40.683 C 183.248 40.987,182.097 41.291,181.032 42.206 C 179.788 43.275,176.403 44.420,171.447 45.449 C 168.826 45.993,168.041 46.348,166.798 47.552 C 165.908 48.412,164.132 49.452,162.420 50.115 C 160.578 50.828,158.969 51.793,157.961 52.792 C 157.093 53.651,155.756 54.581,154.991 54.858 C 154.226 55.134,153.600 55.485,153.600 55.637 C 153.600 55.789,153.162 56.023,152.627 56.158 C 152.091 56.292,151.543 56.749,151.409 57.173 C 151.111 58.112,148.483 60.720,147.530 61.022 C 147.150 61.143,146.436 61.907,145.943 62.721 C 144.981 64.308,143.601 65.757,142.481 66.357 C 142.099 66.561,141.416 67.419,140.963 68.264 C 139.248 71.464,138.589 72.478,137.681 73.319 C 135.983 74.891,135.585 75.483,135.357 76.770 C 135.086 78.300,133.265 82.000,132.782 82.000 C 132.040 82.000,131.028 84.484,130.114 88.552 C 129.145 92.860,128.099 95.558,126.954 96.703 C 126.649 97.008,126.400 97.582,126.400 97.980 C 126.400 98.377,126.130 98.926,125.800 99.200 C 125.470 99.474,125.200 99.934,125.200 100.222 C 125.200 100.510,124.837 100.861,124.394 101.002 C 123.951 101.143,123.688 101.419,123.811 101.617 C 124.315 102.434,121.999 102.398,119.574 101.551 C 117.120 100.695,116.426 100.653,104.717 100.659 L 92.433 100.665 90.223 102.132 C 89.007 102.940,87.731 103.600,87.386 103.600 C 87.042 103.600,86.274 103.845,85.680 104.144 C 85.086 104.444,83.863 104.801,82.962 104.939 C 79.621 105.450,77.236 106.477,76.181 107.860 C 75.619 108.597,74.853 109.204,74.480 109.209 C 74.106 109.214,73.350 109.570,72.800 110.000 C 72.250 110.430,71.513 110.786,71.162 110.791 C 70.481 110.801,69.460 111.805,69.107 112.812 C 68.989 113.149,68.197 113.779,67.346 114.212 C 64.888 115.465,59.200 120.985,59.200 122.118 C 59.200 122.339,58.330 123.354,57.267 124.373 C 56.148 125.446,55.233 126.725,55.092 127.413 C 54.958 128.066,54.024 129.500,53.015 130.600 C 52.007 131.700,51.077 133.050,50.950 133.600 C 49.786 138.621,47.967 143.411,47.116 143.695 C 45.865 144.112,45.503 147.730,45.434 160.481 C 45.356 175.021,45.560 174.260,41.479 175.219 C 38.868 175.832,37.664 176.441,36.412 177.782 C 35.868 178.363,34.096 179.461,32.474 180.221 C 30.547 181.123,29.451 181.883,29.312 182.413 C 29.196 182.860,28.268 183.709,27.250 184.301 C 26.233 184.893,25.041 185.827,24.602 186.377 C 24.162 186.927,23.363 187.742,22.825 188.188 C 21.194 189.543,20.201 190.674,19.598 191.866 C 18.977 193.094,18.161 193.971,17.051 194.600 C 16.217 195.074,15.338 196.578,15.025 198.068 C 14.902 198.655,14.015 199.922,13.055 200.882 C 11.366 202.571,10.841 203.529,10.612 205.340 C 10.349 207.420,9.882 209.226,9.555 209.428 C 9.360 209.549,9.200 210.099,9.200 210.652 C 9.200 211.205,8.930 211.927,8.600 212.257 C 8.270 212.587,8.000 213.185,8.000 213.586 C 8.000 213.987,7.739 214.414,7.421 214.537 C 5.899 215.121,4.520 236.316,5.712 240.800 C 5.800 241.130,6.011 242.080,6.182 242.911 C 6.353 243.742,6.832 244.603,7.247 244.825 C 7.661 245.047,8.000 245.420,8.000 245.654 C 8.000 245.888,8.250 246.646,8.556 247.340 C 9.355 249.150,10.706 254.250,10.769 255.696 C 10.786 256.078,11.691 257.375,12.780 258.578 C 13.970 259.892,14.935 261.415,15.199 262.397 C 15.580 263.810,17.630 266.400,18.368 266.400 C 18.506 266.400,18.957 267.030,19.372 267.800 C 19.787 268.570,20.278 269.200,20.463 269.200 C 20.648 269.200,20.800 269.382,20.800 269.605 C 20.800 270.030,25.374 274.800,25.782 274.800 C 26.280 274.800,29.200 276.926,29.200 277.289 C 29.200 277.892,30.836 279.137,32.800 280.027 C 35.993 281.475,36.455 281.756,36.844 282.483 C 37.402 283.524,39.899 284.653,42.229 284.916 C 44.613 285.186,47.432 286.277,50.600 288.156 C 53.159 289.675,54.020 289.700,109.762 289.871 C 171.105 290.059,165.200 289.620,165.200 293.995 C 165.200 296.482,165.461 297.600,166.043 297.600 C 166.942 297.600,166.398 291.433,165.391 290.200 L 164.411 289.000 111.705 288.754 C 54.684 288.487,57.148 288.582,52.854 286.492 C 51.234 285.704,49.074 284.911,48.054 284.730 C 47.034 284.549,44.983 284.198,43.495 283.951 C 41.525 283.624,40.546 283.239,39.895 282.537 C 38.522 281.056,35.655 279.200,34.740 279.200 C 33.244 279.200,31.347 277.997,30.698 276.637 C 30.268 275.734,29.452 275.006,28.182 274.391 C 27.047 273.842,25.990 272.951,25.512 272.141 C 25.077 271.403,24.591 270.800,24.432 270.800 C 23.751 270.800,20.800 267.872,20.800 267.196 C 20.800 266.787,19.945 265.767,18.900 264.927 C 16.596 263.075,16.414 262.841,16.406 261.712 C 16.398 260.503,14.945 257.807,13.552 256.414 C 12.077 254.938,11.644 253.773,10.997 249.528 C 10.661 247.327,9.995 245.066,9.178 243.354 C 6.771 238.311,5.825 230.969,6.736 224.400 C 7.301 220.322,7.404 219.942,8.361 218.369 C 9.351 216.742,10.464 213.080,11.389 208.400 C 11.990 205.364,12.250 204.795,13.818 203.089 C 14.857 201.958,15.762 200.487,16.033 199.489 C 16.285 198.560,16.554 197.578,16.630 197.307 C 16.707 197.036,17.489 196.316,18.368 195.707 C 19.248 195.098,20.237 194.050,20.565 193.378 C 21.284 191.910,22.672 190.364,24.130 189.409 C 24.718 189.024,25.200 188.541,25.200 188.337 C 25.200 187.784,26.354 186.745,28.679 185.203 C 29.822 184.445,30.855 183.436,30.974 182.960 C 31.170 182.179,34.105 180.800,35.571 180.800 C 36.016 180.800,37.131 179.978,38.686 178.502 C 39.841 177.406,41.726 176.400,42.626 176.400 C 45.651 176.400,47.224 173.769,46.706 169.576 C 45.792 162.179,46.717 147.815,48.186 146.600 C 49.004 145.924,50.722 141.508,50.966 139.459 C 51.327 136.414,52.297 134.044,53.746 132.667 C 55.065 131.414,56.106 129.539,56.559 127.600 C 56.687 127.050,57.475 126.122,58.309 125.537 C 59.143 124.952,60.082 123.962,60.395 123.337 C 61.088 121.953,66.517 116.618,68.781 115.096 C 69.684 114.488,70.584 113.568,70.780 113.051 C 71.124 112.147,73.667 110.800,75.031 110.800 C 75.368 110.800,76.757 109.900,78.116 108.801 C 79.475 107.701,81.130 106.714,81.793 106.608 C 82.457 106.501,83.540 106.343,84.200 106.257 C 86.165 105.999,90.541 104.706,91.389 104.133 C 91.823 103.840,92.439 103.600,92.758 103.600 C 93.076 103.600,93.659 103.309,94.052 102.953 C 95.719 101.444,114.054 101.351,115.852 102.843 C 119.082 105.524,124.057 105.518,125.689 102.831 C 126.167 102.044,127.055 100.770,127.661 100.000 C 129.120 98.146,130.800 94.278,130.800 92.772 C 130.800 89.529,132.050 85.427,133.410 84.203 C 134.732 83.014,136.400 79.531,136.400 77.959 C 136.400 77.513,137.291 76.228,138.380 75.104 C 139.470 73.980,140.571 72.552,140.829 71.930 C 141.086 71.309,141.433 70.800,141.599 70.800 C 141.764 70.800,142.010 70.305,142.144 69.700 C 142.294 69.024,143.071 68.105,144.159 67.314 C 145.187 66.567,146.310 65.267,146.835 64.215 C 147.495 62.893,148.192 62.185,149.411 61.595 C 150.448 61.093,151.369 60.252,151.839 59.379 C 152.413 58.314,153.310 57.620,155.532 56.522 C 158.163 55.222,160.800 53.192,160.800 52.467 C 160.800 52.053,162.954 51.189,164.670 50.914 C 166.278 50.657,169.004 49.087,169.333 48.230 C 169.632 47.451,172.163 46.400,173.741 46.400 C 174.522 46.400,176.205 46.114,177.480 45.765 C 178.756 45.416,180.344 44.994,181.009 44.828 C 182.571 44.437,183.979 43.701,185.076 42.703 C 186.864 41.076,212.798 41.198,214.441 42.841 C 214.859 43.259,215.365 43.600,215.568 43.600 C 215.770 43.600,216.445 43.857,217.068 44.172 C 219.029 45.162,222.504 46.065,225.200 46.285 C 227.695 46.489,230.013 47.444,230.698 48.551 C 231.275 49.484,233.410 50.673,235.400 51.168 C 238.280 51.886,239.200 52.311,239.200 52.922 C 239.200 53.648,240.654 54.933,242.600 55.926 C 243.480 56.375,245.460 57.925,247.000 59.369 C 248.540 60.813,249.928 61.996,250.086 61.998 C 250.538 62.001,253.579 65.350,253.590 65.857 C 253.595 66.109,253.870 66.418,254.200 66.545 C 254.530 66.671,254.800 67.011,254.800 67.299 C 254.800 67.587,255.790 68.755,257.000 69.894 C 258.210 71.033,259.200 72.278,259.200 72.661 C 259.200 73.565,261.165 76.400,261.792 76.400 C 262.425 76.400,263.596 77.706,263.613 78.431 C 263.630 79.151,264.746 80.428,266.018 81.182 C 266.791 81.640,268.458 81.746,273.864 81.680 C 284.801 81.547,290.528 82.082,293.200 83.488 C 295.982 84.951,299.238 85.851,303.729 86.399 C 307.357 86.842,308.664 87.341,309.004 88.412 C 309.363 89.544,315.027 91.979,317.337 91.995 C 317.743 91.998,318.169 92.360,318.284 92.800 C 318.399 93.240,318.652 93.600,318.847 93.600 C 319.041 93.600,319.200 93.858,319.200 94.173 C 319.200 94.488,319.560 94.860,320.000 95.000 C 320.440 95.140,320.800 95.407,320.800 95.595 C 320.800 95.783,321.360 96.059,322.045 96.210 C 323.393 96.506,325.200 97.870,325.200 98.592 C 325.200 98.839,326.041 99.571,327.069 100.220 C 328.097 100.869,329.449 102.105,330.074 102.968 C 330.700 103.830,331.724 104.847,332.350 105.228 C 333.450 105.897,335.181 107.968,335.218 108.662 C 335.229 108.848,335.695 109.360,336.255 109.800 C 338.156 111.294,339.200 112.589,339.200 113.454 C 339.200 114.278,340.447 115.815,342.309 117.287 C 342.787 117.664,343.282 118.474,343.410 119.087 C 343.537 119.699,343.992 121.103,344.421 122.208 C 344.849 123.312,345.200 124.394,345.200 124.612 C 345.200 125.080,347.102 127.200,347.523 127.200 C 347.922 127.200,349.149 132.893,349.355 135.707 C 349.551 138.377,350.396 141.206,352.012 144.600 C 352.641 145.920,353.360 147.677,353.610 148.504 C 354.072 150.033,355.934 151.796,357.364 152.059 C 357.784 152.137,358.414 152.761,358.764 153.448 C 359.199 154.301,360.113 155.032,361.654 155.760 C 362.946 156.370,364.483 157.513,365.254 158.437 C 365.994 159.324,367.106 160.318,367.724 160.647 C 369.407 161.543,375.200 167.589,375.200 168.450 C 375.200 168.863,375.394 169.200,375.631 169.200 C 376.294 169.200,379.200 172.382,379.200 173.108 C 379.200 173.975,380.880 176.394,381.484 176.397 C 382.319 176.402,383.600 178.104,383.600 179.207 C 383.600 181.186,386.118 186.400,387.073 186.400 C 387.870 186.400,389.201 191.282,389.198 194.200 C 389.197 196.453,390.931 202.966,392.607 207.000 C 393.187 208.395,393.527 212.927,393.809 223.000 C 393.920 226.960,394.099 231.100,394.207 232.200 C 394.622 236.429,394.855 238.166,395.052 238.484 C 395.164 238.665,395.344 239.304,395.453 239.903 C 395.654 241.011,396.655 242.400,397.253 242.400 C 397.435 242.400,397.411 241.995,397.201 241.500 C 396.991 241.005,396.540 239.070,396.198 237.200 C 395.598 233.921,395.499 232.110,394.994 215.324 C 394.867 211.102,394.680 207.232,394.579 206.724 C 394.478 206.216,394.323 205.260,394.235 204.600 C 393.955 202.498,393.502 201.028,392.817 200.000 C 391.913 198.645,391.355 196.739,390.035 190.502 C 389.076 185.970,388.763 185.086,387.866 184.380 C 386.706 183.468,385.472 180.977,385.040 178.675 C 384.838 177.597,384.156 176.583,382.604 175.056 C 381.419 173.889,380.329 172.455,380.181 171.867 C 380.034 171.280,379.753 170.800,379.557 170.800 C 379.360 170.800,379.200 170.561,379.200 170.270 C 379.200 169.978,378.570 169.214,377.800 168.572 C 377.030 167.930,376.400 167.198,376.400 166.945 C 376.400 166.692,376.130 166.382,375.800 166.255 C 375.470 166.129,375.200 165.828,375.200 165.586 C 375.200 164.859,367.492 157.600,366.720 157.600 C 366.544 157.600,366.400 157.330,366.400 157.000 C 366.400 156.670,366.207 156.400,365.971 156.400 C 365.736 156.400,365.264 156.121,364.923 155.780 C 364.582 155.440,363.788 155.058,363.157 154.931 C 362.458 154.792,361.350 153.940,360.318 152.751 C 359.388 151.678,358.331 150.800,357.971 150.800 C 356.552 150.800,354.871 148.525,354.572 146.200 C 354.170 143.067,353.639 141.095,353.106 140.752 C 352.536 140.385,350.804 135.952,350.802 134.854 C 350.797 132.166,348.971 126.291,347.697 124.862 C 346.451 123.464,345.887 122.236,344.784 118.521 C 344.460 117.429,343.768 116.426,342.805 115.652 C 341.991 114.998,340.832 113.455,340.229 112.224 C 339.627 110.993,338.249 109.077,337.167 107.966 C 336.085 106.855,335.200 105.689,335.200 105.373 C 335.200 105.058,335.031 104.800,334.825 104.800 C 334.618 104.800,333.092 103.495,331.433 101.900 C 325.548 96.243,323.772 94.800,322.689 94.800 C 322.366 94.800,321.314 93.945,320.352 92.900 C 318.898 91.322,318.065 90.822,315.433 89.946 C 313.509 89.307,311.781 88.430,311.032 87.714 C 309.487 86.236,307.270 85.359,304.193 85.008 C 301.681 84.721,296.400 82.960,296.400 82.408 C 296.400 81.054,284.538 80.222,267.707 80.395 C 266.986 80.402,264.400 77.774,264.400 77.033 C 264.400 76.685,264.220 76.400,264.000 76.400 C 263.780 76.400,263.600 76.124,263.600 75.787 C 263.600 75.451,263.299 75.059,262.931 74.918 C 262.093 74.597,260.800 73.325,260.800 72.823 C 260.800 72.337,259.188 69.568,258.482 68.841 C 257.035 67.351,253.600 62.858,253.600 62.456 C 253.600 62.205,253.367 62.000,253.083 62.000 C 252.799 62.000,251.393 60.867,249.960 59.481 C 247.335 56.946,245.975 55.963,242.962 54.425 C 242.060 53.965,241.121 53.145,240.875 52.604 C 240.457 51.686,235.878 49.200,234.606 49.200 C 234.340 49.200,233.510 48.615,232.761 47.900 C 230.833 46.059,227.674 44.803,224.954 44.798 C 224.319 44.796,223.284 44.526,222.654 44.198 C 222.024 43.869,221.321 43.600,221.092 43.600 C 220.863 43.600,220.071 43.139,219.333 42.576 C 217.671 41.308,217.091 41.155,212.600 40.799 C 209.135 40.524,189.677 40.437,186.800 40.683 M221.200 178.962 C 218.648 179.875,218.624 180.033,218.384 197.600 C 218.266 206.290,218.131 213.445,218.084 213.500 C 218.038 213.555,217.468 213.600,216.818 213.600 C 214.486 213.600,213.600 215.124,213.600 219.138 C 213.600 223.929,214.472 223.600,201.791 223.600 C 189.369 223.600,185.200 224.437,185.200 226.931 C 185.200 227.350,181.982 230.385,181.527 230.394 C 181.024 230.405,179.506 232.846,179.080 234.331 C 178.811 235.268,178.572 246.733,178.421 266.000 C 178.291 282.610,178.030 296.560,177.843 297.000 C 177.564 297.653,177.627 297.632,178.182 296.887 C 179.719 294.827,179.769 293.980,180.009 265.800 C 180.286 233.211,179.736 236.724,185.497 230.757 C 191.163 224.890,190.538 225.098,203.140 224.888 C 215.267 224.686,214.800 224.871,214.800 220.278 C 214.800 217.252,216.242 214.800,218.023 214.800 C 218.345 214.800,219.101 214.343,219.704 213.784 L 220.800 212.768 220.800 197.446 C 220.800 183.110,220.847 182.081,221.531 181.462 C 222.790 180.323,337.658 180.458,338.800 181.600 C 339.572 182.372,339.600 182.933,339.600 197.582 L 339.600 212.764 340.618 213.782 C 341.178 214.342,341.933 214.800,342.296 214.800 C 344.044 214.800,345.200 216.796,345.200 219.813 C 345.200 222.212,345.346 222.841,346.100 223.699 L 347.000 224.722 357.237 224.874 C 366.072 225.005,367.618 225.120,368.523 225.713 C 369.100 226.091,369.778 226.400,370.029 226.400 C 370.978 226.400,379.016 235.041,379.553 236.639 C 379.905 237.684,380.183 242.102,380.395 250.000 C 380.631 258.806,380.862 262.208,381.305 263.408 C 382.000 265.288,382.573 268.886,382.451 270.600 C 382.394 271.403,382.483 271.627,382.719 271.279 C 383.107 270.708,384.032 270.771,384.494 271.400 C 384.676 271.648,384.790 271.610,384.794 271.300 C 384.797 271.025,385.141 270.800,385.557 270.800 C 385.974 270.800,386.420 270.526,386.548 270.191 C 386.740 269.690,386.638 269.659,385.973 270.015 C 385.060 270.503,385.648 269.060,386.709 268.207 C 387.391 267.658,387.807 265.425,387.152 265.830 C 386.822 266.033,386.783 265.951,387.023 265.563 C 387.214 265.254,387.404 264.342,387.445 263.536 C 387.487 262.730,387.732 261.740,387.990 261.336 C 388.403 260.689,388.434 260.685,388.243 261.300 C 388.101 261.756,388.238 262.000,388.636 262.000 C 388.972 262.000,389.136 261.820,389.000 261.600 C 388.581 260.922,389.682 261.159,390.192 261.856 C 390.635 262.462,390.691 262.461,390.931 261.835 C 391.082 261.443,391.028 261.259,390.803 261.398 C 390.590 261.530,390.722 261.103,391.097 260.450 C 391.472 259.797,391.900 259.338,392.049 259.430 C 392.198 259.523,392.283 259.058,392.237 258.399 C 392.192 257.740,392.287 257.200,392.450 257.200 C 392.613 257.200,392.650 256.120,392.532 254.800 L 392.318 252.400 393.572 252.400 C 394.317 252.400,394.918 252.157,395.055 251.800 C 395.296 251.173,396.400 250.954,396.400 251.533 C 396.400 251.717,396.666 251.867,396.991 251.867 C 397.550 251.867,397.547 251.143,396.979 249.300 C 396.894 249.025,397.021 248.800,397.262 248.800 C 397.532 248.800,397.490 248.543,397.149 248.123 C 396.844 247.747,396.808 247.571,397.069 247.728 C 397.569 248.028,397.530 246.601,396.992 244.900 C 396.704 243.990,396.000 243.648,396.000 244.418 C 396.000 244.647,395.775 244.806,395.500 244.770 C 392.744 244.412,390.524 246.326,390.975 248.670 C 391.943 253.696,391.670 254.693,389.211 255.113 C 386.997 255.491,386.080 256.706,385.829 259.591 C 385.703 261.037,385.403 261.955,384.948 262.287 C 384.569 262.565,384.405 262.929,384.584 263.096 C 384.763 263.263,384.990 263.175,385.088 262.900 C 385.186 262.625,385.477 262.406,385.733 262.413 C 385.990 262.421,385.795 262.764,385.300 263.177 C 384.805 263.590,384.379 264.169,384.353 264.464 C 384.327 264.759,384.186 264.460,384.040 263.800 C 383.865 263.009,383.558 262.636,383.140 262.705 C 382.167 262.867,382.009 260.948,382.004 248.857 C 381.998 233.928,381.767 232.999,377.065 229.022 C 376.039 228.154,375.200 227.241,375.200 226.994 C 375.200 224.466,370.934 223.596,358.549 223.598 C 345.953 223.600,346.957 224.000,346.723 218.891 C 346.535 214.803,346.058 214.042,343.403 213.600 L 342.200 213.400 342.000 197.600 C 341.774 179.724,341.776 179.739,338.856 178.864 C 336.531 178.167,223.157 178.262,221.200 178.962 M226.366 184.286 C 223.632 185.516,223.600 185.763,223.600 205.385 L 223.600 222.764 224.600 223.764 C 226.110 225.273,224.606 225.238,281.200 225.115 C 333.478 225.002,334.215 224.989,335.287 224.200 L 336.375 223.400 336.379 205.000 C 336.383 184.596,336.518 185.649,333.720 184.243 C 331.760 183.259,228.559 183.300,226.366 184.286 M333.600 186.800 C 334.907 188.107,334.842 222.077,333.530 223.474 L 332.661 224.400 280.206 224.400 C 227.970 224.400,227.747 224.397,226.875 223.584 C 226.001 222.770,226.000 222.753,226.005 205.484 C 226.011 187.455,226.064 186.554,227.141 186.268 C 229.902 185.534,332.849 186.049,333.600 186.800 M195.400 230.999 C 195.180 231.073,194.352 231.242,193.559 231.374 C 192.446 231.560,191.950 231.927,191.375 232.994 C 190.664 234.316,189.105 235.734,187.400 236.612 C 186.054 237.305,185.982 239.954,186.093 284.655 L 186.200 327.510 187.200 328.342 C 187.750 328.799,188.327 329.179,188.482 329.187 C 188.849 329.204,190.796 331.151,190.813 331.518 C 190.923 333.844,194.102 334.395,207.446 334.398 C 217.410 334.400,217.941 334.362,218.946 333.571 L 220.000 332.742 219.987 325.271 C 219.978 320.032,219.829 317.609,219.487 317.161 C 219.012 316.538,214.716 314.813,213.573 314.787 C 212.449 314.761,211.138 313.196,210.331 310.916 C 208.482 305.694,210.301 301.570,215.132 300.029 L 217.800 299.178 281.000 299.289 C 349.239 299.409,344.083 299.265,348.000 301.156 C 349.240 301.755,350.601 305.265,350.577 307.800 C 350.535 312.106,349.009 313.997,344.411 315.444 C 340.305 316.737,340.400 316.502,340.400 325.358 C 340.400 335.311,339.150 334.400,352.809 334.400 C 364.934 334.400,367.690 334.060,368.725 332.439 C 369.572 331.112,371.112 329.572,372.439 328.725 C 374.436 327.450,374.457 326.930,374.308 281.000 C 374.164 236.729,374.181 237.138,372.443 236.418 C 371.437 236.001,370.105 234.677,368.480 232.480 C 367.419 231.045,365.400 230.820,353.514 230.810 C 342.958 230.800,342.408 230.837,342.014 231.574 C 341.746 232.075,341.600 238.879,341.600 250.910 C 341.600 270.660,341.294 275.439,339.917 277.193 C 337.913 279.747,333.046 284.574,331.699 285.344 L 330.200 286.200 280.800 286.311 C 223.384 286.440,229.687 286.970,224.303 281.555 C 218.555 275.773,219.019 278.168,218.887 253.600 C 218.808 238.924,218.637 232.329,218.319 231.700 L 217.865 230.800 206.832 230.832 C 200.765 230.849,195.620 230.924,195.400 230.999 M358.607 251.265 C 359.494 253.591,357.866 254.369,354.700 253.132 C 353.321 252.594,353.235 252.830,355.700 250.412 C 357.377 248.767,357.825 248.498,357.924 249.076 C 357.992 249.474,358.300 250.459,358.607 251.265 M395.081 252.637 C 394.283 253.707,394.523 253.935,395.461 252.996 C 395.793 252.664,396.005 252.231,395.932 252.033 C 395.859 251.836,395.477 252.107,395.081 252.637 M394.100 255.007 C 394.100 255.561,394.255 256.111,394.445 256.228 C 394.635 256.345,394.672 256.133,394.527 255.755 C 394.344 255.278,394.412 255.160,394.750 255.369 C 395.315 255.719,396.495 254.878,396.172 254.355 C 395.645 253.501,394.100 253.988,394.100 255.007 M391.455 260.600 C 391.323 260.944,391.447 261.200,391.746 261.200 C 392.032 261.200,392.267 260.930,392.267 260.600 C 392.267 260.270,392.136 260.000,391.976 260.000 C 391.816 260.000,391.582 260.270,391.455 260.600 M384.762 269.845 C 384.177 270.550,383.893 270.344,384.232 269.460 C 384.371 269.099,384.654 268.910,384.861 269.038 C 385.086 269.177,385.046 269.503,384.762 269.845 M225.800 305.878 C 224.102 307.368,223.987 309.330,223.754 340.799 C 223.530 371.172,223.428 370.143,226.742 371.135 C 229.017 371.817,331.374 371.799,333.560 371.117 C 336.635 370.157,336.486 371.936,336.335 337.875 L 336.200 307.644 334.822 306.222 L 333.443 304.800 280.222 304.813 L 227.000 304.825 225.800 305.878 M333.727 311.400 C 334.306 318.498,334.493 367.272,333.945 368.300 L 333.465 369.200 280.146 369.200 C 227.058 369.200,226.826 369.197,226.396 368.392 C 225.666 367.029,226.240 309.952,227.006 307.699 C 227.141 307.299,238.000 307.218,280.288 307.299 L 333.400 307.400 333.727 311.400 " stroke="none" fill="#b4c4d4" fill-rule="evenodd"></path></g></svg>